<svg xmlns="http://www.w3.org/2000/svg" viewBox="0 0 1180 540" role="img" aria-label="VO2max">
<rect x="0" y="0" width="1180" height="540" rx="18" fill="#ffffff"/>
<rect x="70" y="74" width="992" height="412" rx="10" fill="#fbfcfd" stroke="#e8ecf1"/>
<text x="24" y="34" fill="#1d252d" font-size="24" font-weight="700" font-family="Inter, system-ui, sans-serif">VO2max</text>
<line x1="70" y1="74.0" x2="1062" y2="74.0" stroke="#e8ecf1" stroke-width="1"/>
<line x1="70" y1="177.0" x2="1062" y2="177.0" stroke="#e8ecf1" stroke-width="1"/>
<line x1="70" y1="280.0" x2="1062" y2="280.0" stroke="#e8ecf1" stroke-width="1"/>
<line x1="70" y1="383.0" x2="1062" y2="383.0" stroke="#e8ecf1" stroke-width="1"/>
<line x1="70" y1="486.0" x2="1062" y2="486.0" stroke="#e8ecf1" stroke-width="1"/>
<line x1="70.0" y1="74" x2="70.0" y2="486" stroke="#e8ecf1" stroke-width="1"/>
<text x="70.0" y="520" text-anchor="middle" fill="#66717d" font-size="13" font-family="Inter, system-ui, sans-serif">27.07.</text>
<line x1="318.0" y1="74" x2="318.0" y2="486" stroke="#e8ecf1" stroke-width="1"/>
<text x="318.0" y="520" text-anchor="middle" fill="#66717d" font-size="13" font-family="Inter, system-ui, sans-serif">26.10.</text>
<line x1="566.0" y1="74" x2="566.0" y2="486" stroke="#e8ecf1" stroke-width="1"/>
<text x="566.0" y="520" text-anchor="middle" fill="#66717d" font-size="13" font-family="Inter, system-ui, sans-serif">25.01.</text>
<line x1="814.0" y1="74" x2="814.0" y2="486" stroke="#e8ecf1" stroke-width="1"/>
<text x="814.0" y="520" text-anchor="middle" fill="#66717d" font-size="13" font-family="Inter, system-ui, sans-serif">26.04.</text>
<line x1="1062.0" y1="74" x2="1062.0" y2="486" stroke="#e8ecf1" stroke-width="1"/>
<text x="1062.0" y="520" text-anchor="middle" fill="#66717d" font-size="13" font-family="Inter, system-ui, sans-serif">26.07.</text>
<text x="58" y="79" text-anchor="end" fill="#66717d" font-size="13" font-family="Inter, system-ui, sans-serif">69.4</text>
<text x="58" y="486" text-anchor="end" fill="#66717d" font-size="13" font-family="Inter, system-ui, sans-serif">55</text>
<polyline points="285.3,335.4 304.4,363.1 315.3,307.7 342.5,335.4 350.7,307.7 369.8,252.3 391.6,280.0 399.8,307.7 418.8,280.0 432.5,307.7 437.9,335.4 451.5,307.7 462.4,280.0 484.2,252.3 497.9,280.0 506.0,252.3 516.9,224.6 536.0,196.9 552.4,224.6 560.5,196.9 571.5,224.6 576.9,196.9 593.3,169.2 626.0,141.6 628.7,169.2 639.6,141.6 645.0,113.9 658.7,141.6 699.5,113.9 705.0,141.6 724.1,169.2 726.8,141.6 789.5,169.2 797.6,141.6 819.5,113.9 841.3,141.6 852.2,160.9 906.7,224.6 912.1,210.8 917.6,194.2 925.7,196.9 931.2,230.2 936.6,224.6 939.4,263.4 950.3,293.8 955.7,291.1 961.2,268.9 969.3,274.5 972.1,266.2 977.5,257.8 980.2,260.6 988.4,241.2 993.9,221.9 1007.5,188.6 1012.9,194.2 1032.0,191.4 1037.5,194.2 1040.2,199.7 1051.1,205.2 1053.8,177.6" fill="none" stroke="#287c71" stroke-width="3" stroke-linecap="round" stroke-linejoin="round"/>
<circle cx="285.3" cy="335.4" r="3.8" fill="#287c71" stroke="#ffffff" stroke-width="1.6"/>
<circle cx="304.4" cy="363.1" r="3.8" fill="#287c71" stroke="#ffffff" stroke-width="1.6"/>
<circle cx="315.3" cy="307.7" r="3.8" fill="#287c71" stroke="#ffffff" stroke-width="1.6"/>
<circle cx="342.5" cy="335.4" r="3.8" fill="#287c71" stroke="#ffffff" stroke-width="1.6"/>
<circle cx="350.7" cy="307.7" r="3.8" fill="#287c71" stroke="#ffffff" stroke-width="1.6"/>
<circle cx="369.8" cy="252.3" r="3.8" fill="#287c71" stroke="#ffffff" stroke-width="1.6"/>
<circle cx="391.6" cy="280.0" r="3.8" fill="#287c71" stroke="#ffffff" stroke-width="1.6"/>
<circle cx="399.8" cy="307.7" r="3.8" fill="#287c71" stroke="#ffffff" stroke-width="1.6"/>
<circle cx="418.8" cy="280.0" r="3.8" fill="#287c71" stroke="#ffffff" stroke-width="1.6"/>
<circle cx="432.5" cy="307.7" r="3.8" fill="#287c71" stroke="#ffffff" stroke-width="1.6"/>
<circle cx="437.9" cy="335.4" r="3.8" fill="#287c71" stroke="#ffffff" stroke-width="1.6"/>
<circle cx="451.5" cy="307.7" r="3.8" fill="#287c71" stroke="#ffffff" stroke-width="1.6"/>
<circle cx="462.4" cy="280.0" r="3.8" fill="#287c71" stroke="#ffffff" stroke-width="1.6"/>
<circle cx="484.2" cy="252.3" r="3.8" fill="#287c71" stroke="#ffffff" stroke-width="1.6"/>
<circle cx="497.9" cy="280.0" r="3.8" fill="#287c71" stroke="#ffffff" stroke-width="1.6"/>
<circle cx="506.0" cy="252.3" r="3.8" fill="#287c71" stroke="#ffffff" stroke-width="1.6"/>
<circle cx="516.9" cy="224.6" r="3.8" fill="#287c71" stroke="#ffffff" stroke-width="1.6"/>
<circle cx="536.0" cy="196.9" r="3.8" fill="#287c71" stroke="#ffffff" stroke-width="1.6"/>
<circle cx="552.4" cy="224.6" r="3.8" fill="#287c71" stroke="#ffffff" stroke-width="1.6"/>
<circle cx="560.5" cy="196.9" r="3.8" fill="#287c71" stroke="#ffffff" stroke-width="1.6"/>
<circle cx="571.5" cy="224.6" r="3.8" fill="#287c71" stroke="#ffffff" stroke-width="1.6"/>
<circle cx="576.9" cy="196.9" r="3.8" fill="#287c71" stroke="#ffffff" stroke-width="1.6"/>
<circle cx="593.3" cy="169.2" r="3.8" fill="#287c71" stroke="#ffffff" stroke-width="1.6"/>
<circle cx="626.0" cy="141.6" r="3.8" fill="#287c71" stroke="#ffffff" stroke-width="1.6"/>
<circle cx="628.7" cy="169.2" r="3.8" fill="#287c71" stroke="#ffffff" stroke-width="1.6"/>
<circle cx="639.6" cy="141.6" r="3.8" fill="#287c71" stroke="#ffffff" stroke-width="1.6"/>
<circle cx="645.0" cy="113.9" r="3.8" fill="#287c71" stroke="#ffffff" stroke-width="1.6"/>
<circle cx="658.7" cy="141.6" r="3.8" fill="#287c71" stroke="#ffffff" stroke-width="1.6"/>
<circle cx="699.5" cy="113.9" r="3.8" fill="#287c71" stroke="#ffffff" stroke-width="1.6"/>
<circle cx="705.0" cy="141.6" r="3.8" fill="#287c71" stroke="#ffffff" stroke-width="1.6"/>
<circle cx="724.1" cy="169.2" r="3.8" fill="#287c71" stroke="#ffffff" stroke-width="1.6"/>
<circle cx="726.8" cy="141.6" r="3.8" fill="#287c71" stroke="#ffffff" stroke-width="1.6"/>
<circle cx="789.5" cy="169.2" r="3.8" fill="#287c71" stroke="#ffffff" stroke-width="1.6"/>
<circle cx="797.6" cy="141.6" r="3.8" fill="#287c71" stroke="#ffffff" stroke-width="1.6"/>
<circle cx="819.5" cy="113.9" r="3.8" fill="#287c71" stroke="#ffffff" stroke-width="1.6"/>
<circle cx="841.3" cy="141.6" r="3.8" fill="#287c71" stroke="#ffffff" stroke-width="1.6"/>
<circle cx="852.2" cy="160.9" r="3.8" fill="#287c71" stroke="#ffffff" stroke-width="1.6"/>
<circle cx="906.7" cy="224.6" r="3.8" fill="#287c71" stroke="#ffffff" stroke-width="1.6"/>
<circle cx="912.1" cy="210.8" r="3.8" fill="#287c71" stroke="#ffffff" stroke-width="1.6"/>
<circle cx="917.6" cy="194.2" r="3.8" fill="#287c71" stroke="#ffffff" stroke-width="1.6"/>
<circle cx="925.7" cy="196.9" r="3.8" fill="#287c71" stroke="#ffffff" stroke-width="1.6"/>
<circle cx="931.2" cy="230.2" r="3.8" fill="#287c71" stroke="#ffffff" stroke-width="1.6"/>
<circle cx="936.6" cy="224.6" r="3.8" fill="#287c71" stroke="#ffffff" stroke-width="1.6"/>
<circle cx="939.4" cy="263.4" r="3.8" fill="#287c71" stroke="#ffffff" stroke-width="1.6"/>
<circle cx="950.3" cy="293.8" r="3.8" fill="#287c71" stroke="#ffffff" stroke-width="1.6"/>
<circle cx="955.7" cy="291.1" r="3.8" fill="#287c71" stroke="#ffffff" stroke-width="1.6"/>
<circle cx="961.2" cy="268.9" r="3.8" fill="#287c71" stroke="#ffffff" stroke-width="1.6"/>
<circle cx="969.3" cy="274.5" r="3.8" fill="#287c71" stroke="#ffffff" stroke-width="1.6"/>
<circle cx="972.1" cy="266.2" r="3.8" fill="#287c71" stroke="#ffffff" stroke-width="1.6"/>
<circle cx="977.5" cy="257.8" r="3.8" fill="#287c71" stroke="#ffffff" stroke-width="1.6"/>
<circle cx="980.2" cy="260.6" r="3.8" fill="#287c71" stroke="#ffffff" stroke-width="1.6"/>
<circle cx="988.4" cy="241.2" r="3.8" fill="#287c71" stroke="#ffffff" stroke-width="1.6"/>
<circle cx="993.9" cy="221.9" r="3.8" fill="#287c71" stroke="#ffffff" stroke-width="1.6"/>
<circle cx="1007.5" cy="188.6" r="3.8" fill="#287c71" stroke="#ffffff" stroke-width="1.6"/>
<circle cx="1012.9" cy="194.2" r="3.8" fill="#287c71" stroke="#ffffff" stroke-width="1.6"/>
<circle cx="1032.0" cy="191.4" r="3.8" fill="#287c71" stroke="#ffffff" stroke-width="1.6"/>
<circle cx="1037.5" cy="194.2" r="3.8" fill="#287c71" stroke="#ffffff" stroke-width="1.6"/>
<circle cx="1040.2" cy="199.7" r="3.8" fill="#287c71" stroke="#ffffff" stroke-width="1.6"/>
<circle cx="1051.1" cy="205.2" r="3.8" fill="#287c71" stroke="#ffffff" stroke-width="1.6"/>
<circle cx="1053.8" cy="177.6" r="3.8" fill="#287c71" stroke="#ffffff" stroke-width="1.6"/>
<polyline points="255.3,307.7 282.6,335.4 288.0,363.1 293.5,446.1 301.6,390.8 358.9,363.1 397.0,390.8 418.8,363.1 421.6,390.8 435.2,363.1 440.6,390.8 446.1,363.1 473.3,335.4 500.6,307.7 511.5,280.0 519.7,307.7 634.1,280.0 775.8,252.3 778.6,280.0 852.2,304.9 898.5,335.4 906.7,307.7 920.3,310.5 923.0,307.7 928.5,313.2 942.1,329.8 944.8,338.1 953.0,329.8 958.4,313.2 991.1,280.0 1015.7,277.2 1018.4,299.4 1023.8,293.8 1026.6,288.3 1029.3,285.5 1034.7,296.6 1045.6,293.8 1056.5,299.4 1062.0,288.3" fill="none" stroke="#b64b3a" stroke-width="3" stroke-linecap="round" stroke-linejoin="round"/>
<circle cx="255.3" cy="307.7" r="3.8" fill="#b64b3a" stroke="#ffffff" stroke-width="1.6"/>
<circle cx="282.6" cy="335.4" r="3.8" fill="#b64b3a" stroke="#ffffff" stroke-width="1.6"/>
<circle cx="288.0" cy="363.1" r="3.8" fill="#b64b3a" stroke="#ffffff" stroke-width="1.6"/>
<circle cx="293.5" cy="446.1" r="3.8" fill="#b64b3a" stroke="#ffffff" stroke-width="1.6"/>
<circle cx="301.6" cy="390.8" r="3.8" fill="#b64b3a" stroke="#ffffff" stroke-width="1.6"/>
<circle cx="358.9" cy="363.1" r="3.8" fill="#b64b3a" stroke="#ffffff" stroke-width="1.6"/>
<circle cx="397.0" cy="390.8" r="3.8" fill="#b64b3a" stroke="#ffffff" stroke-width="1.6"/>
<circle cx="418.8" cy="363.1" r="3.8" fill="#b64b3a" stroke="#ffffff" stroke-width="1.6"/>
<circle cx="421.6" cy="390.8" r="3.8" fill="#b64b3a" stroke="#ffffff" stroke-width="1.6"/>
<circle cx="435.2" cy="363.1" r="3.8" fill="#b64b3a" stroke="#ffffff" stroke-width="1.6"/>
<circle cx="440.6" cy="390.8" r="3.8" fill="#b64b3a" stroke="#ffffff" stroke-width="1.6"/>
<circle cx="446.1" cy="363.1" r="3.8" fill="#b64b3a" stroke="#ffffff" stroke-width="1.6"/>
<circle cx="473.3" cy="335.4" r="3.8" fill="#b64b3a" stroke="#ffffff" stroke-width="1.6"/>
<circle cx="500.6" cy="307.7" r="3.8" fill="#b64b3a" stroke="#ffffff" stroke-width="1.6"/>
<circle cx="511.5" cy="280.0" r="3.8" fill="#b64b3a" stroke="#ffffff" stroke-width="1.6"/>
<circle cx="519.7" cy="307.7" r="3.8" fill="#b64b3a" stroke="#ffffff" stroke-width="1.6"/>
<circle cx="634.1" cy="280.0" r="3.8" fill="#b64b3a" stroke="#ffffff" stroke-width="1.6"/>
<circle cx="775.8" cy="252.3" r="3.8" fill="#b64b3a" stroke="#ffffff" stroke-width="1.6"/>
<circle cx="778.6" cy="280.0" r="3.8" fill="#b64b3a" stroke="#ffffff" stroke-width="1.6"/>
<circle cx="852.2" cy="304.9" r="3.8" fill="#b64b3a" stroke="#ffffff" stroke-width="1.6"/>
<circle cx="898.5" cy="335.4" r="3.8" fill="#b64b3a" stroke="#ffffff" stroke-width="1.6"/>
<circle cx="906.7" cy="307.7" r="3.8" fill="#b64b3a" stroke="#ffffff" stroke-width="1.6"/>
<circle cx="920.3" cy="310.5" r="3.8" fill="#b64b3a" stroke="#ffffff" stroke-width="1.6"/>
<circle cx="923.0" cy="307.7" r="3.8" fill="#b64b3a" stroke="#ffffff" stroke-width="1.6"/>
<circle cx="928.5" cy="313.2" r="3.8" fill="#b64b3a" stroke="#ffffff" stroke-width="1.6"/>
<circle cx="942.1" cy="329.8" r="3.8" fill="#b64b3a" stroke="#ffffff" stroke-width="1.6"/>
<circle cx="944.8" cy="338.1" r="3.8" fill="#b64b3a" stroke="#ffffff" stroke-width="1.6"/>
<circle cx="953.0" cy="329.8" r="3.8" fill="#b64b3a" stroke="#ffffff" stroke-width="1.6"/>
<circle cx="958.4" cy="313.2" r="3.8" fill="#b64b3a" stroke="#ffffff" stroke-width="1.6"/>
<circle cx="991.1" cy="280.0" r="3.8" fill="#b64b3a" stroke="#ffffff" stroke-width="1.6"/>
<circle cx="1015.7" cy="277.2" r="3.8" fill="#b64b3a" stroke="#ffffff" stroke-width="1.6"/>
<circle cx="1018.4" cy="299.4" r="3.8" fill="#b64b3a" stroke="#ffffff" stroke-width="1.6"/>
<circle cx="1023.8" cy="293.8" r="3.8" fill="#b64b3a" stroke="#ffffff" stroke-width="1.6"/>
<circle cx="1026.6" cy="288.3" r="3.8" fill="#b64b3a" stroke="#ffffff" stroke-width="1.6"/>
<circle cx="1029.3" cy="285.5" r="3.8" fill="#b64b3a" stroke="#ffffff" stroke-width="1.6"/>
<circle cx="1034.7" cy="296.6" r="3.8" fill="#b64b3a" stroke="#ffffff" stroke-width="1.6"/>
<circle cx="1045.6" cy="293.8" r="3.8" fill="#b64b3a" stroke="#ffffff" stroke-width="1.6"/>
<circle cx="1056.5" cy="299.4" r="3.8" fill="#b64b3a" stroke="#ffffff" stroke-width="1.6"/>
<circle cx="1062.0" cy="288.3" r="3.8" fill="#b64b3a" stroke="#ffffff" stroke-width="1.6"/>
<text x="1156" y="32" text-anchor="end" fill="#66717d" font-size="14" font-weight="650" font-family="Inter, system-ui, sans-serif">Run</text>
<circle cx="1119.6" cy="28" r="4.5" fill="#b64b3a"/>
<text x="1079.6" y="32" text-anchor="end" fill="#66717d" font-size="14" font-weight="650" font-family="Inter, system-ui, sans-serif">Bike</text>
<circle cx="1036.4" cy="28" r="4.5" fill="#287c71"/>
<text x="1076" y="177.6" fill="#287c71" font-size="15" font-weight="800" font-family="Inter, system-ui, sans-serif">65.7</text>
<text x="1076" y="308.3" fill="#b64b3a" font-size="15" font-weight="800" font-family="Inter, system-ui, sans-serif">61.7</text>
</svg>

