<svg xmlns="http://www.w3.org/2000/svg" viewBox="0 0 1180 540" role="img" aria-label="Thresholds">
<rect x="0" y="0" width="1180" height="540" rx="18" fill="#ffffff"/>
<rect x="70" y="74" width="992" height="412" rx="10" fill="#fbfcfd" stroke="#e8ecf1"/>
<text x="24" y="34" fill="#1d252d" font-size="24" font-weight="700" font-family="Inter, system-ui, sans-serif">Thresholds</text>
<line x1="70" y1="74.0" x2="1062" y2="74.0" stroke="#e8ecf1" stroke-width="1"/>
<line x1="70" y1="177.0" x2="1062" y2="177.0" stroke="#e8ecf1" stroke-width="1"/>
<line x1="70" y1="280.0" x2="1062" y2="280.0" stroke="#e8ecf1" stroke-width="1"/>
<line x1="70" y1="383.0" x2="1062" y2="383.0" stroke="#e8ecf1" stroke-width="1"/>
<line x1="70" y1="486.0" x2="1062" y2="486.0" stroke="#e8ecf1" stroke-width="1"/>
<line x1="70.0" y1="74" x2="70.0" y2="486" stroke="#e8ecf1" stroke-width="1"/>
<text x="70.0" y="520" text-anchor="middle" fill="#66717d" font-size="13" font-family="Inter, system-ui, sans-serif">27.07.</text>
<line x1="318.0" y1="74" x2="318.0" y2="486" stroke="#e8ecf1" stroke-width="1"/>
<text x="318.0" y="520" text-anchor="middle" fill="#66717d" font-size="13" font-family="Inter, system-ui, sans-serif">26.10.</text>
<line x1="566.0" y1="74" x2="566.0" y2="486" stroke="#e8ecf1" stroke-width="1"/>
<text x="566.0" y="520" text-anchor="middle" fill="#66717d" font-size="13" font-family="Inter, system-ui, sans-serif">25.01.</text>
<line x1="814.0" y1="74" x2="814.0" y2="486" stroke="#e8ecf1" stroke-width="1"/>
<text x="814.0" y="520" text-anchor="middle" fill="#66717d" font-size="13" font-family="Inter, system-ui, sans-serif">26.04.</text>
<line x1="1062.0" y1="74" x2="1062.0" y2="486" stroke="#e8ecf1" stroke-width="1"/>
<text x="1062.0" y="520" text-anchor="middle" fill="#66717d" font-size="13" font-family="Inter, system-ui, sans-serif">26.07.</text>
<text x="1156" y="32" text-anchor="end" fill="#66717d" font-size="14" font-weight="650" font-family="Inter, system-ui, sans-serif">Run LT</text>
<circle cx="1099.2" cy="28" r="4.5" fill="#9f2f25"/>
<text x="1059.2" y="32" text-anchor="end" fill="#66717d" font-size="14" font-weight="650" font-family="Inter, system-ui, sans-serif">Bike FTP</text>
<circle cx="988.8" cy="28" r="4.5" fill="#287c71"/>
<text x="948.8000000000001" y="32" text-anchor="end" fill="#66717d" font-size="14" font-weight="650" font-family="Inter, system-ui, sans-serif">Swim CSS</text>
<circle cx="878.4" cy="28" r="4.5" fill="#2f6fa3"/>
<polyline points="94.5,446.1 459.7,241.7 612.3,113.9 923.0,139.4" fill="none" stroke="#2f6fa3" stroke-width="3" stroke-linecap="round" stroke-linejoin="round"/>
<circle cx="94.5" cy="446.1" r="3.8" fill="#2f6fa3" stroke="#ffffff" stroke-width="1.6"/>
<circle cx="459.7" cy="241.7" r="3.8" fill="#2f6fa3" stroke="#ffffff" stroke-width="1.6"/>
<circle cx="612.3" cy="113.9" r="3.8" fill="#2f6fa3" stroke="#ffffff" stroke-width="1.6"/>
<circle cx="923.0" cy="139.4" r="3.8" fill="#2f6fa3" stroke="#ffffff" stroke-width="1.6"/>
<text x="1076" y="139.4" fill="#2f6fa3" font-size="15" font-weight="800" font-family="Inter, system-ui, sans-serif">1:35/100m</text>
<polyline points="285.3,406.3 304.4,446.1 315.3,353.1 342.5,406.3 350.7,366.4 369.8,293.3 391.6,319.9 399.8,379.7 405.2,353.1 418.8,319.9 432.5,379.7 437.9,406.3 440.6,313.2 443.4,386.3 451.5,366.4 462.4,339.8 484.2,286.6 497.9,333.2 506.0,299.9 516.9,266.7 530.6,240.1 536.0,213.5 552.4,266.7 557.8,246.8 576.9,213.5 593.3,180.3 639.6,140.5 645.0,120.5 658.7,160.4 664.1,133.8 672.3,167.0 696.8,147.1 699.5,113.9 705.0,147.1 724.1,180.3 726.8,153.7 789.5,193.6 797.6,160.4 808.5,140.5 819.5,120.5 906.7,253.4 912.1,233.5 931.2,266.7 939.4,260.1 961.2,299.9 969.3,293.3 972.1,260.1 977.5,299.9 980.2,280.0 993.9,253.4 1007.5,233.5" fill="none" stroke="#287c71" stroke-width="3" stroke-linecap="round" stroke-linejoin="round"/>
<circle cx="285.3" cy="406.3" r="3.8" fill="#287c71" stroke="#ffffff" stroke-width="1.6"/>
<circle cx="304.4" cy="446.1" r="3.8" fill="#287c71" stroke="#ffffff" stroke-width="1.6"/>
<circle cx="315.3" cy="353.1" r="3.8" fill="#287c71" stroke="#ffffff" stroke-width="1.6"/>
<circle cx="342.5" cy="406.3" r="3.8" fill="#287c71" stroke="#ffffff" stroke-width="1.6"/>
<circle cx="350.7" cy="366.4" r="3.8" fill="#287c71" stroke="#ffffff" stroke-width="1.6"/>
<circle cx="369.8" cy="293.3" r="3.8" fill="#287c71" stroke="#ffffff" stroke-width="1.6"/>
<circle cx="391.6" cy="319.9" r="3.8" fill="#287c71" stroke="#ffffff" stroke-width="1.6"/>
<circle cx="399.8" cy="379.7" r="3.8" fill="#287c71" stroke="#ffffff" stroke-width="1.6"/>
<circle cx="405.2" cy="353.1" r="3.8" fill="#287c71" stroke="#ffffff" stroke-width="1.6"/>
<circle cx="418.8" cy="319.9" r="3.8" fill="#287c71" stroke="#ffffff" stroke-width="1.6"/>
<circle cx="432.5" cy="379.7" r="3.8" fill="#287c71" stroke="#ffffff" stroke-width="1.6"/>
<circle cx="437.9" cy="406.3" r="3.8" fill="#287c71" stroke="#ffffff" stroke-width="1.6"/>
<circle cx="440.6" cy="313.2" r="3.8" fill="#287c71" stroke="#ffffff" stroke-width="1.6"/>
<circle cx="443.4" cy="386.3" r="3.8" fill="#287c71" stroke="#ffffff" stroke-width="1.6"/>
<circle cx="451.5" cy="366.4" r="3.8" fill="#287c71" stroke="#ffffff" stroke-width="1.6"/>
<circle cx="462.4" cy="339.8" r="3.8" fill="#287c71" stroke="#ffffff" stroke-width="1.6"/>
<circle cx="484.2" cy="286.6" r="3.8" fill="#287c71" stroke="#ffffff" stroke-width="1.6"/>
<circle cx="497.9" cy="333.2" r="3.8" fill="#287c71" stroke="#ffffff" stroke-width="1.6"/>
<circle cx="506.0" cy="299.9" r="3.8" fill="#287c71" stroke="#ffffff" stroke-width="1.6"/>
<circle cx="516.9" cy="266.7" r="3.8" fill="#287c71" stroke="#ffffff" stroke-width="1.6"/>
<circle cx="530.6" cy="240.1" r="3.8" fill="#287c71" stroke="#ffffff" stroke-width="1.6"/>
<circle cx="536.0" cy="213.5" r="3.8" fill="#287c71" stroke="#ffffff" stroke-width="1.6"/>
<circle cx="552.4" cy="266.7" r="3.8" fill="#287c71" stroke="#ffffff" stroke-width="1.6"/>
<circle cx="557.8" cy="246.8" r="3.8" fill="#287c71" stroke="#ffffff" stroke-width="1.6"/>
<circle cx="576.9" cy="213.5" r="3.8" fill="#287c71" stroke="#ffffff" stroke-width="1.6"/>
<circle cx="593.3" cy="180.3" r="3.8" fill="#287c71" stroke="#ffffff" stroke-width="1.6"/>
<circle cx="639.6" cy="140.5" r="3.8" fill="#287c71" stroke="#ffffff" stroke-width="1.6"/>
<circle cx="645.0" cy="120.5" r="3.8" fill="#287c71" stroke="#ffffff" stroke-width="1.6"/>
<circle cx="658.7" cy="160.4" r="3.8" fill="#287c71" stroke="#ffffff" stroke-width="1.6"/>
<circle cx="664.1" cy="133.8" r="3.8" fill="#287c71" stroke="#ffffff" stroke-width="1.6"/>
<circle cx="672.3" cy="167.0" r="3.8" fill="#287c71" stroke="#ffffff" stroke-width="1.6"/>
<circle cx="696.8" cy="147.1" r="3.8" fill="#287c71" stroke="#ffffff" stroke-width="1.6"/>
<circle cx="699.5" cy="113.9" r="3.8" fill="#287c71" stroke="#ffffff" stroke-width="1.6"/>
<circle cx="705.0" cy="147.1" r="3.8" fill="#287c71" stroke="#ffffff" stroke-width="1.6"/>
<circle cx="724.1" cy="180.3" r="3.8" fill="#287c71" stroke="#ffffff" stroke-width="1.6"/>
<circle cx="726.8" cy="153.7" r="3.8" fill="#287c71" stroke="#ffffff" stroke-width="1.6"/>
<circle cx="789.5" cy="193.6" r="3.8" fill="#287c71" stroke="#ffffff" stroke-width="1.6"/>
<circle cx="797.6" cy="160.4" r="3.8" fill="#287c71" stroke="#ffffff" stroke-width="1.6"/>
<circle cx="808.5" cy="140.5" r="3.8" fill="#287c71" stroke="#ffffff" stroke-width="1.6"/>
<circle cx="819.5" cy="120.5" r="3.8" fill="#287c71" stroke="#ffffff" stroke-width="1.6"/>
<circle cx="906.7" cy="253.4" r="3.8" fill="#287c71" stroke="#ffffff" stroke-width="1.6"/>
<circle cx="912.1" cy="233.5" r="3.8" fill="#287c71" stroke="#ffffff" stroke-width="1.6"/>
<circle cx="931.2" cy="266.7" r="3.8" fill="#287c71" stroke="#ffffff" stroke-width="1.6"/>
<circle cx="939.4" cy="260.1" r="3.8" fill="#287c71" stroke="#ffffff" stroke-width="1.6"/>
<circle cx="961.2" cy="299.9" r="3.8" fill="#287c71" stroke="#ffffff" stroke-width="1.6"/>
<circle cx="969.3" cy="293.3" r="3.8" fill="#287c71" stroke="#ffffff" stroke-width="1.6"/>
<circle cx="972.1" cy="260.1" r="3.8" fill="#287c71" stroke="#ffffff" stroke-width="1.6"/>
<circle cx="977.5" cy="299.9" r="3.8" fill="#287c71" stroke="#ffffff" stroke-width="1.6"/>
<circle cx="980.2" cy="280.0" r="3.8" fill="#287c71" stroke="#ffffff" stroke-width="1.6"/>
<circle cx="993.9" cy="253.4" r="3.8" fill="#287c71" stroke="#ffffff" stroke-width="1.6"/>
<circle cx="1007.5" cy="233.5" r="3.8" fill="#287c71" stroke="#ffffff" stroke-width="1.6"/>
<text x="1076" y="251.5" fill="#287c71" font-size="15" font-weight="800" font-family="Inter, system-ui, sans-serif">312W</text>
<polyline points="255.3,292.8 288.0,407.8 358.9,407.8 397.0,446.1 418.8,407.8 435.2,356.7 454.3,343.9 473.3,318.3 489.7,292.8 500.6,292.8 511.5,254.4 634.1,254.4 669.6,254.4 748.6,216.1 784.0,139.4 822.2,113.9 827.6,113.9 920.3,177.8 942.1,190.5 974.8,190.5 1015.7,228.9 1026.6,228.9 1029.3,190.5 1034.7,177.8" fill="none" stroke="#9f2f25" stroke-width="3" stroke-linecap="round" stroke-linejoin="round"/>
<circle cx="255.3" cy="292.8" r="3.8" fill="#9f2f25" stroke="#ffffff" stroke-width="1.6"/>
<circle cx="288.0" cy="407.8" r="3.8" fill="#9f2f25" stroke="#ffffff" stroke-width="1.6"/>
<circle cx="358.9" cy="407.8" r="3.8" fill="#9f2f25" stroke="#ffffff" stroke-width="1.6"/>
<circle cx="397.0" cy="446.1" r="3.8" fill="#9f2f25" stroke="#ffffff" stroke-width="1.6"/>
<circle cx="418.8" cy="407.8" r="3.8" fill="#9f2f25" stroke="#ffffff" stroke-width="1.6"/>
<circle cx="435.2" cy="356.7" r="3.8" fill="#9f2f25" stroke="#ffffff" stroke-width="1.6"/>
<circle cx="454.3" cy="343.9" r="3.8" fill="#9f2f25" stroke="#ffffff" stroke-width="1.6"/>
<circle cx="473.3" cy="318.3" r="3.8" fill="#9f2f25" stroke="#ffffff" stroke-width="1.6"/>
<circle cx="489.7" cy="292.8" r="3.8" fill="#9f2f25" stroke="#ffffff" stroke-width="1.6"/>
<circle cx="500.6" cy="292.8" r="3.8" fill="#9f2f25" stroke="#ffffff" stroke-width="1.6"/>
<circle cx="511.5" cy="254.4" r="3.8" fill="#9f2f25" stroke="#ffffff" stroke-width="1.6"/>
<circle cx="634.1" cy="254.4" r="3.8" fill="#9f2f25" stroke="#ffffff" stroke-width="1.6"/>
<circle cx="669.6" cy="254.4" r="3.8" fill="#9f2f25" stroke="#ffffff" stroke-width="1.6"/>
<circle cx="748.6" cy="216.1" r="3.8" fill="#9f2f25" stroke="#ffffff" stroke-width="1.6"/>
<circle cx="784.0" cy="139.4" r="3.8" fill="#9f2f25" stroke="#ffffff" stroke-width="1.6"/>
<circle cx="822.2" cy="113.9" r="3.8" fill="#9f2f25" stroke="#ffffff" stroke-width="1.6"/>
<circle cx="827.6" cy="113.9" r="3.8" fill="#9f2f25" stroke="#ffffff" stroke-width="1.6"/>
<circle cx="920.3" cy="177.8" r="3.8" fill="#9f2f25" stroke="#ffffff" stroke-width="1.6"/>
<circle cx="942.1" cy="190.5" r="3.8" fill="#9f2f25" stroke="#ffffff" stroke-width="1.6"/>
<circle cx="974.8" cy="190.5" r="3.8" fill="#9f2f25" stroke="#ffffff" stroke-width="1.6"/>
<circle cx="1015.7" cy="228.9" r="3.8" fill="#9f2f25" stroke="#ffffff" stroke-width="1.6"/>
<circle cx="1026.6" cy="228.9" r="3.8" fill="#9f2f25" stroke="#ffffff" stroke-width="1.6"/>
<circle cx="1029.3" cy="190.5" r="3.8" fill="#9f2f25" stroke="#ffffff" stroke-width="1.6"/>
<circle cx="1034.7" cy="177.8" r="3.8" fill="#9f2f25" stroke="#ffffff" stroke-width="1.6"/>
<text x="1076" y="213.8" fill="#9f2f25" font-size="15" font-weight="800" font-family="Inter, system-ui, sans-serif">3:54/km</text>
</svg>

