<svg xmlns="http://www.w3.org/2000/svg" viewBox="0 0 1180 540" role="img" aria-label="HRV">
<rect x="0" y="0" width="1180" height="540" rx="18" fill="#ffffff"/>
<rect x="70" y="74" width="1076" height="412" rx="10" fill="#fbfcfd" stroke="#e8ecf1"/>
<text x="24" y="34" fill="#1d252d" font-size="24" font-weight="700" font-family="Inter, system-ui, sans-serif">HRV</text>
<line x1="70" y1="74.0" x2="1146" y2="74.0" stroke="#e8ecf1" stroke-width="1"/>
<line x1="70" y1="177.0" x2="1146" y2="177.0" stroke="#e8ecf1" stroke-width="1"/>
<line x1="70" y1="280.0" x2="1146" y2="280.0" stroke="#e8ecf1" stroke-width="1"/>
<line x1="70" y1="383.0" x2="1146" y2="383.0" stroke="#e8ecf1" stroke-width="1"/>
<line x1="70" y1="486.0" x2="1146" y2="486.0" stroke="#e8ecf1" stroke-width="1"/>
<line x1="70.0" y1="74" x2="70.0" y2="486" stroke="#e8ecf1" stroke-width="1"/>
<text x="70.0" y="520" text-anchor="middle" fill="#66717d" font-size="13" font-family="Inter, system-ui, sans-serif">28.04.</text>
<line x1="336.0" y1="74" x2="336.0" y2="486" stroke="#e8ecf1" stroke-width="1"/>
<text x="336.0" y="520" text-anchor="middle" fill="#66717d" font-size="13" font-family="Inter, system-ui, sans-serif">20.05.</text>
<line x1="602.0" y1="74" x2="602.0" y2="486" stroke="#e8ecf1" stroke-width="1"/>
<text x="602.0" y="520" text-anchor="middle" fill="#66717d" font-size="13" font-family="Inter, system-ui, sans-serif">11.06.</text>
<line x1="880.0" y1="74" x2="880.0" y2="486" stroke="#e8ecf1" stroke-width="1"/>
<text x="880.0" y="520" text-anchor="middle" fill="#66717d" font-size="13" font-family="Inter, system-ui, sans-serif">04.07.</text>
<line x1="1146.0" y1="74" x2="1146.0" y2="486" stroke="#e8ecf1" stroke-width="1"/>
<text x="1146.0" y="520" text-anchor="middle" fill="#66717d" font-size="13" font-family="Inter, system-ui, sans-serif">26.07.</text>
<text x="58" y="79" text-anchor="end" fill="#66717d" font-size="13" font-family="Inter, system-ui, sans-serif">137ms</text>
<text x="58" y="486" text-anchor="end" fill="#66717d" font-size="13" font-family="Inter, system-ui, sans-serif">51</text>
<polygon points="1146.0,123.4 1133.9,123.4 1121.8,123.4 1109.7,123.4 1097.6,118.6 1085.6,118.6 1073.5,123.4 1061.4,118.6 1049.3,123.4 1037.2,123.4 1025.1,123.4 1013.0,118.6 1000.9,123.4 988.8,123.4 976.7,123.4 964.7,123.4 952.6,123.4 940.5,123.4 928.4,128.1 916.3,128.1 904.2,128.1 892.1,132.9 880.0,132.9 867.9,132.9 855.8,137.6 843.8,137.6 831.7,137.6 819.6,142.4 807.5,147.1 795.4,147.1 783.3,147.1 771.2,151.8 759.1,156.6 747.0,156.6 734.9,161.3 722.9,161.3 710.8,161.3 698.7,161.3 686.6,161.3 674.5,166.1 662.4,166.1 650.3,161.3 638.2,161.3 626.1,161.3 614.0,161.3 602.0,166.1 589.9,166.1 577.8,161.3 565.7,161.3 553.6,161.3 541.5,161.3 529.4,156.6 517.3,151.8 505.2,156.6 493.1,151.8 481.1,156.6 469.0,156.6 456.9,156.6 444.8,156.6 432.7,161.3 420.6,156.6 408.5,156.6 396.4,156.6 384.3,156.6 372.2,161.3 360.2,161.3 348.1,161.3 336.0,166.1 323.9,166.1 311.8,166.1 299.7,170.8 287.6,170.8 275.5,170.8 263.4,175.6 251.3,180.3 239.3,180.3 227.2,180.3 215.1,180.3 203.0,180.3 190.9,185.1 178.8,185.1 166.7,185.1 154.6,185.1 142.5,185.1 130.4,189.8 118.4,185.1 106.3,185.1 94.2,185.1 82.1,185.1 70.0,189.8 70.0,318.0 82.1,318.0 94.2,318.0 106.3,318.0 118.4,318.0 130.4,322.7 142.5,322.7 154.6,322.7 166.7,322.7 178.8,318.0 190.9,318.0 203.0,318.0 215.1,318.0 227.2,318.0 239.3,318.0 251.3,318.0 263.4,318.0 275.5,313.2 287.6,313.2 299.7,313.2 311.8,313.2 323.9,313.2 336.0,313.2 348.1,308.5 360.2,308.5 372.2,308.5 384.3,308.5 396.4,308.5 408.5,308.5 420.6,308.5 432.7,308.5 444.8,308.5 456.9,313.2 469.0,313.2 481.1,318.0 493.1,313.2 505.2,313.2 517.3,313.2 529.4,318.0 541.5,318.0 553.6,318.0 565.7,318.0 577.8,318.0 589.9,322.7 602.0,322.7 614.0,318.0 626.1,318.0 638.2,318.0 650.3,318.0 662.4,318.0 674.5,318.0 686.6,318.0 698.7,313.2 710.8,313.2 722.9,313.2 734.9,313.2 747.0,313.2 759.1,313.2 771.2,313.2 783.3,313.2 795.4,308.5 807.5,308.5 819.6,308.5 831.7,303.7 843.8,303.7 855.8,303.7 867.9,299.0 880.0,299.0 892.1,299.0 904.2,299.0 916.3,294.2 928.4,299.0 940.5,294.2 952.6,294.2 964.7,294.2 976.7,294.2 988.8,289.5 1000.9,289.5 1013.0,289.5 1025.1,289.5 1037.2,289.5 1049.3,289.5 1061.4,294.2 1073.5,289.5 1085.6,289.5 1097.6,289.5 1109.7,284.7 1121.8,284.7 1133.9,284.7 1146.0,284.7" fill="#dcefe9" opacity="0.85"/>
<polyline points="1146.0,204.1 1133.9,232.5 1121.8,270.5 1109.7,289.5 1097.6,166.1 1085.6,204.1 1073.5,232.5 1061.4,360.7 1049.3,261.0 1037.2,246.8 1025.1,223.0 1013.0,227.8 1000.9,256.3 988.8,213.5 976.7,204.1 964.7,227.8 952.6,223.0 940.5,204.1 928.4,370.2 916.3,175.6 904.2,218.3 892.1,151.8 880.0,232.5 867.9,199.3 855.8,213.5 843.8,175.6 831.7,170.8 819.6,156.6 807.5,275.3 795.4,180.3 783.3,113.9 771.2,147.1 759.1,185.1 747.0,170.8 734.9,232.5 722.9,280.0 710.8,213.5 698.7,218.3 686.6,223.0 674.5,289.5 662.4,289.5 650.3,156.6 638.2,313.2 626.1,270.5 614.0,189.8 602.0,204.1 589.9,313.2 577.8,294.2 565.7,351.2 553.6,355.9 541.5,303.7 529.4,365.4 517.3,237.3 505.2,265.8 493.1,218.3 481.1,299.0 469.0,446.1 456.9,384.4 444.8,142.4 432.7,341.7 420.6,299.0 408.5,232.5 396.4,265.8 384.3,208.8 372.2,242.0 360.2,166.1 348.1,194.6 336.0,156.6 323.9,294.2 311.8,199.3 299.7,242.0 287.6,147.1 275.5,161.3 263.4,170.8 251.3,180.3 239.3,275.3 227.2,275.3 215.1,242.0 203.0,189.8 190.9,313.2 178.8,204.1 166.7,189.8 154.6,318.0 142.5,208.8 130.4,389.2 118.4,346.5 106.3,223.0 94.2,332.2 82.1,422.4 70.0,246.8" fill="none" stroke="#a8b0ba" stroke-width="1.1" stroke-linecap="round" stroke-linejoin="round"/>
<circle cx="1146.0" cy="204.1" r="2.4" fill="#a8b0ba" opacity="0.7"/>
<circle cx="1133.9" cy="232.5" r="2.4" fill="#a8b0ba" opacity="0.7"/>
<circle cx="1121.8" cy="270.5" r="2.4" fill="#a8b0ba" opacity="0.7"/>
<circle cx="1109.7" cy="289.5" r="2.4" fill="#a8b0ba" opacity="0.7"/>
<circle cx="1097.6" cy="166.1" r="2.4" fill="#a8b0ba" opacity="0.7"/>
<circle cx="1085.6" cy="204.1" r="2.4" fill="#a8b0ba" opacity="0.7"/>
<circle cx="1073.5" cy="232.5" r="2.4" fill="#a8b0ba" opacity="0.7"/>
<circle cx="1061.4" cy="360.7" r="2.4" fill="#a8b0ba" opacity="0.7"/>
<circle cx="1049.3" cy="261.0" r="2.4" fill="#a8b0ba" opacity="0.7"/>
<circle cx="1037.2" cy="246.8" r="2.4" fill="#a8b0ba" opacity="0.7"/>
<circle cx="1025.1" cy="223.0" r="2.4" fill="#a8b0ba" opacity="0.7"/>
<circle cx="1013.0" cy="227.8" r="2.4" fill="#a8b0ba" opacity="0.7"/>
<circle cx="1000.9" cy="256.3" r="2.4" fill="#a8b0ba" opacity="0.7"/>
<circle cx="988.8" cy="213.5" r="2.4" fill="#a8b0ba" opacity="0.7"/>
<circle cx="976.7" cy="204.1" r="2.4" fill="#a8b0ba" opacity="0.7"/>
<circle cx="964.7" cy="227.8" r="2.4" fill="#a8b0ba" opacity="0.7"/>
<circle cx="952.6" cy="223.0" r="2.4" fill="#a8b0ba" opacity="0.7"/>
<circle cx="940.5" cy="204.1" r="2.4" fill="#a8b0ba" opacity="0.7"/>
<circle cx="928.4" cy="370.2" r="2.4" fill="#a8b0ba" opacity="0.7"/>
<circle cx="916.3" cy="175.6" r="2.4" fill="#a8b0ba" opacity="0.7"/>
<circle cx="904.2" cy="218.3" r="2.4" fill="#a8b0ba" opacity="0.7"/>
<circle cx="892.1" cy="151.8" r="2.4" fill="#a8b0ba" opacity="0.7"/>
<circle cx="880.0" cy="232.5" r="2.4" fill="#a8b0ba" opacity="0.7"/>
<circle cx="867.9" cy="199.3" r="2.4" fill="#a8b0ba" opacity="0.7"/>
<circle cx="855.8" cy="213.5" r="2.4" fill="#a8b0ba" opacity="0.7"/>
<circle cx="843.8" cy="175.6" r="2.4" fill="#a8b0ba" opacity="0.7"/>
<circle cx="831.7" cy="170.8" r="2.4" fill="#a8b0ba" opacity="0.7"/>
<circle cx="819.6" cy="156.6" r="2.4" fill="#a8b0ba" opacity="0.7"/>
<circle cx="807.5" cy="275.3" r="2.4" fill="#a8b0ba" opacity="0.7"/>
<circle cx="795.4" cy="180.3" r="2.4" fill="#a8b0ba" opacity="0.7"/>
<circle cx="783.3" cy="113.9" r="2.4" fill="#a8b0ba" opacity="0.7"/>
<circle cx="771.2" cy="147.1" r="2.4" fill="#a8b0ba" opacity="0.7"/>
<circle cx="759.1" cy="185.1" r="2.4" fill="#a8b0ba" opacity="0.7"/>
<circle cx="747.0" cy="170.8" r="2.4" fill="#a8b0ba" opacity="0.7"/>
<circle cx="734.9" cy="232.5" r="2.4" fill="#a8b0ba" opacity="0.7"/>
<circle cx="722.9" cy="280.0" r="2.4" fill="#a8b0ba" opacity="0.7"/>
<circle cx="710.8" cy="213.5" r="2.4" fill="#a8b0ba" opacity="0.7"/>
<circle cx="698.7" cy="218.3" r="2.4" fill="#a8b0ba" opacity="0.7"/>
<circle cx="686.6" cy="223.0" r="2.4" fill="#a8b0ba" opacity="0.7"/>
<circle cx="674.5" cy="289.5" r="2.4" fill="#a8b0ba" opacity="0.7"/>
<circle cx="662.4" cy="289.5" r="2.4" fill="#a8b0ba" opacity="0.7"/>
<circle cx="650.3" cy="156.6" r="2.4" fill="#a8b0ba" opacity="0.7"/>
<circle cx="638.2" cy="313.2" r="2.4" fill="#a8b0ba" opacity="0.7"/>
<circle cx="626.1" cy="270.5" r="2.4" fill="#a8b0ba" opacity="0.7"/>
<circle cx="614.0" cy="189.8" r="2.4" fill="#a8b0ba" opacity="0.7"/>
<circle cx="602.0" cy="204.1" r="2.4" fill="#a8b0ba" opacity="0.7"/>
<circle cx="589.9" cy="313.2" r="2.4" fill="#a8b0ba" opacity="0.7"/>
<circle cx="577.8" cy="294.2" r="2.4" fill="#a8b0ba" opacity="0.7"/>
<circle cx="565.7" cy="351.2" r="2.4" fill="#a8b0ba" opacity="0.7"/>
<circle cx="553.6" cy="355.9" r="2.4" fill="#a8b0ba" opacity="0.7"/>
<circle cx="541.5" cy="303.7" r="2.4" fill="#a8b0ba" opacity="0.7"/>
<circle cx="529.4" cy="365.4" r="2.4" fill="#a8b0ba" opacity="0.7"/>
<circle cx="517.3" cy="237.3" r="2.4" fill="#a8b0ba" opacity="0.7"/>
<circle cx="505.2" cy="265.8" r="2.4" fill="#a8b0ba" opacity="0.7"/>
<circle cx="493.1" cy="218.3" r="2.4" fill="#a8b0ba" opacity="0.7"/>
<circle cx="481.1" cy="299.0" r="2.4" fill="#a8b0ba" opacity="0.7"/>
<circle cx="469.0" cy="446.1" r="2.4" fill="#a8b0ba" opacity="0.7"/>
<circle cx="456.9" cy="384.4" r="2.4" fill="#a8b0ba" opacity="0.7"/>
<circle cx="444.8" cy="142.4" r="2.4" fill="#a8b0ba" opacity="0.7"/>
<circle cx="432.7" cy="341.7" r="2.4" fill="#a8b0ba" opacity="0.7"/>
<circle cx="420.6" cy="299.0" r="2.4" fill="#a8b0ba" opacity="0.7"/>
<circle cx="408.5" cy="232.5" r="2.4" fill="#a8b0ba" opacity="0.7"/>
<circle cx="396.4" cy="265.8" r="2.4" fill="#a8b0ba" opacity="0.7"/>
<circle cx="384.3" cy="208.8" r="2.4" fill="#a8b0ba" opacity="0.7"/>
<circle cx="372.2" cy="242.0" r="2.4" fill="#a8b0ba" opacity="0.7"/>
<circle cx="360.2" cy="166.1" r="2.4" fill="#a8b0ba" opacity="0.7"/>
<circle cx="348.1" cy="194.6" r="2.4" fill="#a8b0ba" opacity="0.7"/>
<circle cx="336.0" cy="156.6" r="2.4" fill="#a8b0ba" opacity="0.7"/>
<circle cx="323.9" cy="294.2" r="2.4" fill="#a8b0ba" opacity="0.7"/>
<circle cx="311.8" cy="199.3" r="2.4" fill="#a8b0ba" opacity="0.7"/>
<circle cx="299.7" cy="242.0" r="2.4" fill="#a8b0ba" opacity="0.7"/>
<circle cx="287.6" cy="147.1" r="2.4" fill="#a8b0ba" opacity="0.7"/>
<circle cx="275.5" cy="161.3" r="2.4" fill="#a8b0ba" opacity="0.7"/>
<circle cx="263.4" cy="170.8" r="2.4" fill="#a8b0ba" opacity="0.7"/>
<circle cx="251.3" cy="180.3" r="2.4" fill="#a8b0ba" opacity="0.7"/>
<circle cx="239.3" cy="275.3" r="2.4" fill="#a8b0ba" opacity="0.7"/>
<circle cx="227.2" cy="275.3" r="2.4" fill="#a8b0ba" opacity="0.7"/>
<circle cx="215.1" cy="242.0" r="2.4" fill="#a8b0ba" opacity="0.7"/>
<circle cx="203.0" cy="189.8" r="2.4" fill="#a8b0ba" opacity="0.7"/>
<circle cx="190.9" cy="313.2" r="2.4" fill="#a8b0ba" opacity="0.7"/>
<circle cx="178.8" cy="204.1" r="2.4" fill="#a8b0ba" opacity="0.7"/>
<circle cx="166.7" cy="189.8" r="2.4" fill="#a8b0ba" opacity="0.7"/>
<circle cx="154.6" cy="318.0" r="2.4" fill="#a8b0ba" opacity="0.7"/>
<circle cx="142.5" cy="208.8" r="2.4" fill="#a8b0ba" opacity="0.7"/>
<circle cx="130.4" cy="389.2" r="2.4" fill="#a8b0ba" opacity="0.7"/>
<circle cx="118.4" cy="346.5" r="2.4" fill="#a8b0ba" opacity="0.7"/>
<circle cx="106.3" cy="223.0" r="2.4" fill="#a8b0ba" opacity="0.7"/>
<circle cx="94.2" cy="332.2" r="2.4" fill="#a8b0ba" opacity="0.7"/>
<circle cx="82.1" cy="422.4" r="2.4" fill="#a8b0ba" opacity="0.7"/>
<circle cx="70.0" cy="246.8" r="2.4" fill="#a8b0ba" opacity="0.7"/>
<line x1="1146.0" y1="227.8" x2="1133.9" y2="256.3" stroke="#287c71" stroke-width="3.4" stroke-linecap="round"/>
<line x1="1133.9" y1="256.3" x2="1121.8" y2="256.3" stroke="#287c71" stroke-width="3.4" stroke-linecap="round"/>
<line x1="1121.8" y1="256.3" x2="1109.7" y2="256.3" stroke="#287c71" stroke-width="3.4" stroke-linecap="round"/>
<line x1="1109.7" y1="256.3" x2="1097.6" y2="246.8" stroke="#287c71" stroke-width="3.4" stroke-linecap="round"/>
<line x1="1097.6" y1="246.8" x2="1085.6" y2="251.5" stroke="#287c71" stroke-width="3.4" stroke-linecap="round"/>
<line x1="1085.6" y1="251.5" x2="1073.5" y2="261.0" stroke="#287c71" stroke-width="3.4" stroke-linecap="round"/>
<line x1="1073.5" y1="261.0" x2="1061.4" y2="256.3" stroke="#287c71" stroke-width="3.4" stroke-linecap="round"/>
<line x1="1061.4" y1="256.3" x2="1049.3" y2="232.5" stroke="#287c71" stroke-width="3.4" stroke-linecap="round"/>
<line x1="1049.3" y1="232.5" x2="1037.2" y2="227.8" stroke="#287c71" stroke-width="3.4" stroke-linecap="round"/>
<line x1="1037.2" y1="227.8" x2="1025.1" y2="223.0" stroke="#287c71" stroke-width="3.4" stroke-linecap="round"/>
<line x1="1025.1" y1="223.0" x2="1013.0" y2="223.0" stroke="#287c71" stroke-width="3.4" stroke-linecap="round"/>
<line x1="1013.0" y1="223.0" x2="1000.9" y2="246.8" stroke="#287c71" stroke-width="3.4" stroke-linecap="round"/>
<line x1="1000.9" y1="246.8" x2="988.8" y2="237.3" stroke="#287c71" stroke-width="3.4" stroke-linecap="round"/>
<line x1="988.8" y1="237.3" x2="976.7" y2="237.3" stroke="#287c71" stroke-width="3.4" stroke-linecap="round"/>
<line x1="976.7" y1="237.3" x2="964.7" y2="227.8" stroke="#287c71" stroke-width="3.4" stroke-linecap="round"/>
<line x1="964.7" y1="227.8" x2="952.6" y2="227.8" stroke="#287c71" stroke-width="3.4" stroke-linecap="round"/>
<line x1="952.6" y1="227.8" x2="940.5" y2="227.8" stroke="#287c71" stroke-width="3.4" stroke-linecap="round"/>
<line x1="940.5" y1="227.8" x2="928.4" y2="227.8" stroke="#287c71" stroke-width="3.4" stroke-linecap="round"/>
<line x1="928.4" y1="227.8" x2="916.3" y2="194.6" stroke="#287c71" stroke-width="3.4" stroke-linecap="round"/>
<line x1="916.3" y1="194.6" x2="904.2" y2="194.6" stroke="#287c71" stroke-width="3.4" stroke-linecap="round"/>
<line x1="904.2" y1="194.6" x2="892.1" y2="185.1" stroke="#287c71" stroke-width="3.4" stroke-linecap="round"/>
<line x1="892.1" y1="185.1" x2="880.0" y2="204.1" stroke="#287c71" stroke-width="3.4" stroke-linecap="round"/>
<line x1="880.0" y1="204.1" x2="867.9" y2="199.3" stroke="#287c71" stroke-width="3.4" stroke-linecap="round"/>
<line x1="867.9" y1="199.3" x2="855.8" y2="185.1" stroke="#287c71" stroke-width="3.4" stroke-linecap="round"/>
<line x1="855.8" y1="185.1" x2="843.8" y2="175.6" stroke="#287c71" stroke-width="3.4" stroke-linecap="round"/>
<line x1="843.8" y1="175.6" x2="831.7" y2="175.6" stroke="#287c71" stroke-width="3.4" stroke-linecap="round"/>
<line x1="831.7" y1="175.6" x2="819.6" y2="175.6" stroke="#287c71" stroke-width="3.4" stroke-linecap="round"/>
<line x1="819.6" y1="175.6" x2="807.5" y2="189.8" stroke="#287c71" stroke-width="3.4" stroke-linecap="round"/>
<line x1="807.5" y1="189.8" x2="795.4" y2="189.8" stroke="#287c71" stroke-width="3.4" stroke-linecap="round"/>
<line x1="795.4" y1="189.8" x2="783.3" y2="194.6" stroke="#287c71" stroke-width="3.4" stroke-linecap="round"/>
<line x1="783.3" y1="194.6" x2="771.2" y2="208.8" stroke="#287c71" stroke-width="3.4" stroke-linecap="round"/>
<line x1="771.2" y1="208.8" x2="759.1" y2="218.3" stroke="#287c71" stroke-width="3.4" stroke-linecap="round"/>
<line x1="759.1" y1="218.3" x2="747.0" y2="232.5" stroke="#287c71" stroke-width="3.4" stroke-linecap="round"/>
<line x1="747.0" y1="232.5" x2="734.9" y2="251.5" stroke="#287c71" stroke-width="3.4" stroke-linecap="round"/>
<line x1="734.9" y1="251.5" x2="722.9" y2="242.0" stroke="#287c71" stroke-width="3.4" stroke-linecap="round"/>
<line x1="722.9" y1="242.0" x2="710.8" y2="246.8" stroke="#287c71" stroke-width="3.4" stroke-linecap="round"/>
<line x1="710.8" y1="246.8" x2="698.7" y2="256.3" stroke="#287c71" stroke-width="3.4" stroke-linecap="round"/>
<line x1="698.7" y1="256.3" x2="686.6" y2="251.5" stroke="#287c71" stroke-width="3.4" stroke-linecap="round"/>
<line x1="686.6" y1="251.5" x2="674.5" y2="246.8" stroke="#287c71" stroke-width="3.4" stroke-linecap="round"/>
<line x1="674.5" y1="246.8" x2="662.4" y2="251.5" stroke="#287c71" stroke-width="3.4" stroke-linecap="round"/>
<line x1="662.4" y1="251.5" x2="650.3" y2="251.5" stroke="#287c71" stroke-width="3.4" stroke-linecap="round"/>
<line x1="650.3" y1="251.5" x2="638.2" y2="280.0" stroke="#287c71" stroke-width="3.4" stroke-linecap="round"/>
<line x1="638.2" y1="280.0" x2="626.1" y2="284.7" stroke="#287c71" stroke-width="3.4" stroke-linecap="round"/>
<line x1="626.1" y1="284.7" x2="614.0" y2="289.5" stroke="#287c71" stroke-width="3.4" stroke-linecap="round"/>
<line x1="614.0" y1="289.5" x2="602.0" y2="313.2" stroke="#287c71" stroke-width="3.4" stroke-linecap="round"/>
<line x1="602.0" y1="313.2" x2="589.9" y2="318.0" stroke="#287c71" stroke-width="3.4" stroke-linecap="round"/>
<line x1="589.9" y1="318.0" x2="577.8" y2="313.2" stroke="#287c71" stroke-width="3.4" stroke-linecap="round"/>
<line x1="577.8" y1="313.2" x2="565.7" y2="303.7" stroke="#287c71" stroke-width="3.4" stroke-linecap="round"/>
<line x1="565.7" y1="303.7" x2="553.6" y2="294.2" stroke="#287c71" stroke-width="3.4" stroke-linecap="round"/>
<line x1="553.6" y1="294.2" x2="541.5" y2="313.2" stroke="#287c71" stroke-width="3.4" stroke-linecap="round"/>
<line x1="541.5" y1="313.2" x2="529.4" y2="322.7" stroke="#d9822b" stroke-width="3.4" stroke-linecap="round"/>
<line x1="529.4" y1="322.7" x2="517.3" y2="294.2" stroke="#287c71" stroke-width="3.4" stroke-linecap="round"/>
<line x1="517.3" y1="294.2" x2="505.2" y2="308.5" stroke="#287c71" stroke-width="3.4" stroke-linecap="round"/>
<line x1="505.2" y1="308.5" x2="493.1" y2="313.2" stroke="#287c71" stroke-width="3.4" stroke-linecap="round"/>
<line x1="493.1" y1="313.2" x2="481.1" y2="318.0" stroke="#287c71" stroke-width="3.4" stroke-linecap="round"/>
<line x1="481.1" y1="318.0" x2="469.0" y2="313.2" stroke="#287c71" stroke-width="3.4" stroke-linecap="round"/>
<line x1="469.0" y1="313.2" x2="456.9" y2="275.3" stroke="#287c71" stroke-width="3.4" stroke-linecap="round"/>
<line x1="456.9" y1="275.3" x2="444.8" y2="251.5" stroke="#287c71" stroke-width="3.4" stroke-linecap="round"/>
<line x1="444.8" y1="251.5" x2="432.7" y2="256.3" stroke="#287c71" stroke-width="3.4" stroke-linecap="round"/>
<line x1="432.7" y1="256.3" x2="420.6" y2="232.5" stroke="#287c71" stroke-width="3.4" stroke-linecap="round"/>
<line x1="420.6" y1="232.5" x2="408.5" y2="208.8" stroke="#287c71" stroke-width="3.4" stroke-linecap="round"/>
<line x1="408.5" y1="208.8" x2="396.4" y2="218.3" stroke="#287c71" stroke-width="3.4" stroke-linecap="round"/>
<line x1="396.4" y1="218.3" x2="384.3" y2="208.8" stroke="#287c71" stroke-width="3.4" stroke-linecap="round"/>
<line x1="384.3" y1="208.8" x2="372.2" y2="213.5" stroke="#287c71" stroke-width="3.4" stroke-linecap="round"/>
<line x1="372.2" y1="213.5" x2="360.2" y2="204.1" stroke="#287c71" stroke-width="3.4" stroke-linecap="round"/>
<line x1="360.2" y1="204.1" x2="348.1" y2="204.1" stroke="#287c71" stroke-width="3.4" stroke-linecap="round"/>
<line x1="348.1" y1="204.1" x2="336.0" y2="199.3" stroke="#287c71" stroke-width="3.4" stroke-linecap="round"/>
<line x1="336.0" y1="199.3" x2="323.9" y2="199.3" stroke="#287c71" stroke-width="3.4" stroke-linecap="round"/>
<line x1="323.9" y1="199.3" x2="311.8" y2="199.3" stroke="#287c71" stroke-width="3.4" stroke-linecap="round"/>
<line x1="311.8" y1="199.3" x2="299.7" y2="208.8" stroke="#287c71" stroke-width="3.4" stroke-linecap="round"/>
<line x1="299.7" y1="208.8" x2="287.6" y2="208.8" stroke="#287c71" stroke-width="3.4" stroke-linecap="round"/>
<line x1="287.6" y1="208.8" x2="275.5" y2="213.5" stroke="#287c71" stroke-width="3.4" stroke-linecap="round"/>
<line x1="275.5" y1="213.5" x2="263.4" y2="237.3" stroke="#287c71" stroke-width="3.4" stroke-linecap="round"/>
<line x1="263.4" y1="237.3" x2="251.3" y2="242.0" stroke="#287c71" stroke-width="3.4" stroke-linecap="round"/>
<line x1="251.3" y1="242.0" x2="239.3" y2="242.0" stroke="#287c71" stroke-width="3.4" stroke-linecap="round"/>
<line x1="239.3" y1="242.0" x2="227.2" y2="251.5" stroke="#287c71" stroke-width="3.4" stroke-linecap="round"/>
<line x1="227.2" y1="251.5" x2="215.1" y2="242.0" stroke="#287c71" stroke-width="3.4" stroke-linecap="round"/>
<line x1="215.1" y1="242.0" x2="203.0" y2="265.8" stroke="#287c71" stroke-width="3.4" stroke-linecap="round"/>
<line x1="203.0" y1="265.8" x2="190.9" y2="289.5" stroke="#287c71" stroke-width="3.4" stroke-linecap="round"/>
<line x1="190.9" y1="289.5" x2="178.8" y2="275.3" stroke="#287c71" stroke-width="3.4" stroke-linecap="round"/>
<line x1="178.8" y1="275.3" x2="166.7" y2="294.2" stroke="#287c71" stroke-width="3.4" stroke-linecap="round"/>
<line x1="166.7" y1="294.2" x2="154.6" y2="327.5" stroke="#d9822b" stroke-width="3.4" stroke-linecap="round"/>
<line x1="154.6" y1="327.5" x2="142.5" y2="318.0" stroke="#287c71" stroke-width="3.4" stroke-linecap="round"/>
<line x1="142.5" y1="318.0" x2="130.4" y2="313.2" stroke="#287c71" stroke-width="3.4" stroke-linecap="round"/>
<line x1="130.4" y1="313.2" x2="118.4" y2="284.7" stroke="#287c71" stroke-width="3.4" stroke-linecap="round"/>
<line x1="118.4" y1="284.7" x2="106.3" y2="275.3" stroke="#287c71" stroke-width="3.4" stroke-linecap="round"/>
<line x1="106.3" y1="275.3" x2="94.2" y2="308.5" stroke="#287c71" stroke-width="3.4" stroke-linecap="round"/>
<line x1="94.2" y1="308.5" x2="82.1" y2="294.2" stroke="#287c71" stroke-width="3.4" stroke-linecap="round"/>
<line x1="82.1" y1="294.2" x2="70.0" y2="275.3" stroke="#287c71" stroke-width="3.4" stroke-linecap="round"/>
<circle cx="1146.0" cy="227.8" r="3.8" fill="#287c71" stroke="#ffffff" stroke-width="1.6"/>
<circle cx="1133.9" cy="256.3" r="3.8" fill="#287c71" stroke="#ffffff" stroke-width="1.6"/>
<circle cx="1121.8" cy="256.3" r="3.8" fill="#287c71" stroke="#ffffff" stroke-width="1.6"/>
<circle cx="1109.7" cy="256.3" r="3.8" fill="#287c71" stroke="#ffffff" stroke-width="1.6"/>
<circle cx="1097.6" cy="246.8" r="3.8" fill="#287c71" stroke="#ffffff" stroke-width="1.6"/>
<circle cx="1085.6" cy="251.5" r="3.8" fill="#287c71" stroke="#ffffff" stroke-width="1.6"/>
<circle cx="1073.5" cy="261.0" r="3.8" fill="#287c71" stroke="#ffffff" stroke-width="1.6"/>
<circle cx="1061.4" cy="256.3" r="3.8" fill="#287c71" stroke="#ffffff" stroke-width="1.6"/>
<circle cx="1049.3" cy="232.5" r="3.8" fill="#287c71" stroke="#ffffff" stroke-width="1.6"/>
<circle cx="1037.2" cy="227.8" r="3.8" fill="#287c71" stroke="#ffffff" stroke-width="1.6"/>
<circle cx="1025.1" cy="223.0" r="3.8" fill="#287c71" stroke="#ffffff" stroke-width="1.6"/>
<circle cx="1013.0" cy="223.0" r="3.8" fill="#287c71" stroke="#ffffff" stroke-width="1.6"/>
<circle cx="1000.9" cy="246.8" r="3.8" fill="#287c71" stroke="#ffffff" stroke-width="1.6"/>
<circle cx="988.8" cy="237.3" r="3.8" fill="#287c71" stroke="#ffffff" stroke-width="1.6"/>
<circle cx="976.7" cy="237.3" r="3.8" fill="#287c71" stroke="#ffffff" stroke-width="1.6"/>
<circle cx="964.7" cy="227.8" r="3.8" fill="#287c71" stroke="#ffffff" stroke-width="1.6"/>
<circle cx="952.6" cy="227.8" r="3.8" fill="#287c71" stroke="#ffffff" stroke-width="1.6"/>
<circle cx="940.5" cy="227.8" r="3.8" fill="#287c71" stroke="#ffffff" stroke-width="1.6"/>
<circle cx="928.4" cy="227.8" r="3.8" fill="#287c71" stroke="#ffffff" stroke-width="1.6"/>
<circle cx="916.3" cy="194.6" r="3.8" fill="#287c71" stroke="#ffffff" stroke-width="1.6"/>
<circle cx="904.2" cy="194.6" r="3.8" fill="#287c71" stroke="#ffffff" stroke-width="1.6"/>
<circle cx="892.1" cy="185.1" r="3.8" fill="#287c71" stroke="#ffffff" stroke-width="1.6"/>
<circle cx="880.0" cy="204.1" r="3.8" fill="#287c71" stroke="#ffffff" stroke-width="1.6"/>
<circle cx="867.9" cy="199.3" r="3.8" fill="#287c71" stroke="#ffffff" stroke-width="1.6"/>
<circle cx="855.8" cy="185.1" r="3.8" fill="#287c71" stroke="#ffffff" stroke-width="1.6"/>
<circle cx="843.8" cy="175.6" r="3.8" fill="#287c71" stroke="#ffffff" stroke-width="1.6"/>
<circle cx="831.7" cy="175.6" r="3.8" fill="#287c71" stroke="#ffffff" stroke-width="1.6"/>
<circle cx="819.6" cy="175.6" r="3.8" fill="#287c71" stroke="#ffffff" stroke-width="1.6"/>
<circle cx="807.5" cy="189.8" r="3.8" fill="#287c71" stroke="#ffffff" stroke-width="1.6"/>
<circle cx="795.4" cy="189.8" r="3.8" fill="#287c71" stroke="#ffffff" stroke-width="1.6"/>
<circle cx="783.3" cy="194.6" r="3.8" fill="#287c71" stroke="#ffffff" stroke-width="1.6"/>
<circle cx="771.2" cy="208.8" r="3.8" fill="#287c71" stroke="#ffffff" stroke-width="1.6"/>
<circle cx="759.1" cy="218.3" r="3.8" fill="#287c71" stroke="#ffffff" stroke-width="1.6"/>
<circle cx="747.0" cy="232.5" r="3.8" fill="#287c71" stroke="#ffffff" stroke-width="1.6"/>
<circle cx="734.9" cy="251.5" r="3.8" fill="#287c71" stroke="#ffffff" stroke-width="1.6"/>
<circle cx="722.9" cy="242.0" r="3.8" fill="#287c71" stroke="#ffffff" stroke-width="1.6"/>
<circle cx="710.8" cy="246.8" r="3.8" fill="#287c71" stroke="#ffffff" stroke-width="1.6"/>
<circle cx="698.7" cy="256.3" r="3.8" fill="#287c71" stroke="#ffffff" stroke-width="1.6"/>
<circle cx="686.6" cy="251.5" r="3.8" fill="#287c71" stroke="#ffffff" stroke-width="1.6"/>
<circle cx="674.5" cy="246.8" r="3.8" fill="#287c71" stroke="#ffffff" stroke-width="1.6"/>
<circle cx="662.4" cy="251.5" r="3.8" fill="#287c71" stroke="#ffffff" stroke-width="1.6"/>
<circle cx="650.3" cy="251.5" r="3.8" fill="#287c71" stroke="#ffffff" stroke-width="1.6"/>
<circle cx="638.2" cy="280.0" r="3.8" fill="#287c71" stroke="#ffffff" stroke-width="1.6"/>
<circle cx="626.1" cy="284.7" r="3.8" fill="#287c71" stroke="#ffffff" stroke-width="1.6"/>
<circle cx="614.0" cy="289.5" r="3.8" fill="#287c71" stroke="#ffffff" stroke-width="1.6"/>
<circle cx="602.0" cy="313.2" r="3.8" fill="#287c71" stroke="#ffffff" stroke-width="1.6"/>
<circle cx="589.9" cy="318.0" r="3.8" fill="#287c71" stroke="#ffffff" stroke-width="1.6"/>
<circle cx="577.8" cy="313.2" r="3.8" fill="#287c71" stroke="#ffffff" stroke-width="1.6"/>
<circle cx="565.7" cy="303.7" r="3.8" fill="#287c71" stroke="#ffffff" stroke-width="1.6"/>
<circle cx="553.6" cy="294.2" r="3.8" fill="#287c71" stroke="#ffffff" stroke-width="1.6"/>
<circle cx="541.5" cy="313.2" r="3.8" fill="#287c71" stroke="#ffffff" stroke-width="1.6"/>
<circle cx="529.4" cy="322.7" r="3.8" fill="#d9822b" stroke="#ffffff" stroke-width="1.6"/>
<circle cx="517.3" cy="294.2" r="3.8" fill="#287c71" stroke="#ffffff" stroke-width="1.6"/>
<circle cx="505.2" cy="308.5" r="3.8" fill="#287c71" stroke="#ffffff" stroke-width="1.6"/>
<circle cx="493.1" cy="313.2" r="3.8" fill="#287c71" stroke="#ffffff" stroke-width="1.6"/>
<circle cx="481.1" cy="318.0" r="3.8" fill="#287c71" stroke="#ffffff" stroke-width="1.6"/>
<circle cx="469.0" cy="313.2" r="3.8" fill="#287c71" stroke="#ffffff" stroke-width="1.6"/>
<circle cx="456.9" cy="275.3" r="3.8" fill="#287c71" stroke="#ffffff" stroke-width="1.6"/>
<circle cx="444.8" cy="251.5" r="3.8" fill="#287c71" stroke="#ffffff" stroke-width="1.6"/>
<circle cx="432.7" cy="256.3" r="3.8" fill="#287c71" stroke="#ffffff" stroke-width="1.6"/>
<circle cx="420.6" cy="232.5" r="3.8" fill="#287c71" stroke="#ffffff" stroke-width="1.6"/>
<circle cx="408.5" cy="208.8" r="3.8" fill="#287c71" stroke="#ffffff" stroke-width="1.6"/>
<circle cx="396.4" cy="218.3" r="3.8" fill="#287c71" stroke="#ffffff" stroke-width="1.6"/>
<circle cx="384.3" cy="208.8" r="3.8" fill="#287c71" stroke="#ffffff" stroke-width="1.6"/>
<circle cx="372.2" cy="213.5" r="3.8" fill="#287c71" stroke="#ffffff" stroke-width="1.6"/>
<circle cx="360.2" cy="204.1" r="3.8" fill="#287c71" stroke="#ffffff" stroke-width="1.6"/>
<circle cx="348.1" cy="204.1" r="3.8" fill="#287c71" stroke="#ffffff" stroke-width="1.6"/>
<circle cx="336.0" cy="199.3" r="3.8" fill="#287c71" stroke="#ffffff" stroke-width="1.6"/>
<circle cx="323.9" cy="199.3" r="3.8" fill="#287c71" stroke="#ffffff" stroke-width="1.6"/>
<circle cx="311.8" cy="199.3" r="3.8" fill="#287c71" stroke="#ffffff" stroke-width="1.6"/>
<circle cx="299.7" cy="208.8" r="3.8" fill="#287c71" stroke="#ffffff" stroke-width="1.6"/>
<circle cx="287.6" cy="208.8" r="3.8" fill="#287c71" stroke="#ffffff" stroke-width="1.6"/>
<circle cx="275.5" cy="213.5" r="3.8" fill="#287c71" stroke="#ffffff" stroke-width="1.6"/>
<circle cx="263.4" cy="237.3" r="3.8" fill="#287c71" stroke="#ffffff" stroke-width="1.6"/>
<circle cx="251.3" cy="242.0" r="3.8" fill="#287c71" stroke="#ffffff" stroke-width="1.6"/>
<circle cx="239.3" cy="242.0" r="3.8" fill="#287c71" stroke="#ffffff" stroke-width="1.6"/>
<circle cx="227.2" cy="251.5" r="3.8" fill="#287c71" stroke="#ffffff" stroke-width="1.6"/>
<circle cx="215.1" cy="242.0" r="3.8" fill="#287c71" stroke="#ffffff" stroke-width="1.6"/>
<circle cx="203.0" cy="265.8" r="3.8" fill="#287c71" stroke="#ffffff" stroke-width="1.6"/>
<circle cx="190.9" cy="289.5" r="3.8" fill="#287c71" stroke="#ffffff" stroke-width="1.6"/>
<circle cx="178.8" cy="275.3" r="3.8" fill="#287c71" stroke="#ffffff" stroke-width="1.6"/>
<circle cx="166.7" cy="294.2" r="3.8" fill="#287c71" stroke="#ffffff" stroke-width="1.6"/>
<circle cx="154.6" cy="327.5" r="3.8" fill="#d9822b" stroke="#ffffff" stroke-width="1.6"/>
<circle cx="142.5" cy="318.0" r="3.8" fill="#287c71" stroke="#ffffff" stroke-width="1.6"/>
<circle cx="130.4" cy="313.2" r="3.8" fill="#287c71" stroke="#ffffff" stroke-width="1.6"/>
<circle cx="118.4" cy="284.7" r="3.8" fill="#287c71" stroke="#ffffff" stroke-width="1.6"/>
<circle cx="106.3" cy="275.3" r="3.8" fill="#287c71" stroke="#ffffff" stroke-width="1.6"/>
<circle cx="94.2" cy="308.5" r="3.8" fill="#287c71" stroke="#ffffff" stroke-width="1.6"/>
<circle cx="82.1" cy="294.2" r="3.8" fill="#287c71" stroke="#ffffff" stroke-width="1.6"/>
<circle cx="70.0" cy="275.3" r="3.8" fill="#287c71" stroke="#ffffff" stroke-width="1.6"/>
<text x="1156" y="32" text-anchor="end" fill="#66717d" font-size="14" font-weight="650" font-family="Inter, system-ui, sans-serif">Korridor</text>
<circle cx="1085.6" cy="28" r="4.5" fill="#dcefe9"/>
<text x="1045.6" y="32" text-anchor="end" fill="#66717d" font-size="14" font-weight="650" font-family="Inter, system-ui, sans-serif">7-Tage außerhalb</text>
<circle cx="920.8" cy="28" r="4.5" fill="#d9822b"/>
<text x="880.8" y="32" text-anchor="end" fill="#66717d" font-size="14" font-weight="650" font-family="Inter, system-ui, sans-serif">7-Tage im Korridor</text>
<circle cx="742.4" cy="28" r="4.5" fill="#287c71"/>
<text x="702.4" y="32" text-anchor="end" fill="#66717d" font-size="14" font-weight="650" font-family="Inter, system-ui, sans-serif">Tages-RMSSD</text>
<circle cx="611.6" cy="28" r="4.5" fill="#a8b0ba"/>
</svg>

