<svg xmlns="http://www.w3.org/2000/svg" viewBox="0 0 1180 540" role="img" aria-label="Schritte">
<rect x="0" y="0" width="1180" height="540" rx="18" fill="#ffffff"/>
<rect x="70" y="74" width="1076" height="412" rx="10" fill="#fbfcfd" stroke="#e8ecf1"/>
<text x="24" y="34" fill="#1d252d" font-size="24" font-weight="700" font-family="Inter, system-ui, sans-serif">Schritte</text>
<line x1="70" y1="74.0" x2="1146" y2="74.0" stroke="#e8ecf1" stroke-width="1"/>
<line x1="70" y1="177.0" x2="1146" y2="177.0" stroke="#e8ecf1" stroke-width="1"/>
<line x1="70" y1="280.0" x2="1146" y2="280.0" stroke="#e8ecf1" stroke-width="1"/>
<line x1="70" y1="383.0" x2="1146" y2="383.0" stroke="#e8ecf1" stroke-width="1"/>
<line x1="70" y1="486.0" x2="1146" y2="486.0" stroke="#e8ecf1" stroke-width="1"/>
<line x1="70.0" y1="74" x2="70.0" y2="486" stroke="#e8ecf1" stroke-width="1"/>
<text x="70.0" y="520" text-anchor="middle" fill="#66717d" font-size="13" font-family="Inter, system-ui, sans-serif">22.04.</text>
<line x1="336.0" y1="74" x2="336.0" y2="486" stroke="#e8ecf1" stroke-width="1"/>
<text x="336.0" y="520" text-anchor="middle" fill="#66717d" font-size="13" font-family="Inter, system-ui, sans-serif">14.05.</text>
<line x1="602.0" y1="74" x2="602.0" y2="486" stroke="#e8ecf1" stroke-width="1"/>
<text x="602.0" y="520" text-anchor="middle" fill="#66717d" font-size="13" font-family="Inter, system-ui, sans-serif">05.06.</text>
<line x1="880.0" y1="74" x2="880.0" y2="486" stroke="#e8ecf1" stroke-width="1"/>
<text x="880.0" y="520" text-anchor="middle" fill="#66717d" font-size="13" font-family="Inter, system-ui, sans-serif">28.06.</text>
<line x1="1146.0" y1="74" x2="1146.0" y2="486" stroke="#e8ecf1" stroke-width="1"/>
<text x="1146.0" y="520" text-anchor="middle" fill="#66717d" font-size="13" font-family="Inter, system-ui, sans-serif">20.07.</text>
<text x="58" y="79" text-anchor="end" fill="#66717d" font-size="13" font-family="Inter, system-ui, sans-serif">24095</text>
<text x="58" y="486" text-anchor="end" fill="#66717d" font-size="13" font-family="Inter, system-ui, sans-serif">0</text>
<rect x="779.3" y="325.4" width="7.9" height="160.6" rx="2.2" fill="#8a98a8"/>
<rect x="791.4" y="262.7" width="7.9" height="223.3" rx="2.2" fill="#8a98a8"/>
<rect x="827.7" y="422.9" width="7.9" height="63.1" rx="2.2" fill="#8a98a8"/>
<rect x="839.8" y="414.2" width="7.9" height="71.8" rx="2.2" fill="#8a98a8"/>
<rect x="851.9" y="296.9" width="7.9" height="189.1" rx="2.2" fill="#8a98a8"/>
<rect x="864.0" y="226.4" width="7.9" height="259.6" rx="2.2" fill="#8a98a8"/>
<rect x="876.1" y="269.5" width="7.9" height="216.5" rx="2.2" fill="#8a98a8"/>
<rect x="888.1" y="405.0" width="7.9" height="81.0" rx="2.2" fill="#8a98a8"/>
<rect x="900.2" y="323.7" width="7.9" height="162.3" rx="2.2" fill="#8a98a8"/>
<rect x="912.3" y="380.9" width="7.9" height="105.1" rx="2.2" fill="#8a98a8"/>
<rect x="924.4" y="365.9" width="7.9" height="120.1" rx="2.2" fill="#8a98a8"/>
<rect x="936.5" y="314.3" width="7.9" height="171.7" rx="2.2" fill="#8a98a8"/>
<rect x="948.6" y="118.1" width="7.9" height="367.9" rx="2.2" fill="#8a98a8"/>
<rect x="960.7" y="360.8" width="7.9" height="125.2" rx="2.2" fill="#8a98a8"/>
<rect x="972.8" y="371.2" width="7.9" height="114.8" rx="2.2" fill="#8a98a8"/>
<rect x="984.9" y="346.8" width="7.9" height="139.2" rx="2.2" fill="#8a98a8"/>
<rect x="997.0" y="291.3" width="7.9" height="194.7" rx="2.2" fill="#8a98a8"/>
<rect x="1009.0" y="402.2" width="7.9" height="83.8" rx="2.2" fill="#8a98a8"/>
<rect x="1021.1" y="215.6" width="7.9" height="270.4" rx="2.2" fill="#8a98a8"/>
<rect x="1033.2" y="399.2" width="7.9" height="86.8" rx="2.2" fill="#8a98a8"/>
<rect x="1045.3" y="400.4" width="7.9" height="85.6" rx="2.2" fill="#8a98a8"/>
<rect x="1057.4" y="282.8" width="7.9" height="203.2" rx="2.2" fill="#8a98a8"/>
<rect x="1069.5" y="398.4" width="7.9" height="87.6" rx="2.2" fill="#8a98a8"/>
<rect x="1081.6" y="252.6" width="7.9" height="233.4" rx="2.2" fill="#8a98a8"/>
<rect x="1093.7" y="359.7" width="7.9" height="126.3" rx="2.2" fill="#8a98a8"/>
<rect x="1105.8" y="285.0" width="7.9" height="201.0" rx="2.2" fill="#8a98a8"/>
<rect x="1117.9" y="303.2" width="7.9" height="182.8" rx="2.2" fill="#8a98a8"/>
<rect x="1129.9" y="187.7" width="7.9" height="298.3" rx="2.2" fill="#8a98a8"/>
<rect x="1142.0" y="262.1" width="7.9" height="223.9" rx="2.2" fill="#8a98a8"/>
<polyline points="843.8,356.3 855.8,344.4 867.9,324.6 880.0,326.0 892.1,339.2 904.2,336.9 916.3,331.0 928.4,324.1 940.5,326.5 952.6,311.1 964.7,324.1 976.7,319.3 988.8,322.6 1000.9,309.8 1013.0,315.0 1025.1,300.9 1037.2,341.0 1049.3,346.7 1061.4,334.0 1073.5,341.4 1085.6,335.9 1097.6,329.8 1109.7,339.7 1121.8,326.0 1133.9,295.6 1146.0,292.7" fill="none" stroke="#1d252d" stroke-width="3" stroke-linecap="round" stroke-linejoin="round"/>
<circle cx="843.8" cy="356.3" r="3.8" fill="#1d252d" stroke="#ffffff" stroke-width="1.6"/>
<circle cx="855.8" cy="344.4" r="3.8" fill="#1d252d" stroke="#ffffff" stroke-width="1.6"/>
<circle cx="867.9" cy="324.6" r="3.8" fill="#1d252d" stroke="#ffffff" stroke-width="1.6"/>
<circle cx="880.0" cy="326.0" r="3.8" fill="#1d252d" stroke="#ffffff" stroke-width="1.6"/>
<circle cx="892.1" cy="339.2" r="3.8" fill="#1d252d" stroke="#ffffff" stroke-width="1.6"/>
<circle cx="904.2" cy="336.9" r="3.8" fill="#1d252d" stroke="#ffffff" stroke-width="1.6"/>
<circle cx="916.3" cy="331.0" r="3.8" fill="#1d252d" stroke="#ffffff" stroke-width="1.6"/>
<circle cx="928.4" cy="324.1" r="3.8" fill="#1d252d" stroke="#ffffff" stroke-width="1.6"/>
<circle cx="940.5" cy="326.5" r="3.8" fill="#1d252d" stroke="#ffffff" stroke-width="1.6"/>
<circle cx="952.6" cy="311.1" r="3.8" fill="#1d252d" stroke="#ffffff" stroke-width="1.6"/>
<circle cx="964.7" cy="324.1" r="3.8" fill="#1d252d" stroke="#ffffff" stroke-width="1.6"/>
<circle cx="976.7" cy="319.3" r="3.8" fill="#1d252d" stroke="#ffffff" stroke-width="1.6"/>
<circle cx="988.8" cy="322.6" r="3.8" fill="#1d252d" stroke="#ffffff" stroke-width="1.6"/>
<circle cx="1000.9" cy="309.8" r="3.8" fill="#1d252d" stroke="#ffffff" stroke-width="1.6"/>
<circle cx="1013.0" cy="315.0" r="3.8" fill="#1d252d" stroke="#ffffff" stroke-width="1.6"/>
<circle cx="1025.1" cy="300.9" r="3.8" fill="#1d252d" stroke="#ffffff" stroke-width="1.6"/>
<circle cx="1037.2" cy="341.0" r="3.8" fill="#1d252d" stroke="#ffffff" stroke-width="1.6"/>
<circle cx="1049.3" cy="346.7" r="3.8" fill="#1d252d" stroke="#ffffff" stroke-width="1.6"/>
<circle cx="1061.4" cy="334.0" r="3.8" fill="#1d252d" stroke="#ffffff" stroke-width="1.6"/>
<circle cx="1073.5" cy="341.4" r="3.8" fill="#1d252d" stroke="#ffffff" stroke-width="1.6"/>
<circle cx="1085.6" cy="335.9" r="3.8" fill="#1d252d" stroke="#ffffff" stroke-width="1.6"/>
<circle cx="1097.6" cy="329.8" r="3.8" fill="#1d252d" stroke="#ffffff" stroke-width="1.6"/>
<circle cx="1109.7" cy="339.7" r="3.8" fill="#1d252d" stroke="#ffffff" stroke-width="1.6"/>
<circle cx="1121.8" cy="326.0" r="3.8" fill="#1d252d" stroke="#ffffff" stroke-width="1.6"/>
<circle cx="1133.9" cy="295.6" r="3.8" fill="#1d252d" stroke="#ffffff" stroke-width="1.6"/>
<circle cx="1146.0" cy="292.7" r="3.8" fill="#1d252d" stroke="#ffffff" stroke-width="1.6"/>
<text x="1156" y="32" text-anchor="end" fill="#66717d" font-size="14" font-weight="650" font-family="Inter, system-ui, sans-serif">7-Tage-Mittel</text>
<circle cx="1051.6" cy="28" r="4.5" fill="#1d252d"/>
<text x="1011.6" y="32" text-anchor="end" fill="#66717d" font-size="14" font-weight="650" font-family="Inter, system-ui, sans-serif">Tageswert</text>
<circle cx="934.4" cy="28" r="4.5" fill="#8a98a8"/>
</svg>

