<svg xmlns="http://www.w3.org/2000/svg" viewBox="0 0 1180 540" role="img" aria-label="HRV">
<rect x="0" y="0" width="1180" height="540" rx="18" fill="#ffffff"/>
<rect x="70" y="74" width="1076" height="412" rx="10" fill="#fbfcfd" stroke="#e8ecf1"/>
<text x="24" y="34" fill="#1d252d" font-size="24" font-weight="700" font-family="Inter, system-ui, sans-serif">HRV</text>
<line x1="70" y1="74.0" x2="1146" y2="74.0" stroke="#e8ecf1" stroke-width="1"/>
<line x1="70" y1="177.0" x2="1146" y2="177.0" stroke="#e8ecf1" stroke-width="1"/>
<line x1="70" y1="280.0" x2="1146" y2="280.0" stroke="#e8ecf1" stroke-width="1"/>
<line x1="70" y1="383.0" x2="1146" y2="383.0" stroke="#e8ecf1" stroke-width="1"/>
<line x1="70" y1="486.0" x2="1146" y2="486.0" stroke="#e8ecf1" stroke-width="1"/>
<line x1="70.0" y1="74" x2="70.0" y2="486" stroke="#e8ecf1" stroke-width="1"/>
<text x="70.0" y="520" text-anchor="middle" fill="#66717d" font-size="13" font-family="Inter, system-ui, sans-serif">06.05.</text>
<line x1="336.0" y1="74" x2="336.0" y2="486" stroke="#e8ecf1" stroke-width="1"/>
<text x="336.0" y="520" text-anchor="middle" fill="#66717d" font-size="13" font-family="Inter, system-ui, sans-serif">28.05.</text>
<line x1="602.0" y1="74" x2="602.0" y2="486" stroke="#e8ecf1" stroke-width="1"/>
<text x="602.0" y="520" text-anchor="middle" fill="#66717d" font-size="13" font-family="Inter, system-ui, sans-serif">19.06.</text>
<line x1="880.0" y1="74" x2="880.0" y2="486" stroke="#e8ecf1" stroke-width="1"/>
<text x="880.0" y="520" text-anchor="middle" fill="#66717d" font-size="13" font-family="Inter, system-ui, sans-serif">12.07.</text>
<line x1="1146.0" y1="74" x2="1146.0" y2="486" stroke="#e8ecf1" stroke-width="1"/>
<text x="1146.0" y="520" text-anchor="middle" fill="#66717d" font-size="13" font-family="Inter, system-ui, sans-serif">03.08.</text>
<text x="58" y="79" text-anchor="end" fill="#66717d" font-size="13" font-family="Inter, system-ui, sans-serif">137ms</text>
<text x="58" y="486" text-anchor="end" fill="#66717d" font-size="13" font-family="Inter, system-ui, sans-serif">51</text>
<polygon points="1146.0,123.4 1133.9,123.4 1121.8,123.4 1109.7,123.4 1097.6,123.4 1085.6,123.4 1073.5,128.1 1061.4,123.4 1049.3,123.4 1037.2,123.4 1025.1,123.4 1013.0,123.4 1000.9,118.6 988.8,118.6 976.7,123.4 964.7,118.6 952.6,123.4 940.5,123.4 928.4,123.4 916.3,118.6 904.2,123.4 892.1,123.4 880.0,123.4 867.9,123.4 855.8,123.4 843.8,123.4 831.7,128.1 819.6,128.1 807.5,128.1 795.4,132.9 783.3,132.9 771.2,132.9 759.1,137.6 747.0,137.6 734.9,137.6 722.9,142.4 710.8,147.1 698.7,147.1 686.6,147.1 674.5,151.8 662.4,156.6 650.3,156.6 638.2,161.3 626.1,161.3 614.0,161.3 602.0,161.3 589.9,161.3 577.8,166.1 565.7,166.1 553.6,161.3 541.5,161.3 529.4,161.3 517.3,161.3 505.2,166.1 493.1,166.1 481.1,161.3 469.0,161.3 456.9,161.3 444.8,161.3 432.7,156.6 420.6,151.8 408.5,156.6 396.4,151.8 384.3,156.6 372.2,156.6 360.2,156.6 348.1,156.6 336.0,161.3 323.9,156.6 311.8,156.6 299.7,156.6 287.6,156.6 275.5,161.3 263.4,161.3 251.3,161.3 239.3,166.1 227.2,166.1 215.1,166.1 203.0,170.8 190.9,170.8 178.8,170.8 166.7,175.6 154.6,180.3 142.5,180.3 130.4,180.3 118.4,180.3 106.3,180.3 94.2,185.1 82.1,185.1 70.0,185.1 70.0,322.7 82.1,318.0 94.2,318.0 106.3,318.0 118.4,318.0 130.4,318.0 142.5,318.0 154.6,318.0 166.7,318.0 178.8,313.2 190.9,313.2 203.0,313.2 215.1,313.2 227.2,313.2 239.3,313.2 251.3,308.5 263.4,308.5 275.5,308.5 287.6,308.5 299.7,308.5 311.8,308.5 323.9,308.5 336.0,308.5 348.1,308.5 360.2,313.2 372.2,313.2 384.3,318.0 396.4,313.2 408.5,313.2 420.6,313.2 432.7,318.0 444.8,318.0 456.9,318.0 469.0,318.0 481.1,318.0 493.1,322.7 505.2,322.7 517.3,318.0 529.4,318.0 541.5,318.0 553.6,318.0 565.7,318.0 577.8,318.0 589.9,318.0 602.0,313.2 614.0,313.2 626.1,313.2 638.2,313.2 650.3,313.2 662.4,313.2 674.5,313.2 686.6,313.2 698.7,308.5 710.8,308.5 722.9,308.5 734.9,303.7 747.0,303.7 759.1,303.7 771.2,299.0 783.3,299.0 795.4,299.0 807.5,299.0 819.6,294.2 831.7,299.0 843.8,294.2 855.8,294.2 867.9,294.2 880.0,294.2 892.1,289.5 904.2,289.5 916.3,289.5 928.4,289.5 940.5,289.5 952.6,289.5 964.7,294.2 976.7,289.5 988.8,289.5 1000.9,289.5 1013.0,284.7 1025.1,284.7 1037.2,284.7 1049.3,284.7 1061.4,284.7 1073.5,280.0 1085.6,280.0 1097.6,275.3 1109.7,275.3 1121.8,270.5 1133.9,270.5 1146.0,270.5" fill="#dcefe9" opacity="0.85"/>
<polyline points="1146.0,166.1 1133.9,137.6 1121.8,246.8 1109.7,170.8 1097.6,161.3 1085.6,199.3 1073.5,223.0 1061.4,161.3 1049.3,204.1 1037.2,232.5 1025.1,270.5 1013.0,289.5 1000.9,166.1 988.8,204.1 976.7,232.5 964.7,360.7 952.6,261.0 940.5,246.8 928.4,223.0 916.3,227.8 904.2,256.3 892.1,213.5 880.0,204.1 867.9,227.8 855.8,223.0 843.8,204.1 831.7,370.2 819.6,175.6 807.5,218.3 795.4,151.8 783.3,232.5 771.2,199.3 759.1,213.5 747.0,175.6 734.9,170.8 722.9,156.6 710.8,275.3 698.7,180.3 686.6,113.9 674.5,147.1 662.4,185.1 650.3,170.8 638.2,232.5 626.1,280.0 614.0,213.5 602.0,218.3 589.9,223.0 577.8,289.5 565.7,289.5 553.6,156.6 541.5,313.2 529.4,270.5 517.3,189.8 505.2,204.1 493.1,313.2 481.1,294.2 469.0,351.2 456.9,355.9 444.8,303.7 432.7,365.4 420.6,237.3 408.5,265.8 396.4,218.3 384.3,299.0 372.2,446.1 360.2,384.4 348.1,142.4 336.0,341.7 323.9,299.0 311.8,232.5 299.7,265.8 287.6,208.8 275.5,242.0 263.4,166.1 251.3,194.6 239.3,156.6 227.2,294.2 215.1,199.3 203.0,242.0 190.9,147.1 178.8,161.3 166.7,170.8 154.6,180.3 142.5,275.3 130.4,275.3 118.4,242.0 106.3,189.8 94.2,313.2 82.1,204.1 70.0,189.8" fill="none" stroke="#a8b0ba" stroke-width="1.1" stroke-linecap="round" stroke-linejoin="round"/>
<circle cx="1146.0" cy="166.1" r="2.4" fill="#a8b0ba" opacity="0.7"/>
<circle cx="1133.9" cy="137.6" r="2.4" fill="#a8b0ba" opacity="0.7"/>
<circle cx="1121.8" cy="246.8" r="2.4" fill="#a8b0ba" opacity="0.7"/>
<circle cx="1109.7" cy="170.8" r="2.4" fill="#a8b0ba" opacity="0.7"/>
<circle cx="1097.6" cy="161.3" r="2.4" fill="#a8b0ba" opacity="0.7"/>
<circle cx="1085.6" cy="199.3" r="2.4" fill="#a8b0ba" opacity="0.7"/>
<circle cx="1073.5" cy="223.0" r="2.4" fill="#a8b0ba" opacity="0.7"/>
<circle cx="1061.4" cy="161.3" r="2.4" fill="#a8b0ba" opacity="0.7"/>
<circle cx="1049.3" cy="204.1" r="2.4" fill="#a8b0ba" opacity="0.7"/>
<circle cx="1037.2" cy="232.5" r="2.4" fill="#a8b0ba" opacity="0.7"/>
<circle cx="1025.1" cy="270.5" r="2.4" fill="#a8b0ba" opacity="0.7"/>
<circle cx="1013.0" cy="289.5" r="2.4" fill="#a8b0ba" opacity="0.7"/>
<circle cx="1000.9" cy="166.1" r="2.4" fill="#a8b0ba" opacity="0.7"/>
<circle cx="988.8" cy="204.1" r="2.4" fill="#a8b0ba" opacity="0.7"/>
<circle cx="976.7" cy="232.5" r="2.4" fill="#a8b0ba" opacity="0.7"/>
<circle cx="964.7" cy="360.7" r="2.4" fill="#a8b0ba" opacity="0.7"/>
<circle cx="952.6" cy="261.0" r="2.4" fill="#a8b0ba" opacity="0.7"/>
<circle cx="940.5" cy="246.8" r="2.4" fill="#a8b0ba" opacity="0.7"/>
<circle cx="928.4" cy="223.0" r="2.4" fill="#a8b0ba" opacity="0.7"/>
<circle cx="916.3" cy="227.8" r="2.4" fill="#a8b0ba" opacity="0.7"/>
<circle cx="904.2" cy="256.3" r="2.4" fill="#a8b0ba" opacity="0.7"/>
<circle cx="892.1" cy="213.5" r="2.4" fill="#a8b0ba" opacity="0.7"/>
<circle cx="880.0" cy="204.1" r="2.4" fill="#a8b0ba" opacity="0.7"/>
<circle cx="867.9" cy="227.8" r="2.4" fill="#a8b0ba" opacity="0.7"/>
<circle cx="855.8" cy="223.0" r="2.4" fill="#a8b0ba" opacity="0.7"/>
<circle cx="843.8" cy="204.1" r="2.4" fill="#a8b0ba" opacity="0.7"/>
<circle cx="831.7" cy="370.2" r="2.4" fill="#a8b0ba" opacity="0.7"/>
<circle cx="819.6" cy="175.6" r="2.4" fill="#a8b0ba" opacity="0.7"/>
<circle cx="807.5" cy="218.3" r="2.4" fill="#a8b0ba" opacity="0.7"/>
<circle cx="795.4" cy="151.8" r="2.4" fill="#a8b0ba" opacity="0.7"/>
<circle cx="783.3" cy="232.5" r="2.4" fill="#a8b0ba" opacity="0.7"/>
<circle cx="771.2" cy="199.3" r="2.4" fill="#a8b0ba" opacity="0.7"/>
<circle cx="759.1" cy="213.5" r="2.4" fill="#a8b0ba" opacity="0.7"/>
<circle cx="747.0" cy="175.6" r="2.4" fill="#a8b0ba" opacity="0.7"/>
<circle cx="734.9" cy="170.8" r="2.4" fill="#a8b0ba" opacity="0.7"/>
<circle cx="722.9" cy="156.6" r="2.4" fill="#a8b0ba" opacity="0.7"/>
<circle cx="710.8" cy="275.3" r="2.4" fill="#a8b0ba" opacity="0.7"/>
<circle cx="698.7" cy="180.3" r="2.4" fill="#a8b0ba" opacity="0.7"/>
<circle cx="686.6" cy="113.9" r="2.4" fill="#a8b0ba" opacity="0.7"/>
<circle cx="674.5" cy="147.1" r="2.4" fill="#a8b0ba" opacity="0.7"/>
<circle cx="662.4" cy="185.1" r="2.4" fill="#a8b0ba" opacity="0.7"/>
<circle cx="650.3" cy="170.8" r="2.4" fill="#a8b0ba" opacity="0.7"/>
<circle cx="638.2" cy="232.5" r="2.4" fill="#a8b0ba" opacity="0.7"/>
<circle cx="626.1" cy="280.0" r="2.4" fill="#a8b0ba" opacity="0.7"/>
<circle cx="614.0" cy="213.5" r="2.4" fill="#a8b0ba" opacity="0.7"/>
<circle cx="602.0" cy="218.3" r="2.4" fill="#a8b0ba" opacity="0.7"/>
<circle cx="589.9" cy="223.0" r="2.4" fill="#a8b0ba" opacity="0.7"/>
<circle cx="577.8" cy="289.5" r="2.4" fill="#a8b0ba" opacity="0.7"/>
<circle cx="565.7" cy="289.5" r="2.4" fill="#a8b0ba" opacity="0.7"/>
<circle cx="553.6" cy="156.6" r="2.4" fill="#a8b0ba" opacity="0.7"/>
<circle cx="541.5" cy="313.2" r="2.4" fill="#a8b0ba" opacity="0.7"/>
<circle cx="529.4" cy="270.5" r="2.4" fill="#a8b0ba" opacity="0.7"/>
<circle cx="517.3" cy="189.8" r="2.4" fill="#a8b0ba" opacity="0.7"/>
<circle cx="505.2" cy="204.1" r="2.4" fill="#a8b0ba" opacity="0.7"/>
<circle cx="493.1" cy="313.2" r="2.4" fill="#a8b0ba" opacity="0.7"/>
<circle cx="481.1" cy="294.2" r="2.4" fill="#a8b0ba" opacity="0.7"/>
<circle cx="469.0" cy="351.2" r="2.4" fill="#a8b0ba" opacity="0.7"/>
<circle cx="456.9" cy="355.9" r="2.4" fill="#a8b0ba" opacity="0.7"/>
<circle cx="444.8" cy="303.7" r="2.4" fill="#a8b0ba" opacity="0.7"/>
<circle cx="432.7" cy="365.4" r="2.4" fill="#a8b0ba" opacity="0.7"/>
<circle cx="420.6" cy="237.3" r="2.4" fill="#a8b0ba" opacity="0.7"/>
<circle cx="408.5" cy="265.8" r="2.4" fill="#a8b0ba" opacity="0.7"/>
<circle cx="396.4" cy="218.3" r="2.4" fill="#a8b0ba" opacity="0.7"/>
<circle cx="384.3" cy="299.0" r="2.4" fill="#a8b0ba" opacity="0.7"/>
<circle cx="372.2" cy="446.1" r="2.4" fill="#a8b0ba" opacity="0.7"/>
<circle cx="360.2" cy="384.4" r="2.4" fill="#a8b0ba" opacity="0.7"/>
<circle cx="348.1" cy="142.4" r="2.4" fill="#a8b0ba" opacity="0.7"/>
<circle cx="336.0" cy="341.7" r="2.4" fill="#a8b0ba" opacity="0.7"/>
<circle cx="323.9" cy="299.0" r="2.4" fill="#a8b0ba" opacity="0.7"/>
<circle cx="311.8" cy="232.5" r="2.4" fill="#a8b0ba" opacity="0.7"/>
<circle cx="299.7" cy="265.8" r="2.4" fill="#a8b0ba" opacity="0.7"/>
<circle cx="287.6" cy="208.8" r="2.4" fill="#a8b0ba" opacity="0.7"/>
<circle cx="275.5" cy="242.0" r="2.4" fill="#a8b0ba" opacity="0.7"/>
<circle cx="263.4" cy="166.1" r="2.4" fill="#a8b0ba" opacity="0.7"/>
<circle cx="251.3" cy="194.6" r="2.4" fill="#a8b0ba" opacity="0.7"/>
<circle cx="239.3" cy="156.6" r="2.4" fill="#a8b0ba" opacity="0.7"/>
<circle cx="227.2" cy="294.2" r="2.4" fill="#a8b0ba" opacity="0.7"/>
<circle cx="215.1" cy="199.3" r="2.4" fill="#a8b0ba" opacity="0.7"/>
<circle cx="203.0" cy="242.0" r="2.4" fill="#a8b0ba" opacity="0.7"/>
<circle cx="190.9" cy="147.1" r="2.4" fill="#a8b0ba" opacity="0.7"/>
<circle cx="178.8" cy="161.3" r="2.4" fill="#a8b0ba" opacity="0.7"/>
<circle cx="166.7" cy="170.8" r="2.4" fill="#a8b0ba" opacity="0.7"/>
<circle cx="154.6" cy="180.3" r="2.4" fill="#a8b0ba" opacity="0.7"/>
<circle cx="142.5" cy="275.3" r="2.4" fill="#a8b0ba" opacity="0.7"/>
<circle cx="130.4" cy="275.3" r="2.4" fill="#a8b0ba" opacity="0.7"/>
<circle cx="118.4" cy="242.0" r="2.4" fill="#a8b0ba" opacity="0.7"/>
<circle cx="106.3" cy="189.8" r="2.4" fill="#a8b0ba" opacity="0.7"/>
<circle cx="94.2" cy="313.2" r="2.4" fill="#a8b0ba" opacity="0.7"/>
<circle cx="82.1" cy="204.1" r="2.4" fill="#a8b0ba" opacity="0.7"/>
<circle cx="70.0" cy="189.8" r="2.4" fill="#a8b0ba" opacity="0.7"/>
<line x1="1146.0" y1="189.8" x2="1133.9" y2="185.1" stroke="#287c71" stroke-width="3.4" stroke-linecap="round"/>
<line x1="1133.9" y1="185.1" x2="1121.8" y2="194.6" stroke="#287c71" stroke-width="3.4" stroke-linecap="round"/>
<line x1="1121.8" y1="194.6" x2="1109.7" y2="194.6" stroke="#287c71" stroke-width="3.4" stroke-linecap="round"/>
<line x1="1109.7" y1="194.6" x2="1097.6" y2="208.8" stroke="#287c71" stroke-width="3.4" stroke-linecap="round"/>
<line x1="1097.6" y1="208.8" x2="1085.6" y2="227.8" stroke="#287c71" stroke-width="3.4" stroke-linecap="round"/>
<line x1="1085.6" y1="227.8" x2="1073.5" y2="223.0" stroke="#287c71" stroke-width="3.4" stroke-linecap="round"/>
<line x1="1073.5" y1="223.0" x2="1061.4" y2="218.3" stroke="#287c71" stroke-width="3.4" stroke-linecap="round"/>
<line x1="1061.4" y1="218.3" x2="1049.3" y2="227.8" stroke="#287c71" stroke-width="3.4" stroke-linecap="round"/>
<line x1="1049.3" y1="227.8" x2="1037.2" y2="256.3" stroke="#287c71" stroke-width="3.4" stroke-linecap="round"/>
<line x1="1037.2" y1="256.3" x2="1025.1" y2="256.3" stroke="#287c71" stroke-width="3.4" stroke-linecap="round"/>
<line x1="1025.1" y1="256.3" x2="1013.0" y2="256.3" stroke="#287c71" stroke-width="3.4" stroke-linecap="round"/>
<line x1="1013.0" y1="256.3" x2="1000.9" y2="246.8" stroke="#287c71" stroke-width="3.4" stroke-linecap="round"/>
<line x1="1000.9" y1="246.8" x2="988.8" y2="251.5" stroke="#287c71" stroke-width="3.4" stroke-linecap="round"/>
<line x1="988.8" y1="251.5" x2="976.7" y2="261.0" stroke="#287c71" stroke-width="3.4" stroke-linecap="round"/>
<line x1="976.7" y1="261.0" x2="964.7" y2="256.3" stroke="#287c71" stroke-width="3.4" stroke-linecap="round"/>
<line x1="964.7" y1="256.3" x2="952.6" y2="232.5" stroke="#287c71" stroke-width="3.4" stroke-linecap="round"/>
<line x1="952.6" y1="232.5" x2="940.5" y2="227.8" stroke="#287c71" stroke-width="3.4" stroke-linecap="round"/>
<line x1="940.5" y1="227.8" x2="928.4" y2="223.0" stroke="#287c71" stroke-width="3.4" stroke-linecap="round"/>
<line x1="928.4" y1="223.0" x2="916.3" y2="223.0" stroke="#287c71" stroke-width="3.4" stroke-linecap="round"/>
<line x1="916.3" y1="223.0" x2="904.2" y2="246.8" stroke="#287c71" stroke-width="3.4" stroke-linecap="round"/>
<line x1="904.2" y1="246.8" x2="892.1" y2="237.3" stroke="#287c71" stroke-width="3.4" stroke-linecap="round"/>
<line x1="892.1" y1="237.3" x2="880.0" y2="237.3" stroke="#287c71" stroke-width="3.4" stroke-linecap="round"/>
<line x1="880.0" y1="237.3" x2="867.9" y2="227.8" stroke="#287c71" stroke-width="3.4" stroke-linecap="round"/>
<line x1="867.9" y1="227.8" x2="855.8" y2="227.8" stroke="#287c71" stroke-width="3.4" stroke-linecap="round"/>
<line x1="855.8" y1="227.8" x2="843.8" y2="227.8" stroke="#287c71" stroke-width="3.4" stroke-linecap="round"/>
<line x1="843.8" y1="227.8" x2="831.7" y2="227.8" stroke="#287c71" stroke-width="3.4" stroke-linecap="round"/>
<line x1="831.7" y1="227.8" x2="819.6" y2="194.6" stroke="#287c71" stroke-width="3.4" stroke-linecap="round"/>
<line x1="819.6" y1="194.6" x2="807.5" y2="194.6" stroke="#287c71" stroke-width="3.4" stroke-linecap="round"/>
<line x1="807.5" y1="194.6" x2="795.4" y2="185.1" stroke="#287c71" stroke-width="3.4" stroke-linecap="round"/>
<line x1="795.4" y1="185.1" x2="783.3" y2="204.1" stroke="#287c71" stroke-width="3.4" stroke-linecap="round"/>
<line x1="783.3" y1="204.1" x2="771.2" y2="199.3" stroke="#287c71" stroke-width="3.4" stroke-linecap="round"/>
<line x1="771.2" y1="199.3" x2="759.1" y2="185.1" stroke="#287c71" stroke-width="3.4" stroke-linecap="round"/>
<line x1="759.1" y1="185.1" x2="747.0" y2="175.6" stroke="#287c71" stroke-width="3.4" stroke-linecap="round"/>
<line x1="747.0" y1="175.6" x2="734.9" y2="175.6" stroke="#287c71" stroke-width="3.4" stroke-linecap="round"/>
<line x1="734.9" y1="175.6" x2="722.9" y2="175.6" stroke="#287c71" stroke-width="3.4" stroke-linecap="round"/>
<line x1="722.9" y1="175.6" x2="710.8" y2="189.8" stroke="#287c71" stroke-width="3.4" stroke-linecap="round"/>
<line x1="710.8" y1="189.8" x2="698.7" y2="189.8" stroke="#287c71" stroke-width="3.4" stroke-linecap="round"/>
<line x1="698.7" y1="189.8" x2="686.6" y2="194.6" stroke="#287c71" stroke-width="3.4" stroke-linecap="round"/>
<line x1="686.6" y1="194.6" x2="674.5" y2="208.8" stroke="#287c71" stroke-width="3.4" stroke-linecap="round"/>
<line x1="674.5" y1="208.8" x2="662.4" y2="218.3" stroke="#287c71" stroke-width="3.4" stroke-linecap="round"/>
<line x1="662.4" y1="218.3" x2="650.3" y2="232.5" stroke="#287c71" stroke-width="3.4" stroke-linecap="round"/>
<line x1="650.3" y1="232.5" x2="638.2" y2="251.5" stroke="#287c71" stroke-width="3.4" stroke-linecap="round"/>
<line x1="638.2" y1="251.5" x2="626.1" y2="242.0" stroke="#287c71" stroke-width="3.4" stroke-linecap="round"/>
<line x1="626.1" y1="242.0" x2="614.0" y2="246.8" stroke="#287c71" stroke-width="3.4" stroke-linecap="round"/>
<line x1="614.0" y1="246.8" x2="602.0" y2="256.3" stroke="#287c71" stroke-width="3.4" stroke-linecap="round"/>
<line x1="602.0" y1="256.3" x2="589.9" y2="251.5" stroke="#287c71" stroke-width="3.4" stroke-linecap="round"/>
<line x1="589.9" y1="251.5" x2="577.8" y2="246.8" stroke="#287c71" stroke-width="3.4" stroke-linecap="round"/>
<line x1="577.8" y1="246.8" x2="565.7" y2="251.5" stroke="#287c71" stroke-width="3.4" stroke-linecap="round"/>
<line x1="565.7" y1="251.5" x2="553.6" y2="251.5" stroke="#287c71" stroke-width="3.4" stroke-linecap="round"/>
<line x1="553.6" y1="251.5" x2="541.5" y2="280.0" stroke="#287c71" stroke-width="3.4" stroke-linecap="round"/>
<line x1="541.5" y1="280.0" x2="529.4" y2="284.7" stroke="#287c71" stroke-width="3.4" stroke-linecap="round"/>
<line x1="529.4" y1="284.7" x2="517.3" y2="289.5" stroke="#287c71" stroke-width="3.4" stroke-linecap="round"/>
<line x1="517.3" y1="289.5" x2="505.2" y2="313.2" stroke="#287c71" stroke-width="3.4" stroke-linecap="round"/>
<line x1="505.2" y1="313.2" x2="493.1" y2="318.0" stroke="#287c71" stroke-width="3.4" stroke-linecap="round"/>
<line x1="493.1" y1="318.0" x2="481.1" y2="313.2" stroke="#287c71" stroke-width="3.4" stroke-linecap="round"/>
<line x1="481.1" y1="313.2" x2="469.0" y2="303.7" stroke="#287c71" stroke-width="3.4" stroke-linecap="round"/>
<line x1="469.0" y1="303.7" x2="456.9" y2="294.2" stroke="#287c71" stroke-width="3.4" stroke-linecap="round"/>
<line x1="456.9" y1="294.2" x2="444.8" y2="313.2" stroke="#287c71" stroke-width="3.4" stroke-linecap="round"/>
<line x1="444.8" y1="313.2" x2="432.7" y2="322.7" stroke="#d9822b" stroke-width="3.4" stroke-linecap="round"/>
<line x1="432.7" y1="322.7" x2="420.6" y2="294.2" stroke="#287c71" stroke-width="3.4" stroke-linecap="round"/>
<line x1="420.6" y1="294.2" x2="408.5" y2="308.5" stroke="#287c71" stroke-width="3.4" stroke-linecap="round"/>
<line x1="408.5" y1="308.5" x2="396.4" y2="313.2" stroke="#287c71" stroke-width="3.4" stroke-linecap="round"/>
<line x1="396.4" y1="313.2" x2="384.3" y2="318.0" stroke="#287c71" stroke-width="3.4" stroke-linecap="round"/>
<line x1="384.3" y1="318.0" x2="372.2" y2="313.2" stroke="#287c71" stroke-width="3.4" stroke-linecap="round"/>
<line x1="372.2" y1="313.2" x2="360.2" y2="275.3" stroke="#287c71" stroke-width="3.4" stroke-linecap="round"/>
<line x1="360.2" y1="275.3" x2="348.1" y2="251.5" stroke="#287c71" stroke-width="3.4" stroke-linecap="round"/>
<line x1="348.1" y1="251.5" x2="336.0" y2="256.3" stroke="#287c71" stroke-width="3.4" stroke-linecap="round"/>
<line x1="336.0" y1="256.3" x2="323.9" y2="232.5" stroke="#287c71" stroke-width="3.4" stroke-linecap="round"/>
<line x1="323.9" y1="232.5" x2="311.8" y2="208.8" stroke="#287c71" stroke-width="3.4" stroke-linecap="round"/>
<line x1="311.8" y1="208.8" x2="299.7" y2="218.3" stroke="#287c71" stroke-width="3.4" stroke-linecap="round"/>
<line x1="299.7" y1="218.3" x2="287.6" y2="208.8" stroke="#287c71" stroke-width="3.4" stroke-linecap="round"/>
<line x1="287.6" y1="208.8" x2="275.5" y2="213.5" stroke="#287c71" stroke-width="3.4" stroke-linecap="round"/>
<line x1="275.5" y1="213.5" x2="263.4" y2="204.1" stroke="#287c71" stroke-width="3.4" stroke-linecap="round"/>
<line x1="263.4" y1="204.1" x2="251.3" y2="204.1" stroke="#287c71" stroke-width="3.4" stroke-linecap="round"/>
<line x1="251.3" y1="204.1" x2="239.3" y2="199.3" stroke="#287c71" stroke-width="3.4" stroke-linecap="round"/>
<line x1="239.3" y1="199.3" x2="227.2" y2="199.3" stroke="#287c71" stroke-width="3.4" stroke-linecap="round"/>
<line x1="227.2" y1="199.3" x2="215.1" y2="199.3" stroke="#287c71" stroke-width="3.4" stroke-linecap="round"/>
<line x1="215.1" y1="199.3" x2="203.0" y2="208.8" stroke="#287c71" stroke-width="3.4" stroke-linecap="round"/>
<line x1="203.0" y1="208.8" x2="190.9" y2="208.8" stroke="#287c71" stroke-width="3.4" stroke-linecap="round"/>
<line x1="190.9" y1="208.8" x2="178.8" y2="213.5" stroke="#287c71" stroke-width="3.4" stroke-linecap="round"/>
<line x1="178.8" y1="213.5" x2="166.7" y2="237.3" stroke="#287c71" stroke-width="3.4" stroke-linecap="round"/>
<line x1="166.7" y1="237.3" x2="154.6" y2="242.0" stroke="#287c71" stroke-width="3.4" stroke-linecap="round"/>
<line x1="154.6" y1="242.0" x2="142.5" y2="242.0" stroke="#287c71" stroke-width="3.4" stroke-linecap="round"/>
<line x1="142.5" y1="242.0" x2="130.4" y2="251.5" stroke="#287c71" stroke-width="3.4" stroke-linecap="round"/>
<line x1="130.4" y1="251.5" x2="118.4" y2="242.0" stroke="#287c71" stroke-width="3.4" stroke-linecap="round"/>
<line x1="118.4" y1="242.0" x2="106.3" y2="265.8" stroke="#287c71" stroke-width="3.4" stroke-linecap="round"/>
<line x1="106.3" y1="265.8" x2="94.2" y2="289.5" stroke="#287c71" stroke-width="3.4" stroke-linecap="round"/>
<line x1="94.2" y1="289.5" x2="82.1" y2="275.3" stroke="#287c71" stroke-width="3.4" stroke-linecap="round"/>
<line x1="82.1" y1="275.3" x2="70.0" y2="294.2" stroke="#287c71" stroke-width="3.4" stroke-linecap="round"/>
<circle cx="1146.0" cy="189.8" r="3.8" fill="#287c71" stroke="#ffffff" stroke-width="1.6"/>
<circle cx="1133.9" cy="185.1" r="3.8" fill="#287c71" stroke="#ffffff" stroke-width="1.6"/>
<circle cx="1121.8" cy="194.6" r="3.8" fill="#287c71" stroke="#ffffff" stroke-width="1.6"/>
<circle cx="1109.7" cy="194.6" r="3.8" fill="#287c71" stroke="#ffffff" stroke-width="1.6"/>
<circle cx="1097.6" cy="208.8" r="3.8" fill="#287c71" stroke="#ffffff" stroke-width="1.6"/>
<circle cx="1085.6" cy="227.8" r="3.8" fill="#287c71" stroke="#ffffff" stroke-width="1.6"/>
<circle cx="1073.5" cy="223.0" r="3.8" fill="#287c71" stroke="#ffffff" stroke-width="1.6"/>
<circle cx="1061.4" cy="218.3" r="3.8" fill="#287c71" stroke="#ffffff" stroke-width="1.6"/>
<circle cx="1049.3" cy="227.8" r="3.8" fill="#287c71" stroke="#ffffff" stroke-width="1.6"/>
<circle cx="1037.2" cy="256.3" r="3.8" fill="#287c71" stroke="#ffffff" stroke-width="1.6"/>
<circle cx="1025.1" cy="256.3" r="3.8" fill="#287c71" stroke="#ffffff" stroke-width="1.6"/>
<circle cx="1013.0" cy="256.3" r="3.8" fill="#287c71" stroke="#ffffff" stroke-width="1.6"/>
<circle cx="1000.9" cy="246.8" r="3.8" fill="#287c71" stroke="#ffffff" stroke-width="1.6"/>
<circle cx="988.8" cy="251.5" r="3.8" fill="#287c71" stroke="#ffffff" stroke-width="1.6"/>
<circle cx="976.7" cy="261.0" r="3.8" fill="#287c71" stroke="#ffffff" stroke-width="1.6"/>
<circle cx="964.7" cy="256.3" r="3.8" fill="#287c71" stroke="#ffffff" stroke-width="1.6"/>
<circle cx="952.6" cy="232.5" r="3.8" fill="#287c71" stroke="#ffffff" stroke-width="1.6"/>
<circle cx="940.5" cy="227.8" r="3.8" fill="#287c71" stroke="#ffffff" stroke-width="1.6"/>
<circle cx="928.4" cy="223.0" r="3.8" fill="#287c71" stroke="#ffffff" stroke-width="1.6"/>
<circle cx="916.3" cy="223.0" r="3.8" fill="#287c71" stroke="#ffffff" stroke-width="1.6"/>
<circle cx="904.2" cy="246.8" r="3.8" fill="#287c71" stroke="#ffffff" stroke-width="1.6"/>
<circle cx="892.1" cy="237.3" r="3.8" fill="#287c71" stroke="#ffffff" stroke-width="1.6"/>
<circle cx="880.0" cy="237.3" r="3.8" fill="#287c71" stroke="#ffffff" stroke-width="1.6"/>
<circle cx="867.9" cy="227.8" r="3.8" fill="#287c71" stroke="#ffffff" stroke-width="1.6"/>
<circle cx="855.8" cy="227.8" r="3.8" fill="#287c71" stroke="#ffffff" stroke-width="1.6"/>
<circle cx="843.8" cy="227.8" r="3.8" fill="#287c71" stroke="#ffffff" stroke-width="1.6"/>
<circle cx="831.7" cy="227.8" r="3.8" fill="#287c71" stroke="#ffffff" stroke-width="1.6"/>
<circle cx="819.6" cy="194.6" r="3.8" fill="#287c71" stroke="#ffffff" stroke-width="1.6"/>
<circle cx="807.5" cy="194.6" r="3.8" fill="#287c71" stroke="#ffffff" stroke-width="1.6"/>
<circle cx="795.4" cy="185.1" r="3.8" fill="#287c71" stroke="#ffffff" stroke-width="1.6"/>
<circle cx="783.3" cy="204.1" r="3.8" fill="#287c71" stroke="#ffffff" stroke-width="1.6"/>
<circle cx="771.2" cy="199.3" r="3.8" fill="#287c71" stroke="#ffffff" stroke-width="1.6"/>
<circle cx="759.1" cy="185.1" r="3.8" fill="#287c71" stroke="#ffffff" stroke-width="1.6"/>
<circle cx="747.0" cy="175.6" r="3.8" fill="#287c71" stroke="#ffffff" stroke-width="1.6"/>
<circle cx="734.9" cy="175.6" r="3.8" fill="#287c71" stroke="#ffffff" stroke-width="1.6"/>
<circle cx="722.9" cy="175.6" r="3.8" fill="#287c71" stroke="#ffffff" stroke-width="1.6"/>
<circle cx="710.8" cy="189.8" r="3.8" fill="#287c71" stroke="#ffffff" stroke-width="1.6"/>
<circle cx="698.7" cy="189.8" r="3.8" fill="#287c71" stroke="#ffffff" stroke-width="1.6"/>
<circle cx="686.6" cy="194.6" r="3.8" fill="#287c71" stroke="#ffffff" stroke-width="1.6"/>
<circle cx="674.5" cy="208.8" r="3.8" fill="#287c71" stroke="#ffffff" stroke-width="1.6"/>
<circle cx="662.4" cy="218.3" r="3.8" fill="#287c71" stroke="#ffffff" stroke-width="1.6"/>
<circle cx="650.3" cy="232.5" r="3.8" fill="#287c71" stroke="#ffffff" stroke-width="1.6"/>
<circle cx="638.2" cy="251.5" r="3.8" fill="#287c71" stroke="#ffffff" stroke-width="1.6"/>
<circle cx="626.1" cy="242.0" r="3.8" fill="#287c71" stroke="#ffffff" stroke-width="1.6"/>
<circle cx="614.0" cy="246.8" r="3.8" fill="#287c71" stroke="#ffffff" stroke-width="1.6"/>
<circle cx="602.0" cy="256.3" r="3.8" fill="#287c71" stroke="#ffffff" stroke-width="1.6"/>
<circle cx="589.9" cy="251.5" r="3.8" fill="#287c71" stroke="#ffffff" stroke-width="1.6"/>
<circle cx="577.8" cy="246.8" r="3.8" fill="#287c71" stroke="#ffffff" stroke-width="1.6"/>
<circle cx="565.7" cy="251.5" r="3.8" fill="#287c71" stroke="#ffffff" stroke-width="1.6"/>
<circle cx="553.6" cy="251.5" r="3.8" fill="#287c71" stroke="#ffffff" stroke-width="1.6"/>
<circle cx="541.5" cy="280.0" r="3.8" fill="#287c71" stroke="#ffffff" stroke-width="1.6"/>
<circle cx="529.4" cy="284.7" r="3.8" fill="#287c71" stroke="#ffffff" stroke-width="1.6"/>
<circle cx="517.3" cy="289.5" r="3.8" fill="#287c71" stroke="#ffffff" stroke-width="1.6"/>
<circle cx="505.2" cy="313.2" r="3.8" fill="#287c71" stroke="#ffffff" stroke-width="1.6"/>
<circle cx="493.1" cy="318.0" r="3.8" fill="#287c71" stroke="#ffffff" stroke-width="1.6"/>
<circle cx="481.1" cy="313.2" r="3.8" fill="#287c71" stroke="#ffffff" stroke-width="1.6"/>
<circle cx="469.0" cy="303.7" r="3.8" fill="#287c71" stroke="#ffffff" stroke-width="1.6"/>
<circle cx="456.9" cy="294.2" r="3.8" fill="#287c71" stroke="#ffffff" stroke-width="1.6"/>
<circle cx="444.8" cy="313.2" r="3.8" fill="#287c71" stroke="#ffffff" stroke-width="1.6"/>
<circle cx="432.7" cy="322.7" r="3.8" fill="#d9822b" stroke="#ffffff" stroke-width="1.6"/>
<circle cx="420.6" cy="294.2" r="3.8" fill="#287c71" stroke="#ffffff" stroke-width="1.6"/>
<circle cx="408.5" cy="308.5" r="3.8" fill="#287c71" stroke="#ffffff" stroke-width="1.6"/>
<circle cx="396.4" cy="313.2" r="3.8" fill="#287c71" stroke="#ffffff" stroke-width="1.6"/>
<circle cx="384.3" cy="318.0" r="3.8" fill="#287c71" stroke="#ffffff" stroke-width="1.6"/>
<circle cx="372.2" cy="313.2" r="3.8" fill="#287c71" stroke="#ffffff" stroke-width="1.6"/>
<circle cx="360.2" cy="275.3" r="3.8" fill="#287c71" stroke="#ffffff" stroke-width="1.6"/>
<circle cx="348.1" cy="251.5" r="3.8" fill="#287c71" stroke="#ffffff" stroke-width="1.6"/>
<circle cx="336.0" cy="256.3" r="3.8" fill="#287c71" stroke="#ffffff" stroke-width="1.6"/>
<circle cx="323.9" cy="232.5" r="3.8" fill="#287c71" stroke="#ffffff" stroke-width="1.6"/>
<circle cx="311.8" cy="208.8" r="3.8" fill="#287c71" stroke="#ffffff" stroke-width="1.6"/>
<circle cx="299.7" cy="218.3" r="3.8" fill="#287c71" stroke="#ffffff" stroke-width="1.6"/>
<circle cx="287.6" cy="208.8" r="3.8" fill="#287c71" stroke="#ffffff" stroke-width="1.6"/>
<circle cx="275.5" cy="213.5" r="3.8" fill="#287c71" stroke="#ffffff" stroke-width="1.6"/>
<circle cx="263.4" cy="204.1" r="3.8" fill="#287c71" stroke="#ffffff" stroke-width="1.6"/>
<circle cx="251.3" cy="204.1" r="3.8" fill="#287c71" stroke="#ffffff" stroke-width="1.6"/>
<circle cx="239.3" cy="199.3" r="3.8" fill="#287c71" stroke="#ffffff" stroke-width="1.6"/>
<circle cx="227.2" cy="199.3" r="3.8" fill="#287c71" stroke="#ffffff" stroke-width="1.6"/>
<circle cx="215.1" cy="199.3" r="3.8" fill="#287c71" stroke="#ffffff" stroke-width="1.6"/>
<circle cx="203.0" cy="208.8" r="3.8" fill="#287c71" stroke="#ffffff" stroke-width="1.6"/>
<circle cx="190.9" cy="208.8" r="3.8" fill="#287c71" stroke="#ffffff" stroke-width="1.6"/>
<circle cx="178.8" cy="213.5" r="3.8" fill="#287c71" stroke="#ffffff" stroke-width="1.6"/>
<circle cx="166.7" cy="237.3" r="3.8" fill="#287c71" stroke="#ffffff" stroke-width="1.6"/>
<circle cx="154.6" cy="242.0" r="3.8" fill="#287c71" stroke="#ffffff" stroke-width="1.6"/>
<circle cx="142.5" cy="242.0" r="3.8" fill="#287c71" stroke="#ffffff" stroke-width="1.6"/>
<circle cx="130.4" cy="251.5" r="3.8" fill="#287c71" stroke="#ffffff" stroke-width="1.6"/>
<circle cx="118.4" cy="242.0" r="3.8" fill="#287c71" stroke="#ffffff" stroke-width="1.6"/>
<circle cx="106.3" cy="265.8" r="3.8" fill="#287c71" stroke="#ffffff" stroke-width="1.6"/>
<circle cx="94.2" cy="289.5" r="3.8" fill="#287c71" stroke="#ffffff" stroke-width="1.6"/>
<circle cx="82.1" cy="275.3" r="3.8" fill="#287c71" stroke="#ffffff" stroke-width="1.6"/>
<circle cx="70.0" cy="294.2" r="3.8" fill="#287c71" stroke="#ffffff" stroke-width="1.6"/>
<text x="1156" y="32" text-anchor="end" fill="#66717d" font-size="14" font-weight="650" font-family="Inter, system-ui, sans-serif">Korridor</text>
<circle cx="1078.4" cy="28" r="4.5" fill="#dcefe9"/>
<text x="1050.4" y="32" text-anchor="end" fill="#66717d" font-size="14" font-weight="650" font-family="Inter, system-ui, sans-serif">7-Tage außerhalb</text>
<circle cx="907.2" cy="28" r="4.5" fill="#d9822b"/>
<text x="879.2" y="32" text-anchor="end" fill="#66717d" font-size="14" font-weight="650" font-family="Inter, system-ui, sans-serif">7-Tage im Korridor</text>
<circle cx="719.6" cy="28" r="4.5" fill="#287c71"/>
<text x="691.6" y="32" text-anchor="end" fill="#66717d" font-size="14" font-weight="650" font-family="Inter, system-ui, sans-serif">Tages-RMSSD</text>
<circle cx="589.4" cy="28" r="4.5" fill="#a8b0ba"/>
</svg>

