<svg xmlns="http://www.w3.org/2000/svg" viewBox="0 0 1180 540" role="img" aria-label="Long Sessions">
<rect x="0" y="0" width="1180" height="540" rx="18" fill="#ffffff"/>
<rect x="70" y="74" width="1046" height="412" rx="10" fill="#fbfcfd" stroke="#e8ecf1"/>
<text x="24" y="34" fill="#1d252d" font-size="24" font-weight="700" font-family="Inter, system-ui, sans-serif">Long Sessions</text>
<line x1="70" y1="74.0" x2="1116" y2="74.0" stroke="#e8ecf1" stroke-width="1"/>
<line x1="70" y1="177.0" x2="1116" y2="177.0" stroke="#e8ecf1" stroke-width="1"/>
<line x1="70" y1="280.0" x2="1116" y2="280.0" stroke="#e8ecf1" stroke-width="1"/>
<line x1="70" y1="383.0" x2="1116" y2="383.0" stroke="#e8ecf1" stroke-width="1"/>
<line x1="70" y1="486.0" x2="1116" y2="486.0" stroke="#e8ecf1" stroke-width="1"/>
<text x="58" y="79" text-anchor="end" fill="#66717d" font-size="13" font-family="Inter, system-ui, sans-serif">6.6h</text>
<text x="58" y="486" text-anchor="end" fill="#66717d" font-size="13" font-family="Inter, system-ui, sans-serif">0</text>
<text x="1128" y="79" fill="#66717d" font-size="13" font-family="Inter, system-ui, sans-serif">1.5h</text>
<line x1="91.8" y1="74" x2="91.8" y2="486" stroke="#e8ecf1" stroke-width="1"/>
<text x="91.8" y="520.0" text-anchor="middle" fill="#66717d" font-size="12" font-family="Inter, system-ui, sans-serif">W09</text>
<line x1="135.4" y1="74" x2="135.4" y2="486" stroke="#e8ecf1" stroke-width="1"/>
<line x1="179.0" y1="74" x2="179.0" y2="486" stroke="#e8ecf1" stroke-width="1"/>
<text x="179.0" y="520.0" text-anchor="middle" fill="#66717d" font-size="12" font-family="Inter, system-ui, sans-serif">W11</text>
<line x1="222.5" y1="74" x2="222.5" y2="486" stroke="#e8ecf1" stroke-width="1"/>
<line x1="266.1" y1="74" x2="266.1" y2="486" stroke="#e8ecf1" stroke-width="1"/>
<text x="266.1" y="520.0" text-anchor="middle" fill="#66717d" font-size="12" font-family="Inter, system-ui, sans-serif">W13</text>
<line x1="309.7" y1="74" x2="309.7" y2="486" stroke="#e8ecf1" stroke-width="1"/>
<line x1="353.3" y1="74" x2="353.3" y2="486" stroke="#e8ecf1" stroke-width="1"/>
<text x="353.3" y="520.0" text-anchor="middle" fill="#66717d" font-size="12" font-family="Inter, system-ui, sans-serif">W15</text>
<line x1="396.9" y1="74" x2="396.9" y2="486" stroke="#e8ecf1" stroke-width="1"/>
<line x1="440.5" y1="74" x2="440.5" y2="486" stroke="#e8ecf1" stroke-width="1"/>
<text x="440.5" y="520.0" text-anchor="middle" fill="#66717d" font-size="12" font-family="Inter, system-ui, sans-serif">W17</text>
<line x1="484.0" y1="74" x2="484.0" y2="486" stroke="#e8ecf1" stroke-width="1"/>
<line x1="527.6" y1="74" x2="527.6" y2="486" stroke="#e8ecf1" stroke-width="1"/>
<text x="527.6" y="520.0" text-anchor="middle" fill="#66717d" font-size="12" font-family="Inter, system-ui, sans-serif">W19</text>
<line x1="571.2" y1="74" x2="571.2" y2="486" stroke="#e8ecf1" stroke-width="1"/>
<line x1="614.8" y1="74" x2="614.8" y2="486" stroke="#e8ecf1" stroke-width="1"/>
<text x="614.8" y="520.0" text-anchor="middle" fill="#66717d" font-size="12" font-family="Inter, system-ui, sans-serif">W21</text>
<line x1="658.4" y1="74" x2="658.4" y2="486" stroke="#e8ecf1" stroke-width="1"/>
<line x1="702.0" y1="74" x2="702.0" y2="486" stroke="#e8ecf1" stroke-width="1"/>
<text x="702.0" y="520.0" text-anchor="middle" fill="#66717d" font-size="12" font-family="Inter, system-ui, sans-serif">W23</text>
<line x1="745.5" y1="74" x2="745.5" y2="486" stroke="#e8ecf1" stroke-width="1"/>
<line x1="789.1" y1="74" x2="789.1" y2="486" stroke="#e8ecf1" stroke-width="1"/>
<text x="789.1" y="520.0" text-anchor="middle" fill="#66717d" font-size="12" font-family="Inter, system-ui, sans-serif">W25</text>
<line x1="832.7" y1="74" x2="832.7" y2="486" stroke="#e8ecf1" stroke-width="1"/>
<line x1="876.3" y1="74" x2="876.3" y2="486" stroke="#e8ecf1" stroke-width="1"/>
<text x="876.3" y="520.0" text-anchor="middle" fill="#66717d" font-size="12" font-family="Inter, system-ui, sans-serif">W27</text>
<line x1="919.9" y1="74" x2="919.9" y2="486" stroke="#e8ecf1" stroke-width="1"/>
<line x1="963.5" y1="74" x2="963.5" y2="486" stroke="#e8ecf1" stroke-width="1"/>
<text x="963.5" y="520.0" text-anchor="middle" fill="#66717d" font-size="12" font-family="Inter, system-ui, sans-serif">W29</text>
<line x1="1007.0" y1="74" x2="1007.0" y2="486" stroke="#e8ecf1" stroke-width="1"/>
<line x1="1050.6" y1="74" x2="1050.6" y2="486" stroke="#e8ecf1" stroke-width="1"/>
<text x="1050.6" y="520.0" text-anchor="middle" fill="#66717d" font-size="12" font-family="Inter, system-ui, sans-serif">W31</text>
<line x1="1094.2" y1="74" x2="1094.2" y2="486" stroke="#e8ecf1" stroke-width="1"/>
<text x="1094.2" y="520.0" text-anchor="middle" fill="#66717d" font-size="12" font-family="Inter, system-ui, sans-serif">W32</text>
<polyline points="661.2,454.8 706.7,127.7 752.2,329.9 797.7,376.8 843.1,406.5 888.6,419.4 934.1,334.1 979.6,149.9 1025.0,281.7 1070.5,248.3 1116.0,298.7" fill="none" stroke="#287c71" stroke-width="3" stroke-linecap="round" stroke-linejoin="round"/>
<circle cx="661.2" cy="454.8" r="3.8" fill="#287c71" stroke="#ffffff" stroke-width="1.6"/>
<circle cx="706.7" cy="127.7" r="3.8" fill="#287c71" stroke="#ffffff" stroke-width="1.6"/>
<circle cx="752.2" cy="329.9" r="3.8" fill="#287c71" stroke="#ffffff" stroke-width="1.6"/>
<circle cx="797.7" cy="376.8" r="3.8" fill="#287c71" stroke="#ffffff" stroke-width="1.6"/>
<circle cx="843.1" cy="406.5" r="3.8" fill="#287c71" stroke="#ffffff" stroke-width="1.6"/>
<circle cx="888.6" cy="419.4" r="3.8" fill="#287c71" stroke="#ffffff" stroke-width="1.6"/>
<circle cx="934.1" cy="334.1" r="3.8" fill="#287c71" stroke="#ffffff" stroke-width="1.6"/>
<circle cx="979.6" cy="149.9" r="3.8" fill="#287c71" stroke="#ffffff" stroke-width="1.6"/>
<circle cx="1025.0" cy="281.7" r="3.8" fill="#287c71" stroke="#ffffff" stroke-width="1.6"/>
<circle cx="1070.5" cy="248.3" r="3.8" fill="#287c71" stroke="#ffffff" stroke-width="1.6"/>
<circle cx="1116.0" cy="298.7" r="3.8" fill="#287c71" stroke="#ffffff" stroke-width="1.6"/>
<polyline points="706.7,357.1 752.2,262.1 797.7,344.8 843.1,288.5 888.6,297.5 934.1,127.7 979.6,193.6 1025.0,169.5 1070.5,184.0 1116.0,160.5" fill="none" stroke="#b64b3a" stroke-width="3" stroke-linecap="round" stroke-linejoin="round"/>
<circle cx="706.7" cy="357.1" r="3.8" fill="#b64b3a" stroke="#ffffff" stroke-width="1.6"/>
<circle cx="752.2" cy="262.1" r="3.8" fill="#b64b3a" stroke="#ffffff" stroke-width="1.6"/>
<circle cx="797.7" cy="344.8" r="3.8" fill="#b64b3a" stroke="#ffffff" stroke-width="1.6"/>
<circle cx="843.1" cy="288.5" r="3.8" fill="#b64b3a" stroke="#ffffff" stroke-width="1.6"/>
<circle cx="888.6" cy="297.5" r="3.8" fill="#b64b3a" stroke="#ffffff" stroke-width="1.6"/>
<circle cx="934.1" cy="127.7" r="3.8" fill="#b64b3a" stroke="#ffffff" stroke-width="1.6"/>
<circle cx="979.6" cy="193.6" r="3.8" fill="#b64b3a" stroke="#ffffff" stroke-width="1.6"/>
<circle cx="1025.0" cy="169.5" r="3.8" fill="#b64b3a" stroke="#ffffff" stroke-width="1.6"/>
<circle cx="1070.5" cy="184.0" r="3.8" fill="#b64b3a" stroke="#ffffff" stroke-width="1.6"/>
<circle cx="1116.0" cy="160.5" r="3.8" fill="#b64b3a" stroke="#ffffff" stroke-width="1.6"/>
<text x="1156" y="32" text-anchor="end" fill="#66717d" font-size="14" font-weight="650" font-family="Inter, system-ui, sans-serif">Run</text>
<circle cx="1119.4" cy="28" r="4.5" fill="#b64b3a"/>
<text x="1091.4" y="32" text-anchor="end" fill="#66717d" font-size="14" font-weight="650" font-family="Inter, system-ui, sans-serif">Bike</text>
<circle cx="1046.6" cy="28" r="4.5" fill="#287c71"/>
<text x="1130" y="298.7" fill="#287c71" font-size="15" font-weight="800" font-family="Inter, system-ui, sans-serif">3:00h</text>
<text x="1130" y="178.5" fill="#b64b3a" font-size="15" font-weight="800" font-family="Inter, system-ui, sans-serif">1:13h</text>
</svg>

