<svg xmlns="http://www.w3.org/2000/svg" viewBox="0 0 1180 540" role="img" aria-label="Thresholds">
<rect x="0" y="0" width="1180" height="540" rx="18" fill="#ffffff"/>
<rect x="70" y="74" width="992" height="412" rx="10" fill="#fbfcfd" stroke="#e8ecf1"/>
<text x="24" y="34" fill="#1d252d" font-size="24" font-weight="700" font-family="Inter, system-ui, sans-serif">Thresholds</text>
<line x1="70" y1="74.0" x2="1062" y2="74.0" stroke="#e8ecf1" stroke-width="1"/>
<line x1="70" y1="177.0" x2="1062" y2="177.0" stroke="#e8ecf1" stroke-width="1"/>
<line x1="70" y1="280.0" x2="1062" y2="280.0" stroke="#e8ecf1" stroke-width="1"/>
<line x1="70" y1="383.0" x2="1062" y2="383.0" stroke="#e8ecf1" stroke-width="1"/>
<line x1="70" y1="486.0" x2="1062" y2="486.0" stroke="#e8ecf1" stroke-width="1"/>
<line x1="70.0" y1="74" x2="70.0" y2="486" stroke="#e8ecf1" stroke-width="1"/>
<text x="70.0" y="520" text-anchor="middle" fill="#66717d" font-size="13" font-family="Inter, system-ui, sans-serif">09.06.</text>
<line x1="318.0" y1="74" x2="318.0" y2="486" stroke="#e8ecf1" stroke-width="1"/>
<text x="318.0" y="520" text-anchor="middle" fill="#66717d" font-size="13" font-family="Inter, system-ui, sans-serif">08.09.</text>
<line x1="566.0" y1="74" x2="566.0" y2="486" stroke="#e8ecf1" stroke-width="1"/>
<text x="566.0" y="520" text-anchor="middle" fill="#66717d" font-size="13" font-family="Inter, system-ui, sans-serif">08.12.</text>
<line x1="814.0" y1="74" x2="814.0" y2="486" stroke="#e8ecf1" stroke-width="1"/>
<text x="814.0" y="520" text-anchor="middle" fill="#66717d" font-size="13" font-family="Inter, system-ui, sans-serif">09.03.</text>
<line x1="1062.0" y1="74" x2="1062.0" y2="486" stroke="#e8ecf1" stroke-width="1"/>
<text x="1062.0" y="520" text-anchor="middle" fill="#66717d" font-size="13" font-family="Inter, system-ui, sans-serif">08.06.</text>
<text x="1156" y="32" text-anchor="end" fill="#66717d" font-size="14" font-weight="650" font-family="Inter, system-ui, sans-serif">Run Pace</text>
<circle cx="1085.6" cy="28" r="4.5" fill="#9f2f25"/>
<text x="1045.6" y="32" text-anchor="end" fill="#66717d" font-size="14" font-weight="650" font-family="Inter, system-ui, sans-serif">Bike FTP</text>
<circle cx="975.2" cy="28" r="4.5" fill="#287c71"/>
<text x="935.1999999999999" y="32" text-anchor="end" fill="#66717d" font-size="14" font-weight="650" font-family="Inter, system-ui, sans-serif">Swim CSS</text>
<circle cx="864.8" cy="28" r="4.5" fill="#2f6fa3"/>
<polyline points="225.3,446.1 590.5,241.7 743.1,113.9 1053.8,139.4" fill="none" stroke="#2f6fa3" stroke-width="3" stroke-linecap="round" stroke-linejoin="round"/>
<circle cx="225.3" cy="446.1" r="3.8" fill="#2f6fa3" stroke="#ffffff" stroke-width="1.6"/>
<circle cx="590.5" cy="241.7" r="3.8" fill="#2f6fa3" stroke="#ffffff" stroke-width="1.6"/>
<circle cx="743.1" cy="113.9" r="3.8" fill="#2f6fa3" stroke="#ffffff" stroke-width="1.6"/>
<circle cx="1053.8" cy="139.4" r="3.8" fill="#2f6fa3" stroke="#ffffff" stroke-width="1.6"/>
<text x="1076" y="139.4" fill="#2f6fa3" font-size="15" font-weight="800" font-family="Inter, system-ui, sans-serif">1:35/100m</text>
<polyline points="416.1,406.3 435.2,446.1 446.1,353.1 473.3,406.3 481.5,366.4 500.6,293.3 522.4,319.9 530.6,379.7 536.0,353.1 549.6,319.9 563.3,379.7 568.7,406.3 571.5,313.2 574.2,386.3 582.4,366.4 593.3,339.8 615.1,286.6 628.7,333.2 636.9,299.9 647.8,266.7 661.4,240.1 666.8,213.5 683.2,266.7 688.6,246.8 707.7,213.5 724.1,180.3 770.4,140.5 775.8,120.5 789.5,160.4 794.9,133.8 803.1,167.0 827.6,147.1 830.4,113.9 835.8,147.1 854.9,180.3 857.6,153.7 920.3,193.6 928.5,160.4 939.4,140.5 950.3,120.5 1037.5,253.4 1042.9,233.5" fill="none" stroke="#287c71" stroke-width="3" stroke-linecap="round" stroke-linejoin="round"/>
<circle cx="416.1" cy="406.3" r="3.8" fill="#287c71" stroke="#ffffff" stroke-width="1.6"/>
<circle cx="435.2" cy="446.1" r="3.8" fill="#287c71" stroke="#ffffff" stroke-width="1.6"/>
<circle cx="446.1" cy="353.1" r="3.8" fill="#287c71" stroke="#ffffff" stroke-width="1.6"/>
<circle cx="473.3" cy="406.3" r="3.8" fill="#287c71" stroke="#ffffff" stroke-width="1.6"/>
<circle cx="481.5" cy="366.4" r="3.8" fill="#287c71" stroke="#ffffff" stroke-width="1.6"/>
<circle cx="500.6" cy="293.3" r="3.8" fill="#287c71" stroke="#ffffff" stroke-width="1.6"/>
<circle cx="522.4" cy="319.9" r="3.8" fill="#287c71" stroke="#ffffff" stroke-width="1.6"/>
<circle cx="530.6" cy="379.7" r="3.8" fill="#287c71" stroke="#ffffff" stroke-width="1.6"/>
<circle cx="536.0" cy="353.1" r="3.8" fill="#287c71" stroke="#ffffff" stroke-width="1.6"/>
<circle cx="549.6" cy="319.9" r="3.8" fill="#287c71" stroke="#ffffff" stroke-width="1.6"/>
<circle cx="563.3" cy="379.7" r="3.8" fill="#287c71" stroke="#ffffff" stroke-width="1.6"/>
<circle cx="568.7" cy="406.3" r="3.8" fill="#287c71" stroke="#ffffff" stroke-width="1.6"/>
<circle cx="571.5" cy="313.2" r="3.8" fill="#287c71" stroke="#ffffff" stroke-width="1.6"/>
<circle cx="574.2" cy="386.3" r="3.8" fill="#287c71" stroke="#ffffff" stroke-width="1.6"/>
<circle cx="582.4" cy="366.4" r="3.8" fill="#287c71" stroke="#ffffff" stroke-width="1.6"/>
<circle cx="593.3" cy="339.8" r="3.8" fill="#287c71" stroke="#ffffff" stroke-width="1.6"/>
<circle cx="615.1" cy="286.6" r="3.8" fill="#287c71" stroke="#ffffff" stroke-width="1.6"/>
<circle cx="628.7" cy="333.2" r="3.8" fill="#287c71" stroke="#ffffff" stroke-width="1.6"/>
<circle cx="636.9" cy="299.9" r="3.8" fill="#287c71" stroke="#ffffff" stroke-width="1.6"/>
<circle cx="647.8" cy="266.7" r="3.8" fill="#287c71" stroke="#ffffff" stroke-width="1.6"/>
<circle cx="661.4" cy="240.1" r="3.8" fill="#287c71" stroke="#ffffff" stroke-width="1.6"/>
<circle cx="666.8" cy="213.5" r="3.8" fill="#287c71" stroke="#ffffff" stroke-width="1.6"/>
<circle cx="683.2" cy="266.7" r="3.8" fill="#287c71" stroke="#ffffff" stroke-width="1.6"/>
<circle cx="688.6" cy="246.8" r="3.8" fill="#287c71" stroke="#ffffff" stroke-width="1.6"/>
<circle cx="707.7" cy="213.5" r="3.8" fill="#287c71" stroke="#ffffff" stroke-width="1.6"/>
<circle cx="724.1" cy="180.3" r="3.8" fill="#287c71" stroke="#ffffff" stroke-width="1.6"/>
<circle cx="770.4" cy="140.5" r="3.8" fill="#287c71" stroke="#ffffff" stroke-width="1.6"/>
<circle cx="775.8" cy="120.5" r="3.8" fill="#287c71" stroke="#ffffff" stroke-width="1.6"/>
<circle cx="789.5" cy="160.4" r="3.8" fill="#287c71" stroke="#ffffff" stroke-width="1.6"/>
<circle cx="794.9" cy="133.8" r="3.8" fill="#287c71" stroke="#ffffff" stroke-width="1.6"/>
<circle cx="803.1" cy="167.0" r="3.8" fill="#287c71" stroke="#ffffff" stroke-width="1.6"/>
<circle cx="827.6" cy="147.1" r="3.8" fill="#287c71" stroke="#ffffff" stroke-width="1.6"/>
<circle cx="830.4" cy="113.9" r="3.8" fill="#287c71" stroke="#ffffff" stroke-width="1.6"/>
<circle cx="835.8" cy="147.1" r="3.8" fill="#287c71" stroke="#ffffff" stroke-width="1.6"/>
<circle cx="854.9" cy="180.3" r="3.8" fill="#287c71" stroke="#ffffff" stroke-width="1.6"/>
<circle cx="857.6" cy="153.7" r="3.8" fill="#287c71" stroke="#ffffff" stroke-width="1.6"/>
<circle cx="920.3" cy="193.6" r="3.8" fill="#287c71" stroke="#ffffff" stroke-width="1.6"/>
<circle cx="928.5" cy="160.4" r="3.8" fill="#287c71" stroke="#ffffff" stroke-width="1.6"/>
<circle cx="939.4" cy="140.5" r="3.8" fill="#287c71" stroke="#ffffff" stroke-width="1.6"/>
<circle cx="950.3" cy="120.5" r="3.8" fill="#287c71" stroke="#ffffff" stroke-width="1.6"/>
<circle cx="1037.5" cy="253.4" r="3.8" fill="#287c71" stroke="#ffffff" stroke-width="1.6"/>
<circle cx="1042.9" cy="233.5" r="3.8" fill="#287c71" stroke="#ffffff" stroke-width="1.6"/>
<text x="1076" y="251.5" fill="#287c71" font-size="15" font-weight="800" font-family="Inter, system-ui, sans-serif">312W</text>
<polyline points="386.1,292.8 418.8,407.8 489.7,407.8 527.8,446.1 549.6,407.8 566.0,356.7 585.1,343.9 604.2,318.3 620.5,292.8 631.4,292.8 642.3,254.4 764.9,254.4 800.4,254.4 879.4,216.1 914.8,139.4 953.0,113.9 958.4,113.9 1051.1,177.8" fill="none" stroke="#9f2f25" stroke-width="3" stroke-linecap="round" stroke-linejoin="round"/>
<circle cx="386.1" cy="292.8" r="3.8" fill="#9f2f25" stroke="#ffffff" stroke-width="1.6"/>
<circle cx="418.8" cy="407.8" r="3.8" fill="#9f2f25" stroke="#ffffff" stroke-width="1.6"/>
<circle cx="489.7" cy="407.8" r="3.8" fill="#9f2f25" stroke="#ffffff" stroke-width="1.6"/>
<circle cx="527.8" cy="446.1" r="3.8" fill="#9f2f25" stroke="#ffffff" stroke-width="1.6"/>
<circle cx="549.6" cy="407.8" r="3.8" fill="#9f2f25" stroke="#ffffff" stroke-width="1.6"/>
<circle cx="566.0" cy="356.7" r="3.8" fill="#9f2f25" stroke="#ffffff" stroke-width="1.6"/>
<circle cx="585.1" cy="343.9" r="3.8" fill="#9f2f25" stroke="#ffffff" stroke-width="1.6"/>
<circle cx="604.2" cy="318.3" r="3.8" fill="#9f2f25" stroke="#ffffff" stroke-width="1.6"/>
<circle cx="620.5" cy="292.8" r="3.8" fill="#9f2f25" stroke="#ffffff" stroke-width="1.6"/>
<circle cx="631.4" cy="292.8" r="3.8" fill="#9f2f25" stroke="#ffffff" stroke-width="1.6"/>
<circle cx="642.3" cy="254.4" r="3.8" fill="#9f2f25" stroke="#ffffff" stroke-width="1.6"/>
<circle cx="764.9" cy="254.4" r="3.8" fill="#9f2f25" stroke="#ffffff" stroke-width="1.6"/>
<circle cx="800.4" cy="254.4" r="3.8" fill="#9f2f25" stroke="#ffffff" stroke-width="1.6"/>
<circle cx="879.4" cy="216.1" r="3.8" fill="#9f2f25" stroke="#ffffff" stroke-width="1.6"/>
<circle cx="914.8" cy="139.4" r="3.8" fill="#9f2f25" stroke="#ffffff" stroke-width="1.6"/>
<circle cx="953.0" cy="113.9" r="3.8" fill="#9f2f25" stroke="#ffffff" stroke-width="1.6"/>
<circle cx="958.4" cy="113.9" r="3.8" fill="#9f2f25" stroke="#ffffff" stroke-width="1.6"/>
<circle cx="1051.1" cy="177.8" r="3.8" fill="#9f2f25" stroke="#ffffff" stroke-width="1.6"/>
<text x="1076" y="213.8" fill="#9f2f25" font-size="15" font-weight="800" font-family="Inter, system-ui, sans-serif">3:54/km</text>
</svg>
