<svg xmlns="http://www.w3.org/2000/svg" viewBox="0 0 1180 540" role="img" aria-label="VO2max">
<rect x="0" y="0" width="1180" height="540" rx="18" fill="#ffffff"/>
<rect x="70" y="74" width="992" height="412" rx="10" fill="#fbfcfd" stroke="#e8ecf1"/>
<text x="24" y="34" fill="#1d252d" font-size="24" font-weight="700" font-family="Inter, system-ui, sans-serif">VO2max</text>
<line x1="70" y1="74.0" x2="1062" y2="74.0" stroke="#e8ecf1" stroke-width="1"/>
<line x1="70" y1="177.0" x2="1062" y2="177.0" stroke="#e8ecf1" stroke-width="1"/>
<line x1="70" y1="280.0" x2="1062" y2="280.0" stroke="#e8ecf1" stroke-width="1"/>
<line x1="70" y1="383.0" x2="1062" y2="383.0" stroke="#e8ecf1" stroke-width="1"/>
<line x1="70" y1="486.0" x2="1062" y2="486.0" stroke="#e8ecf1" stroke-width="1"/>
<line x1="70.0" y1="74" x2="70.0" y2="486" stroke="#e8ecf1" stroke-width="1"/>
<text x="70.0" y="520" text-anchor="middle" fill="#66717d" font-size="13" font-family="Inter, system-ui, sans-serif">18.08.</text>
<line x1="318.0" y1="74" x2="318.0" y2="486" stroke="#e8ecf1" stroke-width="1"/>
<text x="318.0" y="520" text-anchor="middle" fill="#66717d" font-size="13" font-family="Inter, system-ui, sans-serif">17.11.</text>
<line x1="566.0" y1="74" x2="566.0" y2="486" stroke="#e8ecf1" stroke-width="1"/>
<text x="566.0" y="520" text-anchor="middle" fill="#66717d" font-size="13" font-family="Inter, system-ui, sans-serif">16.02.</text>
<line x1="814.0" y1="74" x2="814.0" y2="486" stroke="#e8ecf1" stroke-width="1"/>
<text x="814.0" y="520" text-anchor="middle" fill="#66717d" font-size="13" font-family="Inter, system-ui, sans-serif">18.05.</text>
<line x1="1062.0" y1="74" x2="1062.0" y2="486" stroke="#e8ecf1" stroke-width="1"/>
<text x="1062.0" y="520" text-anchor="middle" fill="#66717d" font-size="13" font-family="Inter, system-ui, sans-serif">17.08.</text>
<text x="58" y="79" text-anchor="end" fill="#66717d" font-size="13" font-family="Inter, system-ui, sans-serif">49.8</text>
<text x="58" y="486" text-anchor="end" fill="#66717d" font-size="13" font-family="Inter, system-ui, sans-serif">41</text>
<polyline points="609.6,256.3 623.2,303.7 724.1,398.7 743.1,446.1 857.6,303.7 933.9,280.0 961.2,261.0 974.8,208.8 993.9,204.1 999.3,218.3 1007.5,223.0 1018.4,242.0 1029.3,223.0" fill="none" stroke="#287c71" stroke-width="3" stroke-linecap="round" stroke-linejoin="round"/>
<circle cx="609.6" cy="256.3" r="3.8" fill="#287c71" stroke="#ffffff" stroke-width="1.6"/>
<circle cx="623.2" cy="303.7" r="3.8" fill="#287c71" stroke="#ffffff" stroke-width="1.6"/>
<circle cx="724.1" cy="398.7" r="3.8" fill="#287c71" stroke="#ffffff" stroke-width="1.6"/>
<circle cx="743.1" cy="446.1" r="3.8" fill="#287c71" stroke="#ffffff" stroke-width="1.6"/>
<circle cx="857.6" cy="303.7" r="3.8" fill="#287c71" stroke="#ffffff" stroke-width="1.6"/>
<circle cx="933.9" cy="280.0" r="3.8" fill="#287c71" stroke="#ffffff" stroke-width="1.6"/>
<circle cx="961.2" cy="261.0" r="3.8" fill="#287c71" stroke="#ffffff" stroke-width="1.6"/>
<circle cx="974.8" cy="208.8" r="3.8" fill="#287c71" stroke="#ffffff" stroke-width="1.6"/>
<circle cx="993.9" cy="204.1" r="3.8" fill="#287c71" stroke="#ffffff" stroke-width="1.6"/>
<circle cx="999.3" cy="218.3" r="3.8" fill="#287c71" stroke="#ffffff" stroke-width="1.6"/>
<circle cx="1007.5" cy="223.0" r="3.8" fill="#287c71" stroke="#ffffff" stroke-width="1.6"/>
<circle cx="1018.4" cy="242.0" r="3.8" fill="#287c71" stroke="#ffffff" stroke-width="1.6"/>
<circle cx="1029.3" cy="223.0" r="3.8" fill="#287c71" stroke="#ffffff" stroke-width="1.6"/>
<polyline points="446.1,256.3 653.2,208.8 685.9,256.3 756.8,208.8 781.3,256.3 789.5,208.8 879.4,256.3 920.3,289.5 931.2,256.3 958.4,232.5 966.6,213.5 972.1,189.8 983.0,180.3 985.7,156.6 993.9,151.8 1015.7,156.6 1023.8,132.9 1048.4,113.9" fill="none" stroke="#b64b3a" stroke-width="3" stroke-linecap="round" stroke-linejoin="round"/>
<circle cx="446.1" cy="256.3" r="3.8" fill="#b64b3a" stroke="#ffffff" stroke-width="1.6"/>
<circle cx="653.2" cy="208.8" r="3.8" fill="#b64b3a" stroke="#ffffff" stroke-width="1.6"/>
<circle cx="685.9" cy="256.3" r="3.8" fill="#b64b3a" stroke="#ffffff" stroke-width="1.6"/>
<circle cx="756.8" cy="208.8" r="3.8" fill="#b64b3a" stroke="#ffffff" stroke-width="1.6"/>
<circle cx="781.3" cy="256.3" r="3.8" fill="#b64b3a" stroke="#ffffff" stroke-width="1.6"/>
<circle cx="789.5" cy="208.8" r="3.8" fill="#b64b3a" stroke="#ffffff" stroke-width="1.6"/>
<circle cx="879.4" cy="256.3" r="3.8" fill="#b64b3a" stroke="#ffffff" stroke-width="1.6"/>
<circle cx="920.3" cy="289.5" r="3.8" fill="#b64b3a" stroke="#ffffff" stroke-width="1.6"/>
<circle cx="931.2" cy="256.3" r="3.8" fill="#b64b3a" stroke="#ffffff" stroke-width="1.6"/>
<circle cx="958.4" cy="232.5" r="3.8" fill="#b64b3a" stroke="#ffffff" stroke-width="1.6"/>
<circle cx="966.6" cy="213.5" r="3.8" fill="#b64b3a" stroke="#ffffff" stroke-width="1.6"/>
<circle cx="972.1" cy="189.8" r="3.8" fill="#b64b3a" stroke="#ffffff" stroke-width="1.6"/>
<circle cx="983.0" cy="180.3" r="3.8" fill="#b64b3a" stroke="#ffffff" stroke-width="1.6"/>
<circle cx="985.7" cy="156.6" r="3.8" fill="#b64b3a" stroke="#ffffff" stroke-width="1.6"/>
<circle cx="993.9" cy="151.8" r="3.8" fill="#b64b3a" stroke="#ffffff" stroke-width="1.6"/>
<circle cx="1015.7" cy="156.6" r="3.8" fill="#b64b3a" stroke="#ffffff" stroke-width="1.6"/>
<circle cx="1023.8" cy="132.9" r="3.8" fill="#b64b3a" stroke="#ffffff" stroke-width="1.6"/>
<circle cx="1048.4" cy="113.9" r="3.8" fill="#b64b3a" stroke="#ffffff" stroke-width="1.6"/>
<text x="1156" y="32" text-anchor="end" fill="#66717d" font-size="14" font-weight="650" font-family="Inter, system-ui, sans-serif">Run</text>
<circle cx="1119.4" cy="28" r="4.5" fill="#b64b3a"/>
<text x="1091.4" y="32" text-anchor="end" fill="#66717d" font-size="14" font-weight="650" font-family="Inter, system-ui, sans-serif">Bike</text>
<circle cx="1046.6" cy="28" r="4.5" fill="#287c71"/>
<text x="1076" y="223.0" fill="#287c71" font-size="15" font-weight="800" font-family="Inter, system-ui, sans-serif">46.7</text>
<text x="1076" y="133.9" fill="#b64b3a" font-size="15" font-weight="800" font-family="Inter, system-ui, sans-serif">49</text>
</svg>

