<svg xmlns="http://www.w3.org/2000/svg" viewBox="0 0 1180 540" role="img" aria-label="HRV">
<rect x="0" y="0" width="1180" height="540" rx="18" fill="#ffffff"/>
<rect x="70" y="74" width="1076" height="412" rx="10" fill="#fbfcfd" stroke="#e8ecf1"/>
<text x="24" y="34" fill="#1d252d" font-size="24" font-weight="700" font-family="Inter, system-ui, sans-serif">HRV</text>
<line x1="70" y1="74.0" x2="1146" y2="74.0" stroke="#e8ecf1" stroke-width="1"/>
<line x1="70" y1="177.0" x2="1146" y2="177.0" stroke="#e8ecf1" stroke-width="1"/>
<line x1="70" y1="280.0" x2="1146" y2="280.0" stroke="#e8ecf1" stroke-width="1"/>
<line x1="70" y1="383.0" x2="1146" y2="383.0" stroke="#e8ecf1" stroke-width="1"/>
<line x1="70" y1="486.0" x2="1146" y2="486.0" stroke="#e8ecf1" stroke-width="1"/>
<line x1="70.0" y1="74" x2="70.0" y2="486" stroke="#e8ecf1" stroke-width="1"/>
<text x="70.0" y="520" text-anchor="middle" fill="#66717d" font-size="13" font-family="Inter, system-ui, sans-serif">28.03.</text>
<line x1="336.0" y1="74" x2="336.0" y2="486" stroke="#e8ecf1" stroke-width="1"/>
<text x="336.0" y="520" text-anchor="middle" fill="#66717d" font-size="13" font-family="Inter, system-ui, sans-serif">19.04.</text>
<line x1="602.0" y1="74" x2="602.0" y2="486" stroke="#e8ecf1" stroke-width="1"/>
<text x="602.0" y="520" text-anchor="middle" fill="#66717d" font-size="13" font-family="Inter, system-ui, sans-serif">11.05.</text>
<line x1="880.0" y1="74" x2="880.0" y2="486" stroke="#e8ecf1" stroke-width="1"/>
<text x="880.0" y="520" text-anchor="middle" fill="#66717d" font-size="13" font-family="Inter, system-ui, sans-serif">03.06.</text>
<line x1="1146.0" y1="74" x2="1146.0" y2="486" stroke="#e8ecf1" stroke-width="1"/>
<text x="1146.0" y="520" text-anchor="middle" fill="#66717d" font-size="13" font-family="Inter, system-ui, sans-serif">25.06.</text>
<text x="58" y="79" text-anchor="end" fill="#66717d" font-size="13" font-family="Inter, system-ui, sans-serif">131ms</text>
<text x="58" y="486" text-anchor="end" fill="#66717d" font-size="13" font-family="Inter, system-ui, sans-serif">51</text>
<polygon points="1109.7,134.6 1097.6,134.6 1085.6,134.6 1073.5,134.6 1061.4,134.6 1049.3,139.8 1037.2,139.8 1025.1,134.6 1013.0,134.6 1000.9,134.6 988.8,134.6 976.7,139.8 964.7,139.8 952.6,134.6 940.5,134.6 928.4,134.6 916.3,134.6 904.2,129.4 892.1,124.3 880.0,129.4 867.9,124.3 855.8,129.4 843.8,129.4 831.7,129.4 819.6,129.4 807.5,134.6 795.4,129.4 783.3,129.4 771.2,129.4 759.1,129.4 747.0,134.6 734.9,134.6 722.9,134.6 710.8,139.8 698.7,139.8 686.6,139.8 674.5,145.0 662.4,145.0 650.3,145.0 638.2,150.2 626.1,155.4 614.0,155.4 602.0,155.4 589.9,155.4 577.8,155.4 565.7,160.6 553.6,160.6 541.5,160.6 529.4,160.6 517.3,160.6 505.2,165.8 493.1,160.6 481.1,160.6 469.0,160.6 456.9,160.6 444.8,165.8 432.7,165.8 420.6,165.8 408.5,171.0 396.4,171.0 384.3,171.0 372.2,176.2 360.2,176.2 348.1,176.2 336.0,176.2 323.9,176.2 311.8,176.2 299.7,181.4 287.6,176.2 275.5,176.2 263.4,171.0 251.3,171.0 239.3,171.0 227.2,171.0 215.1,171.0 203.0,171.0 190.9,171.0 178.8,171.0 166.7,171.0 154.6,171.0 142.5,165.8 130.4,171.0 118.4,165.8 106.3,165.8 94.2,165.8 82.1,165.8 70.0,165.8 70.0,300.8 82.1,300.8 94.2,300.8 106.3,306.0 118.4,300.8 130.4,300.8 142.5,300.8 154.6,300.8 166.7,300.8 178.8,300.8 190.9,300.8 203.0,300.8 215.1,306.0 227.2,306.0 239.3,306.0 251.3,306.0 263.4,306.0 275.5,306.0 287.6,306.0 299.7,306.0 311.8,306.0 323.9,306.0 336.0,306.0 348.1,306.0 360.2,306.0 372.2,306.0 384.3,306.0 396.4,306.0 408.5,306.0 420.6,306.0 432.7,306.0 444.8,306.0 456.9,306.0 469.0,306.0 481.1,306.0 493.1,306.0 505.2,311.1 517.3,311.1 529.4,311.1 541.5,311.1 553.6,306.0 565.7,306.0 577.8,306.0 589.9,306.0 602.0,306.0 614.0,306.0 626.1,306.0 638.2,306.0 650.3,300.8 662.4,300.8 674.5,300.8 686.6,300.8 698.7,300.8 710.8,300.8 722.9,295.6 734.9,295.6 747.0,295.6 759.1,295.6 771.2,295.6 783.3,295.6 795.4,295.6 807.5,295.6 819.6,295.6 831.7,300.8 843.8,300.8 855.8,306.0 867.9,300.8 880.0,300.8 892.1,300.8 904.2,306.0 916.3,306.0 928.4,306.0 940.5,306.0 952.6,306.0 964.7,311.1 976.7,311.1 988.8,306.0 1000.9,306.0 1013.0,306.0 1025.1,306.0 1037.2,306.0 1049.3,306.0 1061.4,306.0 1073.5,300.8 1085.6,300.8 1097.6,300.8 1109.7,300.8" fill="#dcefe9" opacity="0.85"/>
<polyline points="1109.7,212.5 1097.6,264.4 1085.6,191.7 1073.5,196.9 1061.4,202.1 1049.3,274.8 1037.2,274.8 1025.1,129.4 1013.0,300.8 1000.9,254.0 988.8,165.8 976.7,181.4 964.7,300.8 952.6,280.0 940.5,342.3 928.4,347.5 916.3,290.4 904.2,357.9 892.1,217.7 880.0,248.9 867.9,196.9 855.8,285.2 843.8,446.1 831.7,378.6 819.6,113.9 807.5,331.9 795.4,285.2 783.3,212.5 771.2,248.9 759.1,186.6 747.0,222.9 734.9,139.8 722.9,171.0 710.8,129.4 698.7,280.0 686.6,176.2 674.5,222.9 662.4,119.1 650.3,134.6 638.2,145.0 626.1,155.4 614.0,259.2 602.0,259.2 589.9,222.9 577.8,165.8 565.7,300.8 553.6,181.4 541.5,165.8 529.4,306.0 517.3,186.6 505.2,383.8 493.1,337.1 481.1,202.1 469.0,321.5 456.9,420.2 444.8,228.1 432.7,155.4 420.6,155.4 408.5,280.0 396.4,430.6 384.3,207.3 372.2,306.0 360.2,373.4 348.1,233.3 336.0,243.7 323.9,238.5 311.8,181.4 299.7,300.8 287.6,264.4 275.5,331.9 263.4,300.8 251.3,243.7 239.3,337.1 227.2,269.6 215.1,300.8 203.0,321.5 190.9,280.0 178.8,321.5 166.7,306.0 154.6,274.8 142.5,378.6 130.4,342.3 118.4,337.1 106.3,306.0 94.2,311.1 82.1,326.7 70.0,300.8" fill="none" stroke="#a8b0ba" stroke-width="1.1" stroke-linecap="round" stroke-linejoin="round"/>
<circle cx="1109.7" cy="212.5" r="2.4" fill="#a8b0ba" opacity="0.7"/>
<circle cx="1097.6" cy="264.4" r="2.4" fill="#a8b0ba" opacity="0.7"/>
<circle cx="1085.6" cy="191.7" r="2.4" fill="#a8b0ba" opacity="0.7"/>
<circle cx="1073.5" cy="196.9" r="2.4" fill="#a8b0ba" opacity="0.7"/>
<circle cx="1061.4" cy="202.1" r="2.4" fill="#a8b0ba" opacity="0.7"/>
<circle cx="1049.3" cy="274.8" r="2.4" fill="#a8b0ba" opacity="0.7"/>
<circle cx="1037.2" cy="274.8" r="2.4" fill="#a8b0ba" opacity="0.7"/>
<circle cx="1025.1" cy="129.4" r="2.4" fill="#a8b0ba" opacity="0.7"/>
<circle cx="1013.0" cy="300.8" r="2.4" fill="#a8b0ba" opacity="0.7"/>
<circle cx="1000.9" cy="254.0" r="2.4" fill="#a8b0ba" opacity="0.7"/>
<circle cx="988.8" cy="165.8" r="2.4" fill="#a8b0ba" opacity="0.7"/>
<circle cx="976.7" cy="181.4" r="2.4" fill="#a8b0ba" opacity="0.7"/>
<circle cx="964.7" cy="300.8" r="2.4" fill="#a8b0ba" opacity="0.7"/>
<circle cx="952.6" cy="280.0" r="2.4" fill="#a8b0ba" opacity="0.7"/>
<circle cx="940.5" cy="342.3" r="2.4" fill="#a8b0ba" opacity="0.7"/>
<circle cx="928.4" cy="347.5" r="2.4" fill="#a8b0ba" opacity="0.7"/>
<circle cx="916.3" cy="290.4" r="2.4" fill="#a8b0ba" opacity="0.7"/>
<circle cx="904.2" cy="357.9" r="2.4" fill="#a8b0ba" opacity="0.7"/>
<circle cx="892.1" cy="217.7" r="2.4" fill="#a8b0ba" opacity="0.7"/>
<circle cx="880.0" cy="248.9" r="2.4" fill="#a8b0ba" opacity="0.7"/>
<circle cx="867.9" cy="196.9" r="2.4" fill="#a8b0ba" opacity="0.7"/>
<circle cx="855.8" cy="285.2" r="2.4" fill="#a8b0ba" opacity="0.7"/>
<circle cx="843.8" cy="446.1" r="2.4" fill="#a8b0ba" opacity="0.7"/>
<circle cx="831.7" cy="378.6" r="2.4" fill="#a8b0ba" opacity="0.7"/>
<circle cx="819.6" cy="113.9" r="2.4" fill="#a8b0ba" opacity="0.7"/>
<circle cx="807.5" cy="331.9" r="2.4" fill="#a8b0ba" opacity="0.7"/>
<circle cx="795.4" cy="285.2" r="2.4" fill="#a8b0ba" opacity="0.7"/>
<circle cx="783.3" cy="212.5" r="2.4" fill="#a8b0ba" opacity="0.7"/>
<circle cx="771.2" cy="248.9" r="2.4" fill="#a8b0ba" opacity="0.7"/>
<circle cx="759.1" cy="186.6" r="2.4" fill="#a8b0ba" opacity="0.7"/>
<circle cx="747.0" cy="222.9" r="2.4" fill="#a8b0ba" opacity="0.7"/>
<circle cx="734.9" cy="139.8" r="2.4" fill="#a8b0ba" opacity="0.7"/>
<circle cx="722.9" cy="171.0" r="2.4" fill="#a8b0ba" opacity="0.7"/>
<circle cx="710.8" cy="129.4" r="2.4" fill="#a8b0ba" opacity="0.7"/>
<circle cx="698.7" cy="280.0" r="2.4" fill="#a8b0ba" opacity="0.7"/>
<circle cx="686.6" cy="176.2" r="2.4" fill="#a8b0ba" opacity="0.7"/>
<circle cx="674.5" cy="222.9" r="2.4" fill="#a8b0ba" opacity="0.7"/>
<circle cx="662.4" cy="119.1" r="2.4" fill="#a8b0ba" opacity="0.7"/>
<circle cx="650.3" cy="134.6" r="2.4" fill="#a8b0ba" opacity="0.7"/>
<circle cx="638.2" cy="145.0" r="2.4" fill="#a8b0ba" opacity="0.7"/>
<circle cx="626.1" cy="155.4" r="2.4" fill="#a8b0ba" opacity="0.7"/>
<circle cx="614.0" cy="259.2" r="2.4" fill="#a8b0ba" opacity="0.7"/>
<circle cx="602.0" cy="259.2" r="2.4" fill="#a8b0ba" opacity="0.7"/>
<circle cx="589.9" cy="222.9" r="2.4" fill="#a8b0ba" opacity="0.7"/>
<circle cx="577.8" cy="165.8" r="2.4" fill="#a8b0ba" opacity="0.7"/>
<circle cx="565.7" cy="300.8" r="2.4" fill="#a8b0ba" opacity="0.7"/>
<circle cx="553.6" cy="181.4" r="2.4" fill="#a8b0ba" opacity="0.7"/>
<circle cx="541.5" cy="165.8" r="2.4" fill="#a8b0ba" opacity="0.7"/>
<circle cx="529.4" cy="306.0" r="2.4" fill="#a8b0ba" opacity="0.7"/>
<circle cx="517.3" cy="186.6" r="2.4" fill="#a8b0ba" opacity="0.7"/>
<circle cx="505.2" cy="383.8" r="2.4" fill="#a8b0ba" opacity="0.7"/>
<circle cx="493.1" cy="337.1" r="2.4" fill="#a8b0ba" opacity="0.7"/>
<circle cx="481.1" cy="202.1" r="2.4" fill="#a8b0ba" opacity="0.7"/>
<circle cx="469.0" cy="321.5" r="2.4" fill="#a8b0ba" opacity="0.7"/>
<circle cx="456.9" cy="420.2" r="2.4" fill="#a8b0ba" opacity="0.7"/>
<circle cx="444.8" cy="228.1" r="2.4" fill="#a8b0ba" opacity="0.7"/>
<circle cx="432.7" cy="155.4" r="2.4" fill="#a8b0ba" opacity="0.7"/>
<circle cx="420.6" cy="155.4" r="2.4" fill="#a8b0ba" opacity="0.7"/>
<circle cx="408.5" cy="280.0" r="2.4" fill="#a8b0ba" opacity="0.7"/>
<circle cx="396.4" cy="430.6" r="2.4" fill="#a8b0ba" opacity="0.7"/>
<circle cx="384.3" cy="207.3" r="2.4" fill="#a8b0ba" opacity="0.7"/>
<circle cx="372.2" cy="306.0" r="2.4" fill="#a8b0ba" opacity="0.7"/>
<circle cx="360.2" cy="373.4" r="2.4" fill="#a8b0ba" opacity="0.7"/>
<circle cx="348.1" cy="233.3" r="2.4" fill="#a8b0ba" opacity="0.7"/>
<circle cx="336.0" cy="243.7" r="2.4" fill="#a8b0ba" opacity="0.7"/>
<circle cx="323.9" cy="238.5" r="2.4" fill="#a8b0ba" opacity="0.7"/>
<circle cx="311.8" cy="181.4" r="2.4" fill="#a8b0ba" opacity="0.7"/>
<circle cx="299.7" cy="300.8" r="2.4" fill="#a8b0ba" opacity="0.7"/>
<circle cx="287.6" cy="264.4" r="2.4" fill="#a8b0ba" opacity="0.7"/>
<circle cx="275.5" cy="331.9" r="2.4" fill="#a8b0ba" opacity="0.7"/>
<circle cx="263.4" cy="300.8" r="2.4" fill="#a8b0ba" opacity="0.7"/>
<circle cx="251.3" cy="243.7" r="2.4" fill="#a8b0ba" opacity="0.7"/>
<circle cx="239.3" cy="337.1" r="2.4" fill="#a8b0ba" opacity="0.7"/>
<circle cx="227.2" cy="269.6" r="2.4" fill="#a8b0ba" opacity="0.7"/>
<circle cx="215.1" cy="300.8" r="2.4" fill="#a8b0ba" opacity="0.7"/>
<circle cx="203.0" cy="321.5" r="2.4" fill="#a8b0ba" opacity="0.7"/>
<circle cx="190.9" cy="280.0" r="2.4" fill="#a8b0ba" opacity="0.7"/>
<circle cx="178.8" cy="321.5" r="2.4" fill="#a8b0ba" opacity="0.7"/>
<circle cx="166.7" cy="306.0" r="2.4" fill="#a8b0ba" opacity="0.7"/>
<circle cx="154.6" cy="274.8" r="2.4" fill="#a8b0ba" opacity="0.7"/>
<circle cx="142.5" cy="378.6" r="2.4" fill="#a8b0ba" opacity="0.7"/>
<circle cx="130.4" cy="342.3" r="2.4" fill="#a8b0ba" opacity="0.7"/>
<circle cx="118.4" cy="337.1" r="2.4" fill="#a8b0ba" opacity="0.7"/>
<circle cx="106.3" cy="306.0" r="2.4" fill="#a8b0ba" opacity="0.7"/>
<circle cx="94.2" cy="311.1" r="2.4" fill="#a8b0ba" opacity="0.7"/>
<circle cx="82.1" cy="326.7" r="2.4" fill="#a8b0ba" opacity="0.7"/>
<circle cx="70.0" cy="300.8" r="2.4" fill="#a8b0ba" opacity="0.7"/>
<line x1="1109.7" y1="233.3" x2="1097.6" y2="222.9" stroke="#287c71" stroke-width="3.4" stroke-linecap="round"/>
<line x1="1097.6" y1="222.9" x2="1085.6" y2="228.1" stroke="#287c71" stroke-width="3.4" stroke-linecap="round"/>
<line x1="1085.6" y1="228.1" x2="1073.5" y2="238.5" stroke="#287c71" stroke-width="3.4" stroke-linecap="round"/>
<line x1="1073.5" y1="238.5" x2="1061.4" y2="233.3" stroke="#287c71" stroke-width="3.4" stroke-linecap="round"/>
<line x1="1061.4" y1="233.3" x2="1049.3" y2="228.1" stroke="#287c71" stroke-width="3.4" stroke-linecap="round"/>
<line x1="1049.3" y1="228.1" x2="1037.2" y2="233.3" stroke="#287c71" stroke-width="3.4" stroke-linecap="round"/>
<line x1="1037.2" y1="233.3" x2="1025.1" y2="233.3" stroke="#287c71" stroke-width="3.4" stroke-linecap="round"/>
<line x1="1025.1" y1="233.3" x2="1013.0" y2="264.4" stroke="#287c71" stroke-width="3.4" stroke-linecap="round"/>
<line x1="1013.0" y1="264.4" x2="1000.9" y2="269.6" stroke="#287c71" stroke-width="3.4" stroke-linecap="round"/>
<line x1="1000.9" y1="269.6" x2="988.8" y2="274.8" stroke="#287c71" stroke-width="3.4" stroke-linecap="round"/>
<line x1="988.8" y1="274.8" x2="976.7" y2="300.8" stroke="#287c71" stroke-width="3.4" stroke-linecap="round"/>
<line x1="976.7" y1="300.8" x2="964.7" y2="306.0" stroke="#287c71" stroke-width="3.4" stroke-linecap="round"/>
<line x1="964.7" y1="306.0" x2="952.6" y2="300.8" stroke="#287c71" stroke-width="3.4" stroke-linecap="round"/>
<line x1="952.6" y1="300.8" x2="940.5" y2="290.4" stroke="#287c71" stroke-width="3.4" stroke-linecap="round"/>
<line x1="940.5" y1="290.4" x2="928.4" y2="280.0" stroke="#287c71" stroke-width="3.4" stroke-linecap="round"/>
<line x1="928.4" y1="280.0" x2="916.3" y2="300.8" stroke="#287c71" stroke-width="3.4" stroke-linecap="round"/>
<line x1="916.3" y1="300.8" x2="904.2" y2="311.1" stroke="#d9822b" stroke-width="3.4" stroke-linecap="round"/>
<line x1="904.2" y1="311.1" x2="892.1" y2="280.0" stroke="#287c71" stroke-width="3.4" stroke-linecap="round"/>
<line x1="892.1" y1="280.0" x2="880.0" y2="295.6" stroke="#287c71" stroke-width="3.4" stroke-linecap="round"/>
<line x1="880.0" y1="295.6" x2="867.9" y2="300.8" stroke="#287c71" stroke-width="3.4" stroke-linecap="round"/>
<line x1="867.9" y1="300.8" x2="855.8" y2="306.0" stroke="#287c71" stroke-width="3.4" stroke-linecap="round"/>
<line x1="855.8" y1="306.0" x2="843.8" y2="300.8" stroke="#287c71" stroke-width="3.4" stroke-linecap="round"/>
<line x1="843.8" y1="300.8" x2="831.7" y2="259.2" stroke="#287c71" stroke-width="3.4" stroke-linecap="round"/>
<line x1="831.7" y1="259.2" x2="819.6" y2="233.3" stroke="#287c71" stroke-width="3.4" stroke-linecap="round"/>
<line x1="819.6" y1="233.3" x2="807.5" y2="238.5" stroke="#287c71" stroke-width="3.4" stroke-linecap="round"/>
<line x1="807.5" y1="238.5" x2="795.4" y2="212.5" stroke="#287c71" stroke-width="3.4" stroke-linecap="round"/>
<line x1="795.4" y1="212.5" x2="783.3" y2="186.6" stroke="#287c71" stroke-width="3.4" stroke-linecap="round"/>
<line x1="783.3" y1="186.6" x2="771.2" y2="196.9" stroke="#287c71" stroke-width="3.4" stroke-linecap="round"/>
<line x1="771.2" y1="196.9" x2="759.1" y2="186.6" stroke="#287c71" stroke-width="3.4" stroke-linecap="round"/>
<line x1="759.1" y1="186.6" x2="747.0" y2="191.7" stroke="#287c71" stroke-width="3.4" stroke-linecap="round"/>
<line x1="747.0" y1="191.7" x2="734.9" y2="181.4" stroke="#287c71" stroke-width="3.4" stroke-linecap="round"/>
<line x1="734.9" y1="181.4" x2="722.9" y2="181.4" stroke="#287c71" stroke-width="3.4" stroke-linecap="round"/>
<line x1="722.9" y1="181.4" x2="710.8" y2="176.2" stroke="#287c71" stroke-width="3.4" stroke-linecap="round"/>
<line x1="710.8" y1="176.2" x2="698.7" y2="176.2" stroke="#287c71" stroke-width="3.4" stroke-linecap="round"/>
<line x1="698.7" y1="176.2" x2="686.6" y2="176.2" stroke="#287c71" stroke-width="3.4" stroke-linecap="round"/>
<line x1="686.6" y1="176.2" x2="674.5" y2="186.6" stroke="#287c71" stroke-width="3.4" stroke-linecap="round"/>
<line x1="674.5" y1="186.6" x2="662.4" y2="186.6" stroke="#287c71" stroke-width="3.4" stroke-linecap="round"/>
<line x1="662.4" y1="186.6" x2="650.3" y2="191.7" stroke="#287c71" stroke-width="3.4" stroke-linecap="round"/>
<line x1="650.3" y1="191.7" x2="638.2" y2="217.7" stroke="#287c71" stroke-width="3.4" stroke-linecap="round"/>
<line x1="638.2" y1="217.7" x2="626.1" y2="222.9" stroke="#287c71" stroke-width="3.4" stroke-linecap="round"/>
<line x1="626.1" y1="222.9" x2="614.0" y2="222.9" stroke="#287c71" stroke-width="3.4" stroke-linecap="round"/>
<line x1="614.0" y1="222.9" x2="602.0" y2="233.3" stroke="#287c71" stroke-width="3.4" stroke-linecap="round"/>
<line x1="602.0" y1="233.3" x2="589.9" y2="222.9" stroke="#287c71" stroke-width="3.4" stroke-linecap="round"/>
<line x1="589.9" y1="222.9" x2="577.8" y2="248.9" stroke="#287c71" stroke-width="3.4" stroke-linecap="round"/>
<line x1="577.8" y1="248.9" x2="565.7" y2="274.8" stroke="#287c71" stroke-width="3.4" stroke-linecap="round"/>
<line x1="565.7" y1="274.8" x2="553.6" y2="259.2" stroke="#287c71" stroke-width="3.4" stroke-linecap="round"/>
<line x1="553.6" y1="259.2" x2="541.5" y2="280.0" stroke="#287c71" stroke-width="3.4" stroke-linecap="round"/>
<line x1="541.5" y1="280.0" x2="529.4" y2="316.3" stroke="#d9822b" stroke-width="3.4" stroke-linecap="round"/>
<line x1="529.4" y1="316.3" x2="517.3" y2="306.0" stroke="#287c71" stroke-width="3.4" stroke-linecap="round"/>
<line x1="517.3" y1="306.0" x2="505.2" y2="300.8" stroke="#287c71" stroke-width="3.4" stroke-linecap="round"/>
<line x1="505.2" y1="300.8" x2="493.1" y2="269.6" stroke="#287c71" stroke-width="3.4" stroke-linecap="round"/>
<line x1="493.1" y1="269.6" x2="481.1" y2="259.2" stroke="#287c71" stroke-width="3.4" stroke-linecap="round"/>
<line x1="481.1" y1="259.2" x2="469.0" y2="295.6" stroke="#287c71" stroke-width="3.4" stroke-linecap="round"/>
<line x1="469.0" y1="295.6" x2="456.9" y2="280.0" stroke="#287c71" stroke-width="3.4" stroke-linecap="round"/>
<line x1="456.9" y1="280.0" x2="444.8" y2="259.2" stroke="#287c71" stroke-width="3.4" stroke-linecap="round"/>
<line x1="444.8" y1="259.2" x2="432.7" y2="285.2" stroke="#287c71" stroke-width="3.4" stroke-linecap="round"/>
<line x1="432.7" y1="285.2" x2="420.6" y2="290.4" stroke="#287c71" stroke-width="3.4" stroke-linecap="round"/>
<line x1="420.6" y1="290.4" x2="408.5" y2="300.8" stroke="#287c71" stroke-width="3.4" stroke-linecap="round"/>
<line x1="408.5" y1="300.8" x2="396.4" y2="295.6" stroke="#287c71" stroke-width="3.4" stroke-linecap="round"/>
<line x1="396.4" y1="295.6" x2="384.3" y2="259.2" stroke="#287c71" stroke-width="3.4" stroke-linecap="round"/>
<line x1="384.3" y1="259.2" x2="372.2" y2="269.6" stroke="#287c71" stroke-width="3.4" stroke-linecap="round"/>
<line x1="372.2" y1="269.6" x2="360.2" y2="264.4" stroke="#287c71" stroke-width="3.4" stroke-linecap="round"/>
<line x1="360.2" y1="264.4" x2="348.1" y2="259.2" stroke="#287c71" stroke-width="3.4" stroke-linecap="round"/>
<line x1="348.1" y1="259.2" x2="336.0" y2="269.6" stroke="#287c71" stroke-width="3.4" stroke-linecap="round"/>
<line x1="336.0" y1="269.6" x2="323.9" y2="269.6" stroke="#287c71" stroke-width="3.4" stroke-linecap="round"/>
<line x1="323.9" y1="269.6" x2="311.8" y2="285.2" stroke="#287c71" stroke-width="3.4" stroke-linecap="round"/>
<line x1="311.8" y1="285.2" x2="299.7" y2="295.6" stroke="#287c71" stroke-width="3.4" stroke-linecap="round"/>
<line x1="299.7" y1="295.6" x2="287.6" y2="295.6" stroke="#287c71" stroke-width="3.4" stroke-linecap="round"/>
<line x1="287.6" y1="295.6" x2="275.5" y2="300.8" stroke="#287c71" stroke-width="3.4" stroke-linecap="round"/>
<line x1="275.5" y1="300.8" x2="263.4" y2="295.6" stroke="#287c71" stroke-width="3.4" stroke-linecap="round"/>
<line x1="263.4" y1="295.6" x2="251.3" y2="295.6" stroke="#287c71" stroke-width="3.4" stroke-linecap="round"/>
<line x1="251.3" y1="295.6" x2="239.3" y2="306.0" stroke="#287c71" stroke-width="3.4" stroke-linecap="round"/>
<line x1="239.3" y1="306.0" x2="227.2" y2="295.6" stroke="#287c71" stroke-width="3.4" stroke-linecap="round"/>
<line x1="227.2" y1="295.6" x2="215.1" y2="311.1" stroke="#d9822b" stroke-width="3.4" stroke-linecap="round"/>
<line x1="215.1" y1="311.1" x2="203.0" y2="321.5" stroke="#d9822b" stroke-width="3.4" stroke-linecap="round"/>
<line x1="203.0" y1="321.5" x2="190.9" y2="321.5" stroke="#d9822b" stroke-width="3.4" stroke-linecap="round"/>
<line x1="190.9" y1="321.5" x2="178.8" y2="326.7" stroke="#d9822b" stroke-width="3.4" stroke-linecap="round"/>
<line x1="178.8" y1="326.7" x2="166.7" y2="321.5" stroke="#d9822b" stroke-width="3.4" stroke-linecap="round"/>
<line x1="166.7" y1="321.5" x2="154.6" y2="326.7" stroke="#d9822b" stroke-width="3.4" stroke-linecap="round"/>
<line x1="154.6" y1="326.7" x2="142.5" y2="331.9" stroke="#d9822b" stroke-width="3.4" stroke-linecap="round"/>
<line x1="142.5" y1="331.9" x2="130.4" y2="306.0" stroke="#d9822b" stroke-width="3.4" stroke-linecap="round"/>
<line x1="130.4" y1="306.0" x2="118.4" y2="306.0" stroke="#d9822b" stroke-width="3.4" stroke-linecap="round"/>
<line x1="118.4" y1="306.0" x2="106.3" y2="300.8" stroke="#287c71" stroke-width="3.4" stroke-linecap="round"/>
<line x1="106.3" y1="300.8" x2="94.2" y2="285.2" stroke="#287c71" stroke-width="3.4" stroke-linecap="round"/>
<line x1="94.2" y1="285.2" x2="82.1" y2="269.6" stroke="#287c71" stroke-width="3.4" stroke-linecap="round"/>
<line x1="82.1" y1="269.6" x2="70.0" y2="254.0" stroke="#287c71" stroke-width="3.4" stroke-linecap="round"/>
<circle cx="1109.7" cy="233.3" r="3.8" fill="#287c71" stroke="#ffffff" stroke-width="1.6"/>
<circle cx="1097.6" cy="222.9" r="3.8" fill="#287c71" stroke="#ffffff" stroke-width="1.6"/>
<circle cx="1085.6" cy="228.1" r="3.8" fill="#287c71" stroke="#ffffff" stroke-width="1.6"/>
<circle cx="1073.5" cy="238.5" r="3.8" fill="#287c71" stroke="#ffffff" stroke-width="1.6"/>
<circle cx="1061.4" cy="233.3" r="3.8" fill="#287c71" stroke="#ffffff" stroke-width="1.6"/>
<circle cx="1049.3" cy="228.1" r="3.8" fill="#287c71" stroke="#ffffff" stroke-width="1.6"/>
<circle cx="1037.2" cy="233.3" r="3.8" fill="#287c71" stroke="#ffffff" stroke-width="1.6"/>
<circle cx="1025.1" cy="233.3" r="3.8" fill="#287c71" stroke="#ffffff" stroke-width="1.6"/>
<circle cx="1013.0" cy="264.4" r="3.8" fill="#287c71" stroke="#ffffff" stroke-width="1.6"/>
<circle cx="1000.9" cy="269.6" r="3.8" fill="#287c71" stroke="#ffffff" stroke-width="1.6"/>
<circle cx="988.8" cy="274.8" r="3.8" fill="#287c71" stroke="#ffffff" stroke-width="1.6"/>
<circle cx="976.7" cy="300.8" r="3.8" fill="#287c71" stroke="#ffffff" stroke-width="1.6"/>
<circle cx="964.7" cy="306.0" r="3.8" fill="#287c71" stroke="#ffffff" stroke-width="1.6"/>
<circle cx="952.6" cy="300.8" r="3.8" fill="#287c71" stroke="#ffffff" stroke-width="1.6"/>
<circle cx="940.5" cy="290.4" r="3.8" fill="#287c71" stroke="#ffffff" stroke-width="1.6"/>
<circle cx="928.4" cy="280.0" r="3.8" fill="#287c71" stroke="#ffffff" stroke-width="1.6"/>
<circle cx="916.3" cy="300.8" r="3.8" fill="#287c71" stroke="#ffffff" stroke-width="1.6"/>
<circle cx="904.2" cy="311.1" r="3.8" fill="#d9822b" stroke="#ffffff" stroke-width="1.6"/>
<circle cx="892.1" cy="280.0" r="3.8" fill="#287c71" stroke="#ffffff" stroke-width="1.6"/>
<circle cx="880.0" cy="295.6" r="3.8" fill="#287c71" stroke="#ffffff" stroke-width="1.6"/>
<circle cx="867.9" cy="300.8" r="3.8" fill="#287c71" stroke="#ffffff" stroke-width="1.6"/>
<circle cx="855.8" cy="306.0" r="3.8" fill="#287c71" stroke="#ffffff" stroke-width="1.6"/>
<circle cx="843.8" cy="300.8" r="3.8" fill="#287c71" stroke="#ffffff" stroke-width="1.6"/>
<circle cx="831.7" cy="259.2" r="3.8" fill="#287c71" stroke="#ffffff" stroke-width="1.6"/>
<circle cx="819.6" cy="233.3" r="3.8" fill="#287c71" stroke="#ffffff" stroke-width="1.6"/>
<circle cx="807.5" cy="238.5" r="3.8" fill="#287c71" stroke="#ffffff" stroke-width="1.6"/>
<circle cx="795.4" cy="212.5" r="3.8" fill="#287c71" stroke="#ffffff" stroke-width="1.6"/>
<circle cx="783.3" cy="186.6" r="3.8" fill="#287c71" stroke="#ffffff" stroke-width="1.6"/>
<circle cx="771.2" cy="196.9" r="3.8" fill="#287c71" stroke="#ffffff" stroke-width="1.6"/>
<circle cx="759.1" cy="186.6" r="3.8" fill="#287c71" stroke="#ffffff" stroke-width="1.6"/>
<circle cx="747.0" cy="191.7" r="3.8" fill="#287c71" stroke="#ffffff" stroke-width="1.6"/>
<circle cx="734.9" cy="181.4" r="3.8" fill="#287c71" stroke="#ffffff" stroke-width="1.6"/>
<circle cx="722.9" cy="181.4" r="3.8" fill="#287c71" stroke="#ffffff" stroke-width="1.6"/>
<circle cx="710.8" cy="176.2" r="3.8" fill="#287c71" stroke="#ffffff" stroke-width="1.6"/>
<circle cx="698.7" cy="176.2" r="3.8" fill="#287c71" stroke="#ffffff" stroke-width="1.6"/>
<circle cx="686.6" cy="176.2" r="3.8" fill="#287c71" stroke="#ffffff" stroke-width="1.6"/>
<circle cx="674.5" cy="186.6" r="3.8" fill="#287c71" stroke="#ffffff" stroke-width="1.6"/>
<circle cx="662.4" cy="186.6" r="3.8" fill="#287c71" stroke="#ffffff" stroke-width="1.6"/>
<circle cx="650.3" cy="191.7" r="3.8" fill="#287c71" stroke="#ffffff" stroke-width="1.6"/>
<circle cx="638.2" cy="217.7" r="3.8" fill="#287c71" stroke="#ffffff" stroke-width="1.6"/>
<circle cx="626.1" cy="222.9" r="3.8" fill="#287c71" stroke="#ffffff" stroke-width="1.6"/>
<circle cx="614.0" cy="222.9" r="3.8" fill="#287c71" stroke="#ffffff" stroke-width="1.6"/>
<circle cx="602.0" cy="233.3" r="3.8" fill="#287c71" stroke="#ffffff" stroke-width="1.6"/>
<circle cx="589.9" cy="222.9" r="3.8" fill="#287c71" stroke="#ffffff" stroke-width="1.6"/>
<circle cx="577.8" cy="248.9" r="3.8" fill="#287c71" stroke="#ffffff" stroke-width="1.6"/>
<circle cx="565.7" cy="274.8" r="3.8" fill="#287c71" stroke="#ffffff" stroke-width="1.6"/>
<circle cx="553.6" cy="259.2" r="3.8" fill="#287c71" stroke="#ffffff" stroke-width="1.6"/>
<circle cx="541.5" cy="280.0" r="3.8" fill="#287c71" stroke="#ffffff" stroke-width="1.6"/>
<circle cx="529.4" cy="316.3" r="3.8" fill="#d9822b" stroke="#ffffff" stroke-width="1.6"/>
<circle cx="517.3" cy="306.0" r="3.8" fill="#287c71" stroke="#ffffff" stroke-width="1.6"/>
<circle cx="505.2" cy="300.8" r="3.8" fill="#287c71" stroke="#ffffff" stroke-width="1.6"/>
<circle cx="493.1" cy="269.6" r="3.8" fill="#287c71" stroke="#ffffff" stroke-width="1.6"/>
<circle cx="481.1" cy="259.2" r="3.8" fill="#287c71" stroke="#ffffff" stroke-width="1.6"/>
<circle cx="469.0" cy="295.6" r="3.8" fill="#287c71" stroke="#ffffff" stroke-width="1.6"/>
<circle cx="456.9" cy="280.0" r="3.8" fill="#287c71" stroke="#ffffff" stroke-width="1.6"/>
<circle cx="444.8" cy="259.2" r="3.8" fill="#287c71" stroke="#ffffff" stroke-width="1.6"/>
<circle cx="432.7" cy="285.2" r="3.8" fill="#287c71" stroke="#ffffff" stroke-width="1.6"/>
<circle cx="420.6" cy="290.4" r="3.8" fill="#287c71" stroke="#ffffff" stroke-width="1.6"/>
<circle cx="408.5" cy="300.8" r="3.8" fill="#287c71" stroke="#ffffff" stroke-width="1.6"/>
<circle cx="396.4" cy="295.6" r="3.8" fill="#287c71" stroke="#ffffff" stroke-width="1.6"/>
<circle cx="384.3" cy="259.2" r="3.8" fill="#287c71" stroke="#ffffff" stroke-width="1.6"/>
<circle cx="372.2" cy="269.6" r="3.8" fill="#287c71" stroke="#ffffff" stroke-width="1.6"/>
<circle cx="360.2" cy="264.4" r="3.8" fill="#287c71" stroke="#ffffff" stroke-width="1.6"/>
<circle cx="348.1" cy="259.2" r="3.8" fill="#287c71" stroke="#ffffff" stroke-width="1.6"/>
<circle cx="336.0" cy="269.6" r="3.8" fill="#287c71" stroke="#ffffff" stroke-width="1.6"/>
<circle cx="323.9" cy="269.6" r="3.8" fill="#287c71" stroke="#ffffff" stroke-width="1.6"/>
<circle cx="311.8" cy="285.2" r="3.8" fill="#287c71" stroke="#ffffff" stroke-width="1.6"/>
<circle cx="299.7" cy="295.6" r="3.8" fill="#287c71" stroke="#ffffff" stroke-width="1.6"/>
<circle cx="287.6" cy="295.6" r="3.8" fill="#287c71" stroke="#ffffff" stroke-width="1.6"/>
<circle cx="275.5" cy="300.8" r="3.8" fill="#287c71" stroke="#ffffff" stroke-width="1.6"/>
<circle cx="263.4" cy="295.6" r="3.8" fill="#287c71" stroke="#ffffff" stroke-width="1.6"/>
<circle cx="251.3" cy="295.6" r="3.8" fill="#287c71" stroke="#ffffff" stroke-width="1.6"/>
<circle cx="239.3" cy="306.0" r="3.8" fill="#287c71" stroke="#ffffff" stroke-width="1.6"/>
<circle cx="227.2" cy="295.6" r="3.8" fill="#287c71" stroke="#ffffff" stroke-width="1.6"/>
<circle cx="215.1" cy="311.1" r="3.8" fill="#d9822b" stroke="#ffffff" stroke-width="1.6"/>
<circle cx="203.0" cy="321.5" r="3.8" fill="#d9822b" stroke="#ffffff" stroke-width="1.6"/>
<circle cx="190.9" cy="321.5" r="3.8" fill="#d9822b" stroke="#ffffff" stroke-width="1.6"/>
<circle cx="178.8" cy="326.7" r="3.8" fill="#d9822b" stroke="#ffffff" stroke-width="1.6"/>
<circle cx="166.7" cy="321.5" r="3.8" fill="#d9822b" stroke="#ffffff" stroke-width="1.6"/>
<circle cx="154.6" cy="326.7" r="3.8" fill="#d9822b" stroke="#ffffff" stroke-width="1.6"/>
<circle cx="142.5" cy="331.9" r="3.8" fill="#d9822b" stroke="#ffffff" stroke-width="1.6"/>
<circle cx="130.4" cy="306.0" r="3.8" fill="#d9822b" stroke="#ffffff" stroke-width="1.6"/>
<circle cx="118.4" cy="306.0" r="3.8" fill="#d9822b" stroke="#ffffff" stroke-width="1.6"/>
<circle cx="106.3" cy="300.8" r="3.8" fill="#287c71" stroke="#ffffff" stroke-width="1.6"/>
<circle cx="94.2" cy="285.2" r="3.8" fill="#287c71" stroke="#ffffff" stroke-width="1.6"/>
<circle cx="82.1" cy="269.6" r="3.8" fill="#287c71" stroke="#ffffff" stroke-width="1.6"/>
<circle cx="70.0" cy="254.0" r="3.8" fill="#287c71" stroke="#ffffff" stroke-width="1.6"/>
<text x="1156" y="32" text-anchor="end" fill="#66717d" font-size="14" font-weight="650" font-family="Inter, system-ui, sans-serif">Korridor</text>
<circle cx="1085.6" cy="28" r="4.5" fill="#dcefe9"/>
<text x="1045.6" y="32" text-anchor="end" fill="#66717d" font-size="14" font-weight="650" font-family="Inter, system-ui, sans-serif">7-Tage außerhalb</text>
<circle cx="920.8" cy="28" r="4.5" fill="#d9822b"/>
<text x="880.8" y="32" text-anchor="end" fill="#66717d" font-size="14" font-weight="650" font-family="Inter, system-ui, sans-serif">7-Tage im Korridor</text>
<circle cx="742.4" cy="28" r="4.5" fill="#287c71"/>
<text x="702.4" y="32" text-anchor="end" fill="#66717d" font-size="14" font-weight="650" font-family="Inter, system-ui, sans-serif">Tages-RMSSD</text>
<circle cx="611.6" cy="28" r="4.5" fill="#a8b0ba"/>
</svg>

